M48
; DRILL file {KiCad 7.0.7} date Tue 31 Oct 2023 10:05:32 AM CDT
; FORMAT={-:-/ absolute / inch / decimal}
; #@! TF.CreationDate,2023-10-31T10:05:32-05:00
; #@! TF.GenerationSoftware,Kicad,Pcbnew,7.0.7
; #@! TF.FileFunction,Plated,1,4,PTH
FMAT,2
INCH
; #@! TA.AperFunction,Plated,PTH,ViaDrill
T1C0.0100
; #@! TA.AperFunction,Plated,PTH,ComponentDrill
T2C0.0315
; #@! TA.AperFunction,Plated,PTH,ComponentDrill
T3C0.0394
; #@! TA.AperFunction,Plated,PTH,ComponentDrill
T4C0.0512
; #@! TA.AperFunction,Plated,PTH,ComponentDrill
T5C0.0630
; #@! TA.AperFunction,Plated,PTH,ComponentDrill
T6C0.0630
%
G90
G05
T1
X3.7098Y-2.345
X5.2013Y-4.275
X5.2013Y-5.735
X5.2113Y-2.805
X5.2113Y-3.585
X5.2113Y-5.045
X5.23Y-2.1701
X5.419Y-4.265
X5.422Y-5.035
X5.423Y-5.725
X5.428Y-2.795
X5.431Y-3.5849
X5.559Y-1.4546
X5.65Y-1.565
X5.66Y-2.025
X5.68Y-4.62
X5.68Y-4.82
X5.68Y-5.02
X5.68Y-5.22
X5.68Y-5.42
X5.68Y-5.62
X5.68Y-5.82
X5.68Y-6.0
X5.7Y-2.498
X5.72Y-1.625
X5.83Y-1.565
X5.88Y-4.62
X5.88Y-4.82
X5.88Y-5.02
X5.88Y-5.22
X5.88Y-5.42
X5.88Y-5.62
X5.88Y-5.82
X5.88Y-6.0
X5.9Y-1.765
X5.93Y-1.799
X6.002Y-1.797
X6.068Y-5.332
X6.07Y-1.635
X6.072Y-5.224
X6.078Y-5.436
X6.08Y-4.62
X6.08Y-4.82
X6.08Y-5.02
X6.08Y-5.62
X6.08Y-5.82
X6.08Y-6.0
X6.146Y-5.504
X6.174Y-5.218
X6.196Y-5.59
X6.232Y-5.16
X6.236Y-5.072
X6.242Y-5.254
X6.264Y-5.688
X6.28Y-4.62
X6.28Y-4.82
X6.28Y-5.82
X6.28Y-6.0
X6.2917Y-5.5463
X6.2977Y-5.5913
X6.3Y-5.025
X6.3207Y-5.5093
X6.3407Y-5.5533
X6.3779Y-5.226
X6.3823Y-5.5227
X6.394Y-5.034
X6.4077Y-5.4876
X6.4117Y-5.2601
X6.447Y-5.463
X6.448Y-1.845
X6.472Y-5.048
X6.48Y-4.62
X6.48Y-4.82
X6.48Y-5.62
X6.48Y-5.82
X6.48Y-6.0
X6.4807Y-5.1323
X6.494Y-5.172
X6.515Y-5.475
X6.526Y-5.112
X6.534Y-5.424
X6.542Y-5.21
X6.5511Y-3.1246
X6.603Y-2.06
X6.614Y-5.422
X6.628Y-5.214
X6.639Y-4.092
X6.643Y-2.365
X6.658Y-2.831
X6.674Y-5.38
X6.68Y-4.62
X6.68Y-4.82
X6.68Y-5.02
X6.68Y-5.464
X6.68Y-5.62
X6.68Y-5.82
X6.68Y-6.0
X6.72Y-5.212
X6.774Y-2.947
X6.776Y-3.7139
X6.777Y-3.35
X6.777Y-3.764
X6.78Y-5.12
X6.784Y-5.244
X6.8Y-1.425
X6.8Y-1.705
X6.803Y-5.391
X6.84Y-2.345
X6.84Y-2.605
X6.865Y-5.248
X6.8679Y-3.8139
X6.8689Y-3.8639
X6.8689Y-3.9139
X6.871Y-3.564
X6.872Y-3.6139
X6.873Y-3.664
X6.88Y-4.62
X6.88Y-4.82
X6.88Y-5.02
X6.88Y-5.62
X6.88Y-5.82
X6.88Y-6.0
X6.881Y-5.444
X6.9Y-5.135
X6.925Y-5.391
X6.952Y-5.211
X7.0037Y-4.9877
X7.0077Y-5.5757
X7.02Y-1.1797
X7.024Y-5.208
X7.03Y-2.085
X7.03Y-2.855
X7.042Y-5.2833
X7.042Y-5.378
X7.06Y-1.975
X7.0687Y-3.6895
X7.08Y-4.62
X7.08Y-4.82
X7.08Y-5.82
X7.08Y-6.0
X7.082Y-5.682
X7.1189Y-3.5479
X7.1212Y-3.685
X7.1212Y-3.78
X7.1212Y-3.875
X7.128Y-5.372
X7.14Y-5.204
X7.142Y-5.542
X7.144Y-5.286
X7.15Y-5.45
X7.1689Y-3.5489
X7.18Y-5.12
X7.185Y-3.255
X7.2138Y-3.685
X7.2138Y-3.875
X7.22Y-5.282
X7.22Y-5.406
X7.2473Y-3.44
X7.25Y-5.496
X7.28Y-4.62
X7.28Y-4.82
X7.28Y-5.02
X7.28Y-5.82
X7.28Y-6.0
X7.282Y-5.672
X7.293Y-3.458
X7.298Y-5.284
X7.3087Y-3.685
X7.3087Y-3.78
X7.3087Y-3.875
X7.309Y-3.135
X7.316Y-5.382
X7.319Y-4.132
X7.32Y-3.009
X7.348Y-2.905
X7.352Y-5.211
X7.356Y-5.438
X7.369Y-4.132
X7.37Y-5.286
X7.414Y-5.156
X7.464Y-5.514
X7.47Y-3.545
X7.48Y-4.62
X7.48Y-4.82
X7.48Y-5.02
X7.48Y-5.82
X7.48Y-6.0
X7.502Y-5.158
X7.515Y-3.255
X7.519Y-3.539
X7.519Y-4.134
T2
X5.0527Y-2.7512
X5.0527Y-3.0512
X5.0527Y-3.5412
X5.0527Y-3.8412
X5.0527Y-4.2243
X5.0527Y-4.5243
X5.0527Y-4.9912
X5.0527Y-5.2912
X5.0527Y-5.6812
X5.0527Y-5.9812
X7.02Y-1.425
X7.02Y-1.725
X7.03Y-2.315
X7.03Y-2.615
T3
X7.02Y-4.36
X7.12Y-4.36
X7.22Y-4.36
X7.32Y-4.36
X7.42Y-4.36
T4
X4.1887Y-2.6664
X4.1887Y-3.3959
X4.1887Y-4.1255
X4.1887Y-4.855
X4.1887Y-5.5845
X4.6336Y-2.6664
X4.6336Y-3.1388
X4.6336Y-3.3959
X4.6336Y-3.8684
X4.6336Y-4.1255
X4.6336Y-4.5979
X4.6336Y-4.855
X4.6336Y-5.3274
X4.6336Y-5.5845
X4.6336Y-6.057
X4.7123Y-2.9026
X4.7123Y-3.6321
X4.7123Y-4.3617
X4.7123Y-5.0912
X4.7123Y-5.8208
T5
X3.3594Y-1.525
X3.3594Y-1.725
X3.617Y-2.46
X4.19Y-2.229
X4.217Y-2.46
X4.79Y-2.229
X7.35Y-2.275
X7.35Y-2.475
X7.35Y-2.675
X7.3506Y-1.365
X7.3506Y-1.565
X7.3506Y-1.765
T6
X3.37Y-2.78
X3.37Y-2.98
X3.37Y-3.5071
X3.37Y-3.7071
X3.37Y-4.2335
X3.37Y-4.4335
X3.37Y-4.9662
X3.37Y-5.1662
X3.37Y-5.6958
X3.37Y-5.8958
T0
M30
