%TF.GenerationSoftware,KiCad,Pcbnew,7.0.7*%
%TF.CreationDate,2023-11-01T18:07:50-05:00*%
%TF.ProjectId,greenhouse-controller-pcb,67726565-6e68-46f7-9573-652d636f6e74,rev?*%
%TF.SameCoordinates,Original*%
%TF.FileFunction,Copper,L4,Bot*%
%TF.FilePolarity,Positive*%
%FSLAX46Y46*%
G04 Gerber Fmt 4.6, Leading zero omitted, Abs format (unit mm)*
G04 Created by KiCad (PCBNEW 7.0.7) date 2023-11-01 18:07:50*
%MOMM*%
%LPD*%
G01*
G04 APERTURE LIST*
%TA.AperFunction,ComponentPad*%
%ADD10R,2.400000X2.400000*%
%TD*%
%TA.AperFunction,ComponentPad*%
%ADD11C,2.400000*%
%TD*%
%TA.AperFunction,ComponentPad*%
%ADD12C,1.808000*%
%TD*%
%TA.AperFunction,ComponentPad*%
%ADD13R,1.700000X1.700000*%
%TD*%
%TA.AperFunction,ComponentPad*%
%ADD14O,1.700000X1.700000*%
%TD*%
%TA.AperFunction,ComponentPad*%
%ADD15R,1.600000X1.600000*%
%TD*%
%TA.AperFunction,ComponentPad*%
%ADD16O,1.600000X1.600000*%
%TD*%
%TA.AperFunction,ComponentPad*%
%ADD17C,2.108200*%
%TD*%
%TA.AperFunction,ComponentPad*%
%ADD18R,3.200000X3.200000*%
%TD*%
%TA.AperFunction,ComponentPad*%
%ADD19O,3.200000X3.200000*%
%TD*%
%TA.AperFunction,SMDPad,CuDef*%
%ADD20R,4.200000X1.350000*%
%TD*%
%TA.AperFunction,ComponentPad*%
%ADD21C,1.600000*%
%TD*%
%TA.AperFunction,ViaPad*%
%ADD22C,0.863600*%
%TD*%
%TA.AperFunction,Conductor*%
%ADD23C,0.508000*%
%TD*%
%TA.AperFunction,Conductor*%
%ADD24C,0.250000*%
%TD*%
%TA.AperFunction,Conductor*%
%ADD25C,0.254000*%
%TD*%
G04 APERTURE END LIST*
D10*
%TO.P,J6,1,Pin_1*%
%TO.N,+12V*%
X85327500Y-38735000D03*
D11*
%TO.P,J6,2,Pin_2*%
%TO.N,GNDREF*%
X85327500Y-43815000D03*
%TD*%
D12*
%TO.P,K3,1,1*%
%TO.N,Net-(J9-Pin_2)*%
X119692499Y-110786599D03*
%TO.P,K3,2,2*%
%TO.N,+12V*%
X117692497Y-104786600D03*
%TO.P,K3,3,3*%
%TO.N,Net-(J9-Pin_1)*%
X106392502Y-104786600D03*
%TO.P,K3,5,5*%
%TO.N,Net-(D6-A)*%
X117692497Y-116786598D03*
%TD*%
D13*
%TO.P,J1,1,Pin_1*%
%TO.N,GNDREF*%
X178308000Y-110744000D03*
D14*
%TO.P,J1,2,Pin_2*%
%TO.N,JTAG_TCK*%
X180848000Y-110744000D03*
%TO.P,J1,3,Pin_3*%
%TO.N,JTAG_TDO*%
X183388000Y-110744000D03*
%TO.P,J1,4,Pin_4*%
%TO.N,JTAG_TDI*%
X185928000Y-110744000D03*
%TO.P,J1,5,Pin_5*%
%TO.N,JTAG_TMS*%
X188468000Y-110744000D03*
%TD*%
D15*
%TO.P,D8,1,K*%
%TO.N,+12V*%
X128338501Y-144302999D03*
D16*
%TO.P,D8,2,A*%
%TO.N,Net-(D8-A)*%
X128338501Y-151922999D03*
%TD*%
D17*
%TO.P,J8,1,Pin_1*%
%TO.N,Net-(J8-Pin_1)*%
X85598000Y-89081199D03*
%TO.P,J8,2,Pin_2*%
%TO.N,Net-(J8-Pin_2)*%
X85598000Y-94161199D03*
%TD*%
D15*
%TO.P,D5,1,K*%
%TO.N,+12V*%
X128338501Y-89946999D03*
D16*
%TO.P,D5,2,A*%
%TO.N,Net-(D5-A)*%
X128338501Y-97566999D03*
%TD*%
D15*
%TO.P,D4,1,K*%
%TO.N,+12V*%
X128338501Y-69880999D03*
D16*
%TO.P,D4,2,A*%
%TO.N,Net-(D4-A)*%
X128338501Y-77500999D03*
%TD*%
D12*
%TO.P,K2,1,1*%
%TO.N,Net-(J8-Pin_2)*%
X119692499Y-92256199D03*
%TO.P,K2,2,2*%
%TO.N,+12V*%
X117692497Y-86256200D03*
%TO.P,K2,3,3*%
%TO.N,Net-(J8-Pin_1)*%
X106392502Y-86256200D03*
%TO.P,K2,5,5*%
%TO.N,Net-(D5-A)*%
X117692497Y-98256198D03*
%TD*%
D17*
%TO.P,J10,1,Pin_1*%
%TO.N,Net-(J10-Pin_1)*%
X85598000Y-126141999D03*
%TO.P,J10,2,Pin_2*%
%TO.N,Net-(J10-Pin_2)*%
X85598000Y-131221999D03*
%TD*%
D10*
%TO.P,J2,1,Pin_1*%
%TO.N,Net-(J2-Pin_1)*%
X186706500Y-44831000D03*
D11*
%TO.P,J2,2,Pin_2*%
%TO.N,Net-(J2-Pin_2)*%
X186706500Y-39751000D03*
%TO.P,J2,3,Pin_3*%
%TO.N,GNDREF*%
X186706500Y-34671000D03*
%TD*%
D17*
%TO.P,J11,1,Pin_1*%
%TO.N,Net-(J11-Pin_1)*%
X85598000Y-144672399D03*
%TO.P,J11,2,Pin_2*%
%TO.N,Net-(J11-Pin_2)*%
X85598000Y-149752399D03*
%TD*%
D10*
%TO.P,J3,1,Pin_1*%
%TO.N,Net-(J3-Pin_1)*%
X186690000Y-67945000D03*
D11*
%TO.P,J3,2,Pin_2*%
%TO.N,Net-(J3-Pin_2)*%
X186690000Y-62865000D03*
%TO.P,J3,3,Pin_3*%
%TO.N,GNDREF*%
X186690000Y-57785000D03*
%TD*%
D18*
%TO.P,D1,1,K*%
%TO.N,Net-(D1-K)*%
X107111800Y-62484000D03*
D19*
%TO.P,D1,2,A*%
%TO.N,GNDREF*%
X91871800Y-62484000D03*
%TD*%
D17*
%TO.P,J7,1,Pin_1*%
%TO.N,Net-(J7-Pin_1)*%
X85598000Y-70612000D03*
%TO.P,J7,2,Pin_2*%
%TO.N,Net-(J7-Pin_2)*%
X85598000Y-75692000D03*
%TD*%
D18*
%TO.P,D3,1,K*%
%TO.N,Net-(D3-K)*%
X121666000Y-56616600D03*
D19*
%TO.P,D3,2,A*%
%TO.N,GNDREF*%
X106426000Y-56616600D03*
%TD*%
D12*
%TO.P,K5,1,1*%
%TO.N,Net-(J11-Pin_2)*%
X119692499Y-147847399D03*
%TO.P,K5,2,2*%
%TO.N,+12V*%
X117692497Y-141847400D03*
%TO.P,K5,3,3*%
%TO.N,Net-(J11-Pin_1)*%
X106392502Y-141847400D03*
%TO.P,K5,5,5*%
%TO.N,Net-(D8-A)*%
X117692497Y-153847398D03*
%TD*%
%TO.P,K1,1,1*%
%TO.N,Net-(J7-Pin_2)*%
X119692499Y-73725799D03*
%TO.P,K1,2,2*%
%TO.N,+12V*%
X117692497Y-67725800D03*
%TO.P,K1,3,3*%
%TO.N,Net-(J7-Pin_1)*%
X106392502Y-67725800D03*
%TO.P,K1,5,5*%
%TO.N,Net-(D4-A)*%
X117692497Y-79725798D03*
%TD*%
D20*
%TO.P,J4,2,Ext*%
%TO.N,GNDREF*%
X189755314Y-138011800D03*
X189755314Y-132361800D03*
%TD*%
D15*
%TO.P,D6,1,K*%
%TO.N,+12V*%
X128338501Y-107297499D03*
D16*
%TO.P,D6,2,A*%
%TO.N,Net-(D6-A)*%
X128338501Y-114917499D03*
%TD*%
D12*
%TO.P,K4,1,1*%
%TO.N,Net-(J10-Pin_2)*%
X119692499Y-129316999D03*
%TO.P,K4,2,2*%
%TO.N,+12V*%
X117692497Y-123317000D03*
%TO.P,K4,3,3*%
%TO.N,Net-(J10-Pin_1)*%
X106392502Y-123317000D03*
%TO.P,K4,5,5*%
%TO.N,Net-(D7-A)*%
X117692497Y-135316998D03*
%TD*%
D21*
%TO.P,R7,1*%
%TO.N,Net-(J3-Pin_1)*%
X178562000Y-66421000D03*
D16*
%TO.P,R7,2*%
%TO.N,Net-(J3-Pin_2)*%
X178562000Y-58801000D03*
%TD*%
D17*
%TO.P,J9,1,Pin_1*%
%TO.N,Net-(J9-Pin_1)*%
X85598000Y-107530900D03*
%TO.P,J9,2,Pin_2*%
%TO.N,Net-(J9-Pin_2)*%
X85598000Y-112610900D03*
%TD*%
D15*
%TO.P,D7,1,K*%
%TO.N,+12V*%
X128338501Y-126776999D03*
D16*
%TO.P,D7,2,A*%
%TO.N,Net-(D7-A)*%
X128338501Y-134396999D03*
%TD*%
D21*
%TO.P,R4,1*%
%TO.N,Net-(J2-Pin_1)*%
X178308000Y-43815000D03*
D16*
%TO.P,R4,2*%
%TO.N,Net-(J2-Pin_2)*%
X178308000Y-36195000D03*
%TD*%
D22*
%TO.N,GNDREF*%
X169672000Y-152400000D03*
X184912000Y-122428000D03*
X154432000Y-142748000D03*
X169672000Y-127508000D03*
X154432000Y-122428000D03*
X174752000Y-147828000D03*
X178866800Y-134194717D03*
X157378400Y-141986000D03*
X174752000Y-152400000D03*
X172212000Y-130048000D03*
X185369200Y-134213600D03*
X144272000Y-137668000D03*
X189992000Y-127508000D03*
X169672000Y-142748000D03*
X174752000Y-117348000D03*
X186740800Y-132359400D03*
X159512000Y-117348000D03*
X179882800Y-144322800D03*
X154432000Y-127508000D03*
X169672000Y-147828000D03*
X164947600Y-131368800D03*
X156108400Y-139801600D03*
X187198000Y-134264400D03*
X159105600Y-144475200D03*
X144272000Y-122428000D03*
X168630600Y-103936800D03*
X165760400Y-129844800D03*
X154432000Y-117348000D03*
X178562000Y-52959000D03*
X179832000Y-147828000D03*
X180879750Y-96012000D03*
X174752000Y-122428000D03*
X179832000Y-122428000D03*
X189992000Y-147828000D03*
X174371000Y-133299200D03*
X184912000Y-117348000D03*
X156819600Y-132537200D03*
X144272000Y-142748000D03*
X158292800Y-131064000D03*
X169672000Y-117348000D03*
X181457600Y-134264400D03*
X178409600Y-132283200D03*
X149352000Y-152400000D03*
X160020000Y-127635000D03*
X181356000Y-132181600D03*
X184912000Y-147828000D03*
X173736000Y-66167000D03*
X144272000Y-132588000D03*
X169672000Y-122428000D03*
X183229250Y-93599000D03*
X182372000Y-130048000D03*
X172796200Y-136931400D03*
X154432000Y-152400000D03*
X149352000Y-117348000D03*
X158394400Y-128828800D03*
X164388800Y-128219200D03*
X159512000Y-122428000D03*
X185642250Y-96012000D03*
X174752000Y-127508000D03*
X185642250Y-98425000D03*
X164592000Y-117348000D03*
X183388000Y-134162800D03*
X165481000Y-139065000D03*
X180879750Y-93599000D03*
X154127200Y-135432800D03*
X179832000Y-152400000D03*
X144272000Y-152400000D03*
X159512000Y-147828000D03*
X184150000Y-139598400D03*
X144272000Y-127508000D03*
X189992000Y-117348000D03*
X141198600Y-36948000D03*
X164592000Y-142748000D03*
X175895000Y-136931400D03*
X164592000Y-152400000D03*
X182499000Y-82677000D03*
X190982600Y-89890600D03*
X159512000Y-152400000D03*
X165963600Y-137769600D03*
X149352000Y-127508000D03*
X178308000Y-29964000D03*
X149352000Y-147828000D03*
X185826400Y-136702800D03*
X190550800Y-131013200D03*
X148082000Y-39751000D03*
X154432000Y-147828000D03*
X172313600Y-133197600D03*
X149352000Y-142748000D03*
X186842400Y-138125200D03*
X184912000Y-152400000D03*
X144272000Y-117348000D03*
X144272000Y-147828000D03*
X183229250Y-98425000D03*
X164592000Y-122428000D03*
X190982600Y-105003600D03*
X184912000Y-127508000D03*
X154228800Y-132689600D03*
X189585600Y-140055600D03*
X169519600Y-136652000D03*
X149352000Y-137668000D03*
X189992000Y-122428000D03*
X185642250Y-93599000D03*
X169672000Y-138785600D03*
X181610000Y-138430000D03*
X183388000Y-137312400D03*
X181051200Y-136448800D03*
X162407600Y-127863600D03*
X179832000Y-117348000D03*
X143510000Y-39751000D03*
X149352000Y-122428000D03*
X172720000Y-43307000D03*
X167995600Y-137718800D03*
X175260000Y-130429000D03*
X188315600Y-130962400D03*
X174752000Y-142748000D03*
X181406800Y-140766800D03*
X149352000Y-132588000D03*
X174777400Y-138277600D03*
X189992000Y-152400000D03*
X154381200Y-138074400D03*
X164592000Y-147828000D03*
X180879750Y-98425000D03*
X184962800Y-144068800D03*
X176580800Y-132359400D03*
%TO.N,+3.3V*%
X145288000Y-41275000D03*
X172720000Y-36195000D03*
X152450800Y-45643800D03*
X190881000Y-82677000D03*
X179324000Y-50165000D03*
X173736000Y-59563000D03*
X160545314Y-139936600D03*
X178562000Y-72517000D03*
X162856714Y-133607200D03*
X143764000Y-51435000D03*
X154178000Y-41529000D03*
%TO.N,ESP32_UART_TX*%
X150622000Y-45693669D03*
X187172600Y-104952800D03*
%TO.N,ESP32_UART_RX*%
X149860000Y-44830500D03*
X185902600Y-104952800D03*
%TO.N,Net-(U4-DIO3)*%
X158546800Y-133451600D03*
X164609314Y-130360800D03*
%TO.N,/LoRa Interface/DIO2*%
X177995114Y-141621700D03*
X159961114Y-142019400D03*
%TO.N,LoRa_BUSY*%
X180819600Y-90116299D03*
X159808714Y-140876400D03*
%TO.N,MISO*%
X162110534Y-140276380D03*
X174444200Y-96872699D03*
%TO.N,MOSI*%
X162756001Y-139385456D03*
X174469600Y-98142699D03*
%TO.N,SCK*%
X163753800Y-138760200D03*
X174469600Y-99412699D03*
%TO.N,LoRa_SPI_CS*%
X161053314Y-141054200D03*
X182089600Y-90141699D03*
%TO.N,EN*%
X163779200Y-46863000D03*
X185648600Y-79629000D03*
X186639200Y-73787000D03*
X185928000Y-76428600D03*
%TO.N,RS-485_1_TX*%
X185242200Y-87833200D03*
X167716200Y-52324000D03*
%TO.N,RS-485_2_RX*%
X184082000Y-87376000D03*
X168732200Y-60071000D03*
%TO.N,RS-485_2_TX*%
X172059600Y-74853800D03*
X169113200Y-71907400D03*
%TO.N,RELAY_1*%
X137871200Y-70993000D03*
X174523400Y-90525600D03*
%TO.N,RELAY_2*%
X137947400Y-91056099D03*
X174548800Y-91792699D03*
%TO.N,RELAY_3*%
X137642600Y-108331000D03*
X174574200Y-93065600D03*
%TO.N,RELAY_4*%
X137718800Y-127889000D03*
X172110400Y-94332699D03*
%TO.N,RELAY_5*%
X172135800Y-95605600D03*
X137744200Y-145415000D03*
%TO.N,RS-485_1_RX_EN*%
X166398600Y-79364900D03*
X172135800Y-85090000D03*
%TO.N,ANT_SW*%
X177893514Y-126686500D03*
X179545500Y-93713226D03*
%TD*%
D23*
%TO.N,GNDREF*%
X186955800Y-138011800D02*
X186842400Y-138125200D01*
X189755314Y-132361800D02*
X186743200Y-132361800D01*
X186743200Y-132361800D02*
X186740800Y-132359400D01*
X189718114Y-138049000D02*
X189755314Y-138011800D01*
X189755314Y-138011800D02*
X186955800Y-138011800D01*
D24*
%TO.N,ESP32_UART_TX*%
X150622000Y-55880000D02*
X150622000Y-45693669D01*
D25*
X188620400Y-103505000D02*
X188620400Y-93878400D01*
D24*
X188620400Y-93878400D02*
X150622000Y-55880000D01*
D25*
X187172600Y-104952800D02*
X188620400Y-103505000D01*
D24*
%TO.N,ESP32_UART_RX*%
X149859758Y-56717958D02*
X149859758Y-44830742D01*
X149859758Y-44830742D02*
X149860000Y-44830500D01*
X185902600Y-104952800D02*
X187325000Y-103530400D01*
X187325000Y-103530400D02*
X187325000Y-94183200D01*
X187325000Y-94183200D02*
X149859758Y-56717958D01*
D25*
%TO.N,Net-(U4-DIO3)*%
X161637600Y-130360800D02*
X164609314Y-130360800D01*
X158546800Y-133451600D02*
X161637600Y-130360800D01*
%TO.N,/LoRa Interface/DIO2*%
X175501866Y-143510000D02*
X177390166Y-141621700D01*
X177390166Y-141621700D02*
X177995114Y-141621700D01*
X161451714Y-143510000D02*
X175501866Y-143510000D01*
X159961114Y-142019400D02*
X161451714Y-143510000D01*
%TO.N,LoRa_BUSY*%
X179991545Y-90116299D02*
X180819600Y-90116299D01*
X157607000Y-133108134D02*
X160909000Y-129806134D01*
X159786514Y-140250906D02*
X159786514Y-136532248D01*
X160909000Y-109198844D02*
X179991545Y-90116299D01*
X157607000Y-134352734D02*
X157607000Y-133108134D01*
X159808714Y-140876400D02*
X159808714Y-140273106D01*
X160909000Y-129806134D02*
X160909000Y-109198844D01*
X159808714Y-140273106D02*
X159786514Y-140250906D01*
X159786514Y-136532248D02*
X157607000Y-134352734D01*
%TO.N,MISO*%
X166370000Y-104379896D02*
X173877197Y-96872699D01*
X161624914Y-139790760D02*
X161624914Y-137703832D01*
X173877197Y-96872699D02*
X174444200Y-96872699D01*
X167259000Y-128663134D02*
X166370000Y-127774134D01*
X161624914Y-137703832D02*
X167259000Y-132069746D01*
X167259000Y-132069746D02*
X167259000Y-128663134D01*
X166370000Y-127774134D02*
X166370000Y-104379896D01*
X162110534Y-140276380D02*
X161624914Y-139790760D01*
D24*
%TO.N,MOSI*%
X173252077Y-98142699D02*
X167873800Y-103520976D01*
D25*
X162835792Y-139385456D02*
X162756001Y-139385456D01*
D24*
X167873800Y-103520976D02*
X167873800Y-104907200D01*
X168300400Y-105333800D02*
X168300400Y-130151823D01*
X167714599Y-130737624D02*
X167714599Y-132256199D01*
X167714599Y-132256199D02*
X162078914Y-137891884D01*
X174469600Y-98142699D02*
X173252077Y-98142699D01*
D25*
X162078914Y-137891884D02*
X162078914Y-138708369D01*
D24*
X167873800Y-104907200D02*
X168300400Y-105333800D01*
D25*
X162078914Y-138708369D02*
X162756001Y-139385456D01*
D24*
X168300400Y-130151823D02*
X167714599Y-130737624D01*
D25*
%TO.N,SCK*%
X163753800Y-137439314D02*
X167433134Y-133759980D01*
X168141218Y-133759980D02*
X171450000Y-130451198D01*
X167433134Y-133759980D02*
X168141218Y-133759980D01*
X174441299Y-99441000D02*
X174469600Y-99412699D01*
X172593000Y-99441000D02*
X174441299Y-99441000D01*
X163753800Y-138760200D02*
X163753800Y-137439314D01*
X171450000Y-130451198D02*
X171450000Y-100584000D01*
X171450000Y-100584000D02*
X172593000Y-99441000D01*
D24*
%TO.N,LoRa_SPI_CS*%
X175641000Y-126130000D02*
X175641000Y-96365176D01*
D25*
X179796169Y-130285169D02*
X175641000Y-126130000D01*
D24*
X175641000Y-96365176D02*
X181864477Y-90141699D01*
X181864477Y-90141699D02*
X182089600Y-90141699D01*
D25*
X161053314Y-141054200D02*
X161985114Y-141986000D01*
X174510134Y-141986000D02*
X179796169Y-136699965D01*
X161985114Y-141986000D02*
X174510134Y-141986000D01*
X179796169Y-136699965D02*
X179796169Y-130285169D01*
%TO.N,EN*%
X185928000Y-76428600D02*
X185928000Y-79349600D01*
X182702200Y-65786000D02*
X182702200Y-69850000D01*
X163779200Y-46863000D02*
X182702200Y-65786000D01*
X182702200Y-69850000D02*
X186639200Y-73787000D01*
X185928000Y-79349600D02*
X185648600Y-79629000D01*
%TO.N,RS-485_1_TX*%
X182248200Y-72944948D02*
X184781800Y-75478547D01*
X185242200Y-87541666D02*
X185242200Y-87833200D01*
X182248200Y-66856000D02*
X182248200Y-72944948D01*
X167716200Y-52324000D02*
X182248200Y-66856000D01*
X184781800Y-87081266D02*
X185242200Y-87541666D01*
X184781800Y-75478547D02*
X184781800Y-87081266D01*
%TO.N,RS-485_2_RX*%
X184327800Y-75666600D02*
X168732200Y-60071000D01*
X184082000Y-87376000D02*
X184327800Y-87130200D01*
X184327800Y-87130200D02*
X184327800Y-75666600D01*
%TO.N,RS-485_2_TX*%
X172059600Y-74853800D02*
X169113200Y-71907400D01*
%TO.N,RELAY_1*%
X137871200Y-70993000D02*
X154990800Y-70993000D01*
X154990800Y-70993000D02*
X174523400Y-90525600D01*
%TO.N,RELAY_2*%
X137947400Y-91056099D02*
X173812200Y-91056099D01*
X173812200Y-91056099D02*
X174548800Y-91792699D01*
%TO.N,RELAY_3*%
X152908000Y-93065600D02*
X174574200Y-93065600D01*
X137642600Y-108331000D02*
X152908000Y-93065600D01*
%TO.N,RELAY_4*%
X137718800Y-127889000D02*
X137718800Y-119837200D01*
X163223301Y-94332699D02*
X172110400Y-94332699D01*
X137718800Y-119837200D02*
X163223301Y-94332699D01*
%TO.N,RELAY_5*%
X163982400Y-95605600D02*
X172135800Y-95605600D01*
X138887200Y-120700800D02*
X163982400Y-95605600D01*
X138887200Y-144272000D02*
X138887200Y-120700800D01*
X137744200Y-145415000D02*
X138887200Y-144272000D01*
%TO.N,RS-485_1_RX_EN*%
X166410700Y-79364900D02*
X172135800Y-85090000D01*
X166398600Y-79364900D02*
X166410700Y-79364900D01*
%TO.N,ANT_SW*%
X176276000Y-96982726D02*
X179545500Y-93713226D01*
X177893514Y-126686500D02*
X176276000Y-125068986D01*
X176276000Y-125068986D02*
X176276000Y-96982726D01*
%TD*%
M02*
