%TF.GenerationSoftware,KiCad,Pcbnew,7.0.7*%
%TF.CreationDate,2023-11-01T18:07:50-05:00*%
%TF.ProjectId,greenhouse-controller-pcb,67726565-6e68-46f7-9573-652d636f6e74,rev?*%
%TF.SameCoordinates,Original*%
%TF.FileFunction,Legend,Top*%
%TF.FilePolarity,Positive*%
%FSLAX46Y46*%
G04 Gerber Fmt 4.6, Leading zero omitted, Abs format (unit mm)*
G04 Created by KiCad (PCBNEW 7.0.7) date 2023-11-01 18:07:50*
%MOMM*%
%LPD*%
G01*
G04 APERTURE LIST*
%ADD10C,0.150000*%
%ADD11C,0.127000*%
%ADD12C,0.120000*%
%ADD13C,0.152400*%
%ADD14C,0.200000*%
G04 APERTURE END LIST*
D10*
X158496000Y-132486400D02*
X159385000Y-133223000D01*
X164973000Y-135001000D02*
X165227000Y-135255000D01*
X166979600Y-138176000D02*
X166268400Y-137515600D01*
X158369000Y-131191000D02*
X159385000Y-132207000D01*
X169291000Y-132842000D02*
X172085000Y-131699000D01*
X169545000Y-131699000D02*
X167513000Y-132842000D01*
X167259000Y-132080000D02*
X166243000Y-132842000D01*
X156210000Y-132334000D02*
X157099000Y-133477000D01*
X134772143Y-126693819D02*
X134438810Y-126217628D01*
X134200715Y-126693819D02*
X134200715Y-125693819D01*
X134200715Y-125693819D02*
X134581667Y-125693819D01*
X134581667Y-125693819D02*
X134676905Y-125741438D01*
X134676905Y-125741438D02*
X134724524Y-125789057D01*
X134724524Y-125789057D02*
X134772143Y-125884295D01*
X134772143Y-125884295D02*
X134772143Y-126027152D01*
X134772143Y-126027152D02*
X134724524Y-126122390D01*
X134724524Y-126122390D02*
X134676905Y-126170009D01*
X134676905Y-126170009D02*
X134581667Y-126217628D01*
X134581667Y-126217628D02*
X134200715Y-126217628D01*
X135153096Y-125789057D02*
X135200715Y-125741438D01*
X135200715Y-125741438D02*
X135295953Y-125693819D01*
X135295953Y-125693819D02*
X135534048Y-125693819D01*
X135534048Y-125693819D02*
X135629286Y-125741438D01*
X135629286Y-125741438D02*
X135676905Y-125789057D01*
X135676905Y-125789057D02*
X135724524Y-125884295D01*
X135724524Y-125884295D02*
X135724524Y-125979533D01*
X135724524Y-125979533D02*
X135676905Y-126122390D01*
X135676905Y-126122390D02*
X135105477Y-126693819D01*
X135105477Y-126693819D02*
X135724524Y-126693819D01*
X136581667Y-125693819D02*
X136391191Y-125693819D01*
X136391191Y-125693819D02*
X136295953Y-125741438D01*
X136295953Y-125741438D02*
X136248334Y-125789057D01*
X136248334Y-125789057D02*
X136153096Y-125931914D01*
X136153096Y-125931914D02*
X136105477Y-126122390D01*
X136105477Y-126122390D02*
X136105477Y-126503342D01*
X136105477Y-126503342D02*
X136153096Y-126598580D01*
X136153096Y-126598580D02*
X136200715Y-126646200D01*
X136200715Y-126646200D02*
X136295953Y-126693819D01*
X136295953Y-126693819D02*
X136486429Y-126693819D01*
X136486429Y-126693819D02*
X136581667Y-126646200D01*
X136581667Y-126646200D02*
X136629286Y-126598580D01*
X136629286Y-126598580D02*
X136676905Y-126503342D01*
X136676905Y-126503342D02*
X136676905Y-126265247D01*
X136676905Y-126265247D02*
X136629286Y-126170009D01*
X136629286Y-126170009D02*
X136581667Y-126122390D01*
X136581667Y-126122390D02*
X136486429Y-126074771D01*
X136486429Y-126074771D02*
X136295953Y-126074771D01*
X136295953Y-126074771D02*
X136200715Y-126122390D01*
X136200715Y-126122390D02*
X136153096Y-126170009D01*
X136153096Y-126170009D02*
X136105477Y-126265247D01*
X165205580Y-131071857D02*
X165253200Y-131119476D01*
X165253200Y-131119476D02*
X165300819Y-131262333D01*
X165300819Y-131262333D02*
X165300819Y-131357571D01*
X165300819Y-131357571D02*
X165253200Y-131500428D01*
X165253200Y-131500428D02*
X165157961Y-131595666D01*
X165157961Y-131595666D02*
X165062723Y-131643285D01*
X165062723Y-131643285D02*
X164872247Y-131690904D01*
X164872247Y-131690904D02*
X164729390Y-131690904D01*
X164729390Y-131690904D02*
X164538914Y-131643285D01*
X164538914Y-131643285D02*
X164443676Y-131595666D01*
X164443676Y-131595666D02*
X164348438Y-131500428D01*
X164348438Y-131500428D02*
X164300819Y-131357571D01*
X164300819Y-131357571D02*
X164300819Y-131262333D01*
X164300819Y-131262333D02*
X164348438Y-131119476D01*
X164348438Y-131119476D02*
X164396057Y-131071857D01*
X165300819Y-130119476D02*
X165300819Y-130690904D01*
X165300819Y-130405190D02*
X164300819Y-130405190D01*
X164300819Y-130405190D02*
X164443676Y-130500428D01*
X164443676Y-130500428D02*
X164538914Y-130595666D01*
X164538914Y-130595666D02*
X164586533Y-130690904D01*
X165300819Y-129167095D02*
X165300819Y-129738523D01*
X165300819Y-129452809D02*
X164300819Y-129452809D01*
X164300819Y-129452809D02*
X164443676Y-129548047D01*
X164443676Y-129548047D02*
X164538914Y-129643285D01*
X164538914Y-129643285D02*
X164586533Y-129738523D01*
X107185619Y-46674066D02*
X107185619Y-47150256D01*
X107185619Y-47150256D02*
X106185619Y-47150256D01*
X106185619Y-46435970D02*
X106185619Y-45769304D01*
X106185619Y-45769304D02*
X107185619Y-46197875D01*
X174839333Y-136217819D02*
X174363143Y-136217819D01*
X174363143Y-136217819D02*
X174363143Y-135217819D01*
X175648857Y-135217819D02*
X175172667Y-135217819D01*
X175172667Y-135217819D02*
X175125048Y-135694009D01*
X175125048Y-135694009D02*
X175172667Y-135646390D01*
X175172667Y-135646390D02*
X175267905Y-135598771D01*
X175267905Y-135598771D02*
X175506000Y-135598771D01*
X175506000Y-135598771D02*
X175601238Y-135646390D01*
X175601238Y-135646390D02*
X175648857Y-135694009D01*
X175648857Y-135694009D02*
X175696476Y-135789247D01*
X175696476Y-135789247D02*
X175696476Y-136027342D01*
X175696476Y-136027342D02*
X175648857Y-136122580D01*
X175648857Y-136122580D02*
X175601238Y-136170200D01*
X175601238Y-136170200D02*
X175506000Y-136217819D01*
X175506000Y-136217819D02*
X175267905Y-136217819D01*
X175267905Y-136217819D02*
X175172667Y-136170200D01*
X175172667Y-136170200D02*
X175125048Y-136122580D01*
X154886819Y-135040666D02*
X154886819Y-135516856D01*
X154886819Y-135516856D02*
X153886819Y-135516856D01*
X154886819Y-134183523D02*
X154886819Y-134754951D01*
X154886819Y-134469237D02*
X153886819Y-134469237D01*
X153886819Y-134469237D02*
X154029676Y-134564475D01*
X154029676Y-134564475D02*
X154124914Y-134659713D01*
X154124914Y-134659713D02*
X154172533Y-134754951D01*
X136368558Y-94360237D02*
X136320939Y-94455475D01*
X136320939Y-94455475D02*
X136225701Y-94550713D01*
X136225701Y-94550713D02*
X136082843Y-94693570D01*
X136082843Y-94693570D02*
X136035224Y-94788808D01*
X136035224Y-94788808D02*
X136035224Y-94884046D01*
X136273320Y-94836427D02*
X136225701Y-94931665D01*
X136225701Y-94931665D02*
X136130462Y-95026903D01*
X136130462Y-95026903D02*
X135939986Y-95074522D01*
X135939986Y-95074522D02*
X135606653Y-95074522D01*
X135606653Y-95074522D02*
X135416177Y-95026903D01*
X135416177Y-95026903D02*
X135320939Y-94931665D01*
X135320939Y-94931665D02*
X135273320Y-94836427D01*
X135273320Y-94836427D02*
X135273320Y-94645951D01*
X135273320Y-94645951D02*
X135320939Y-94550713D01*
X135320939Y-94550713D02*
X135416177Y-94455475D01*
X135416177Y-94455475D02*
X135606653Y-94407856D01*
X135606653Y-94407856D02*
X135939986Y-94407856D01*
X135939986Y-94407856D02*
X136130462Y-94455475D01*
X136130462Y-94455475D02*
X136225701Y-94550713D01*
X136225701Y-94550713D02*
X136273320Y-94645951D01*
X136273320Y-94645951D02*
X136273320Y-94836427D01*
X135606653Y-93550713D02*
X136273320Y-93550713D01*
X135225701Y-93788808D02*
X135939986Y-94026903D01*
X135939986Y-94026903D02*
X135939986Y-93407856D01*
X152011142Y-38681819D02*
X151677809Y-38205628D01*
X151439714Y-38681819D02*
X151439714Y-37681819D01*
X151439714Y-37681819D02*
X151820666Y-37681819D01*
X151820666Y-37681819D02*
X151915904Y-37729438D01*
X151915904Y-37729438D02*
X151963523Y-37777057D01*
X151963523Y-37777057D02*
X152011142Y-37872295D01*
X152011142Y-37872295D02*
X152011142Y-38015152D01*
X152011142Y-38015152D02*
X151963523Y-38110390D01*
X151963523Y-38110390D02*
X151915904Y-38158009D01*
X151915904Y-38158009D02*
X151820666Y-38205628D01*
X151820666Y-38205628D02*
X151439714Y-38205628D01*
X152963523Y-38681819D02*
X152392095Y-38681819D01*
X152677809Y-38681819D02*
X152677809Y-37681819D01*
X152677809Y-37681819D02*
X152582571Y-37824676D01*
X152582571Y-37824676D02*
X152487333Y-37919914D01*
X152487333Y-37919914D02*
X152392095Y-37967533D01*
X153915904Y-38681819D02*
X153344476Y-38681819D01*
X153630190Y-38681819D02*
X153630190Y-37681819D01*
X153630190Y-37681819D02*
X153534952Y-37824676D01*
X153534952Y-37824676D02*
X153439714Y-37919914D01*
X153439714Y-37919914D02*
X153344476Y-37967533D01*
X146848533Y-71778019D02*
X146372343Y-71778019D01*
X146372343Y-71778019D02*
X146372343Y-70778019D01*
X147324724Y-71206590D02*
X147229486Y-71158971D01*
X147229486Y-71158971D02*
X147181867Y-71111352D01*
X147181867Y-71111352D02*
X147134248Y-71016114D01*
X147134248Y-71016114D02*
X147134248Y-70968495D01*
X147134248Y-70968495D02*
X147181867Y-70873257D01*
X147181867Y-70873257D02*
X147229486Y-70825638D01*
X147229486Y-70825638D02*
X147324724Y-70778019D01*
X147324724Y-70778019D02*
X147515200Y-70778019D01*
X147515200Y-70778019D02*
X147610438Y-70825638D01*
X147610438Y-70825638D02*
X147658057Y-70873257D01*
X147658057Y-70873257D02*
X147705676Y-70968495D01*
X147705676Y-70968495D02*
X147705676Y-71016114D01*
X147705676Y-71016114D02*
X147658057Y-71111352D01*
X147658057Y-71111352D02*
X147610438Y-71158971D01*
X147610438Y-71158971D02*
X147515200Y-71206590D01*
X147515200Y-71206590D02*
X147324724Y-71206590D01*
X147324724Y-71206590D02*
X147229486Y-71254209D01*
X147229486Y-71254209D02*
X147181867Y-71301828D01*
X147181867Y-71301828D02*
X147134248Y-71397066D01*
X147134248Y-71397066D02*
X147134248Y-71587542D01*
X147134248Y-71587542D02*
X147181867Y-71682780D01*
X147181867Y-71682780D02*
X147229486Y-71730400D01*
X147229486Y-71730400D02*
X147324724Y-71778019D01*
X147324724Y-71778019D02*
X147515200Y-71778019D01*
X147515200Y-71778019D02*
X147610438Y-71730400D01*
X147610438Y-71730400D02*
X147658057Y-71682780D01*
X147658057Y-71682780D02*
X147705676Y-71587542D01*
X147705676Y-71587542D02*
X147705676Y-71397066D01*
X147705676Y-71397066D02*
X147658057Y-71301828D01*
X147658057Y-71301828D02*
X147610438Y-71254209D01*
X147610438Y-71254209D02*
X147515200Y-71206590D01*
D11*
X117158276Y-42838212D02*
X117158276Y-42025412D01*
X117158276Y-42025412D02*
X117351800Y-42025412D01*
X117351800Y-42025412D02*
X117467914Y-42064117D01*
X117467914Y-42064117D02*
X117545324Y-42141527D01*
X117545324Y-42141527D02*
X117584029Y-42218936D01*
X117584029Y-42218936D02*
X117622733Y-42373755D01*
X117622733Y-42373755D02*
X117622733Y-42489869D01*
X117622733Y-42489869D02*
X117584029Y-42644688D01*
X117584029Y-42644688D02*
X117545324Y-42722098D01*
X117545324Y-42722098D02*
X117467914Y-42799508D01*
X117467914Y-42799508D02*
X117351800Y-42838212D01*
X117351800Y-42838212D02*
X117158276Y-42838212D01*
X117932372Y-42102822D02*
X117971076Y-42064117D01*
X117971076Y-42064117D02*
X118048486Y-42025412D01*
X118048486Y-42025412D02*
X118242010Y-42025412D01*
X118242010Y-42025412D02*
X118319419Y-42064117D01*
X118319419Y-42064117D02*
X118358124Y-42102822D01*
X118358124Y-42102822D02*
X118396829Y-42180231D01*
X118396829Y-42180231D02*
X118396829Y-42257641D01*
X118396829Y-42257641D02*
X118358124Y-42373755D01*
X118358124Y-42373755D02*
X117893667Y-42838212D01*
X117893667Y-42838212D02*
X118396829Y-42838212D01*
D10*
X134772143Y-144219819D02*
X134438810Y-143743628D01*
X134200715Y-144219819D02*
X134200715Y-143219819D01*
X134200715Y-143219819D02*
X134581667Y-143219819D01*
X134581667Y-143219819D02*
X134676905Y-143267438D01*
X134676905Y-143267438D02*
X134724524Y-143315057D01*
X134724524Y-143315057D02*
X134772143Y-143410295D01*
X134772143Y-143410295D02*
X134772143Y-143553152D01*
X134772143Y-143553152D02*
X134724524Y-143648390D01*
X134724524Y-143648390D02*
X134676905Y-143696009D01*
X134676905Y-143696009D02*
X134581667Y-143743628D01*
X134581667Y-143743628D02*
X134200715Y-143743628D01*
X135153096Y-143315057D02*
X135200715Y-143267438D01*
X135200715Y-143267438D02*
X135295953Y-143219819D01*
X135295953Y-143219819D02*
X135534048Y-143219819D01*
X135534048Y-143219819D02*
X135629286Y-143267438D01*
X135629286Y-143267438D02*
X135676905Y-143315057D01*
X135676905Y-143315057D02*
X135724524Y-143410295D01*
X135724524Y-143410295D02*
X135724524Y-143505533D01*
X135724524Y-143505533D02*
X135676905Y-143648390D01*
X135676905Y-143648390D02*
X135105477Y-144219819D01*
X135105477Y-144219819D02*
X135724524Y-144219819D01*
X136057858Y-143219819D02*
X136724524Y-143219819D01*
X136724524Y-143219819D02*
X136295953Y-144219819D01*
X150314819Y-38361857D02*
X149838628Y-38695190D01*
X150314819Y-38933285D02*
X149314819Y-38933285D01*
X149314819Y-38933285D02*
X149314819Y-38552333D01*
X149314819Y-38552333D02*
X149362438Y-38457095D01*
X149362438Y-38457095D02*
X149410057Y-38409476D01*
X149410057Y-38409476D02*
X149505295Y-38361857D01*
X149505295Y-38361857D02*
X149648152Y-38361857D01*
X149648152Y-38361857D02*
X149743390Y-38409476D01*
X149743390Y-38409476D02*
X149791009Y-38457095D01*
X149791009Y-38457095D02*
X149838628Y-38552333D01*
X149838628Y-38552333D02*
X149838628Y-38933285D01*
X150314819Y-37409476D02*
X150314819Y-37980904D01*
X150314819Y-37695190D02*
X149314819Y-37695190D01*
X149314819Y-37695190D02*
X149457676Y-37790428D01*
X149457676Y-37790428D02*
X149552914Y-37885666D01*
X149552914Y-37885666D02*
X149600533Y-37980904D01*
X149314819Y-36504714D02*
X149314819Y-36980904D01*
X149314819Y-36980904D02*
X149791009Y-37028523D01*
X149791009Y-37028523D02*
X149743390Y-36980904D01*
X149743390Y-36980904D02*
X149695771Y-36885666D01*
X149695771Y-36885666D02*
X149695771Y-36647571D01*
X149695771Y-36647571D02*
X149743390Y-36552333D01*
X149743390Y-36552333D02*
X149791009Y-36504714D01*
X149791009Y-36504714D02*
X149886247Y-36457095D01*
X149886247Y-36457095D02*
X150124342Y-36457095D01*
X150124342Y-36457095D02*
X150219580Y-36504714D01*
X150219580Y-36504714D02*
X150267200Y-36552333D01*
X150267200Y-36552333D02*
X150314819Y-36647571D01*
X150314819Y-36647571D02*
X150314819Y-36885666D01*
X150314819Y-36885666D02*
X150267200Y-36980904D01*
X150267200Y-36980904D02*
X150219580Y-37028523D01*
X166255867Y-105410800D02*
X166398724Y-105458419D01*
X166398724Y-105458419D02*
X166636819Y-105458419D01*
X166636819Y-105458419D02*
X166732057Y-105410800D01*
X166732057Y-105410800D02*
X166779676Y-105363180D01*
X166779676Y-105363180D02*
X166827295Y-105267942D01*
X166827295Y-105267942D02*
X166827295Y-105172704D01*
X166827295Y-105172704D02*
X166779676Y-105077466D01*
X166779676Y-105077466D02*
X166732057Y-105029847D01*
X166732057Y-105029847D02*
X166636819Y-104982228D01*
X166636819Y-104982228D02*
X166446343Y-104934609D01*
X166446343Y-104934609D02*
X166351105Y-104886990D01*
X166351105Y-104886990D02*
X166303486Y-104839371D01*
X166303486Y-104839371D02*
X166255867Y-104744133D01*
X166255867Y-104744133D02*
X166255867Y-104648895D01*
X166255867Y-104648895D02*
X166303486Y-104553657D01*
X166303486Y-104553657D02*
X166351105Y-104506038D01*
X166351105Y-104506038D02*
X166446343Y-104458419D01*
X166446343Y-104458419D02*
X166684438Y-104458419D01*
X166684438Y-104458419D02*
X166827295Y-104506038D01*
X167160629Y-104458419D02*
X167398724Y-105458419D01*
X167398724Y-105458419D02*
X167589200Y-104744133D01*
X167589200Y-104744133D02*
X167779676Y-105458419D01*
X167779676Y-105458419D02*
X168017772Y-104458419D01*
X168351105Y-104553657D02*
X168398724Y-104506038D01*
X168398724Y-104506038D02*
X168493962Y-104458419D01*
X168493962Y-104458419D02*
X168732057Y-104458419D01*
X168732057Y-104458419D02*
X168827295Y-104506038D01*
X168827295Y-104506038D02*
X168874914Y-104553657D01*
X168874914Y-104553657D02*
X168922533Y-104648895D01*
X168922533Y-104648895D02*
X168922533Y-104744133D01*
X168922533Y-104744133D02*
X168874914Y-104886990D01*
X168874914Y-104886990D02*
X168303486Y-105458419D01*
X168303486Y-105458419D02*
X168922533Y-105458419D01*
X157440333Y-131169580D02*
X157392714Y-131217200D01*
X157392714Y-131217200D02*
X157249857Y-131264819D01*
X157249857Y-131264819D02*
X157154619Y-131264819D01*
X157154619Y-131264819D02*
X157011762Y-131217200D01*
X157011762Y-131217200D02*
X156916524Y-131121961D01*
X156916524Y-131121961D02*
X156868905Y-131026723D01*
X156868905Y-131026723D02*
X156821286Y-130836247D01*
X156821286Y-130836247D02*
X156821286Y-130693390D01*
X156821286Y-130693390D02*
X156868905Y-130502914D01*
X156868905Y-130502914D02*
X156916524Y-130407676D01*
X156916524Y-130407676D02*
X157011762Y-130312438D01*
X157011762Y-130312438D02*
X157154619Y-130264819D01*
X157154619Y-130264819D02*
X157249857Y-130264819D01*
X157249857Y-130264819D02*
X157392714Y-130312438D01*
X157392714Y-130312438D02*
X157440333Y-130360057D01*
X157773667Y-130264819D02*
X158440333Y-130264819D01*
X158440333Y-130264819D02*
X158011762Y-131264819D01*
X169418095Y-39205819D02*
X169418095Y-40015342D01*
X169418095Y-40015342D02*
X169465714Y-40110580D01*
X169465714Y-40110580D02*
X169513333Y-40158200D01*
X169513333Y-40158200D02*
X169608571Y-40205819D01*
X169608571Y-40205819D02*
X169799047Y-40205819D01*
X169799047Y-40205819D02*
X169894285Y-40158200D01*
X169894285Y-40158200D02*
X169941904Y-40110580D01*
X169941904Y-40110580D02*
X169989523Y-40015342D01*
X169989523Y-40015342D02*
X169989523Y-39205819D01*
X170418095Y-39301057D02*
X170465714Y-39253438D01*
X170465714Y-39253438D02*
X170560952Y-39205819D01*
X170560952Y-39205819D02*
X170799047Y-39205819D01*
X170799047Y-39205819D02*
X170894285Y-39253438D01*
X170894285Y-39253438D02*
X170941904Y-39301057D01*
X170941904Y-39301057D02*
X170989523Y-39396295D01*
X170989523Y-39396295D02*
X170989523Y-39491533D01*
X170989523Y-39491533D02*
X170941904Y-39634390D01*
X170941904Y-39634390D02*
X170370476Y-40205819D01*
X170370476Y-40205819D02*
X170989523Y-40205819D01*
X90984666Y-37957066D02*
X91984666Y-37957066D01*
X91984666Y-37957066D02*
X92184666Y-38023733D01*
X92184666Y-38023733D02*
X92318000Y-38157066D01*
X92318000Y-38157066D02*
X92384666Y-38357066D01*
X92384666Y-38357066D02*
X92384666Y-38490400D01*
X90984666Y-36690399D02*
X90984666Y-36957066D01*
X90984666Y-36957066D02*
X91051333Y-37090399D01*
X91051333Y-37090399D02*
X91118000Y-37157066D01*
X91118000Y-37157066D02*
X91318000Y-37290399D01*
X91318000Y-37290399D02*
X91584666Y-37357066D01*
X91584666Y-37357066D02*
X92118000Y-37357066D01*
X92118000Y-37357066D02*
X92251333Y-37290399D01*
X92251333Y-37290399D02*
X92318000Y-37223733D01*
X92318000Y-37223733D02*
X92384666Y-37090399D01*
X92384666Y-37090399D02*
X92384666Y-36823733D01*
X92384666Y-36823733D02*
X92318000Y-36690399D01*
X92318000Y-36690399D02*
X92251333Y-36623733D01*
X92251333Y-36623733D02*
X92118000Y-36557066D01*
X92118000Y-36557066D02*
X91784666Y-36557066D01*
X91784666Y-36557066D02*
X91651333Y-36623733D01*
X91651333Y-36623733D02*
X91584666Y-36690399D01*
X91584666Y-36690399D02*
X91518000Y-36823733D01*
X91518000Y-36823733D02*
X91518000Y-37090399D01*
X91518000Y-37090399D02*
X91584666Y-37223733D01*
X91584666Y-37223733D02*
X91651333Y-37290399D01*
X91651333Y-37290399D02*
X91784666Y-37357066D01*
X110987680Y-110048504D02*
X111987680Y-110048504D01*
X110987680Y-110619932D02*
X111559109Y-110191361D01*
X111987680Y-110619932D02*
X111416252Y-110048504D01*
X111987680Y-110953266D02*
X111987680Y-111572313D01*
X111987680Y-111572313D02*
X111606728Y-111238980D01*
X111606728Y-111238980D02*
X111606728Y-111381837D01*
X111606728Y-111381837D02*
X111559109Y-111477075D01*
X111559109Y-111477075D02*
X111511490Y-111524694D01*
X111511490Y-111524694D02*
X111416252Y-111572313D01*
X111416252Y-111572313D02*
X111178157Y-111572313D01*
X111178157Y-111572313D02*
X111082919Y-111524694D01*
X111082919Y-111524694D02*
X111035300Y-111477075D01*
X111035300Y-111477075D02*
X110987680Y-111381837D01*
X110987680Y-111381837D02*
X110987680Y-111096123D01*
X110987680Y-111096123D02*
X111035300Y-111000885D01*
X111035300Y-111000885D02*
X111082919Y-110953266D01*
X151249142Y-43413819D02*
X150915809Y-42937628D01*
X150677714Y-43413819D02*
X150677714Y-42413819D01*
X150677714Y-42413819D02*
X151058666Y-42413819D01*
X151058666Y-42413819D02*
X151153904Y-42461438D01*
X151153904Y-42461438D02*
X151201523Y-42509057D01*
X151201523Y-42509057D02*
X151249142Y-42604295D01*
X151249142Y-42604295D02*
X151249142Y-42747152D01*
X151249142Y-42747152D02*
X151201523Y-42842390D01*
X151201523Y-42842390D02*
X151153904Y-42890009D01*
X151153904Y-42890009D02*
X151058666Y-42937628D01*
X151058666Y-42937628D02*
X150677714Y-42937628D01*
X151630095Y-42509057D02*
X151677714Y-42461438D01*
X151677714Y-42461438D02*
X151772952Y-42413819D01*
X151772952Y-42413819D02*
X152011047Y-42413819D01*
X152011047Y-42413819D02*
X152106285Y-42461438D01*
X152106285Y-42461438D02*
X152153904Y-42509057D01*
X152153904Y-42509057D02*
X152201523Y-42604295D01*
X152201523Y-42604295D02*
X152201523Y-42699533D01*
X152201523Y-42699533D02*
X152153904Y-42842390D01*
X152153904Y-42842390D02*
X151582476Y-43413819D01*
X151582476Y-43413819D02*
X152201523Y-43413819D01*
X152820571Y-42413819D02*
X152915809Y-42413819D01*
X152915809Y-42413819D02*
X153011047Y-42461438D01*
X153011047Y-42461438D02*
X153058666Y-42509057D01*
X153058666Y-42509057D02*
X153106285Y-42604295D01*
X153106285Y-42604295D02*
X153153904Y-42794771D01*
X153153904Y-42794771D02*
X153153904Y-43032866D01*
X153153904Y-43032866D02*
X153106285Y-43223342D01*
X153106285Y-43223342D02*
X153058666Y-43318580D01*
X153058666Y-43318580D02*
X153011047Y-43366200D01*
X153011047Y-43366200D02*
X152915809Y-43413819D01*
X152915809Y-43413819D02*
X152820571Y-43413819D01*
X152820571Y-43413819D02*
X152725333Y-43366200D01*
X152725333Y-43366200D02*
X152677714Y-43318580D01*
X152677714Y-43318580D02*
X152630095Y-43223342D01*
X152630095Y-43223342D02*
X152582476Y-43032866D01*
X152582476Y-43032866D02*
X152582476Y-42794771D01*
X152582476Y-42794771D02*
X152630095Y-42604295D01*
X152630095Y-42604295D02*
X152677714Y-42509057D01*
X152677714Y-42509057D02*
X152725333Y-42461438D01*
X152725333Y-42461438D02*
X152820571Y-42413819D01*
X174992819Y-111077333D02*
X175707104Y-111077333D01*
X175707104Y-111077333D02*
X175849961Y-111124952D01*
X175849961Y-111124952D02*
X175945200Y-111220190D01*
X175945200Y-111220190D02*
X175992819Y-111363047D01*
X175992819Y-111363047D02*
X175992819Y-111458285D01*
X175992819Y-110077333D02*
X175992819Y-110648761D01*
X175992819Y-110363047D02*
X174992819Y-110363047D01*
X174992819Y-110363047D02*
X175135676Y-110458285D01*
X175135676Y-110458285D02*
X175230914Y-110553523D01*
X175230914Y-110553523D02*
X175278533Y-110648761D01*
X130913320Y-148851093D02*
X129913320Y-148851093D01*
X129913320Y-148851093D02*
X129913320Y-148612998D01*
X129913320Y-148612998D02*
X129960939Y-148470141D01*
X129960939Y-148470141D02*
X130056177Y-148374903D01*
X130056177Y-148374903D02*
X130151415Y-148327284D01*
X130151415Y-148327284D02*
X130341891Y-148279665D01*
X130341891Y-148279665D02*
X130484748Y-148279665D01*
X130484748Y-148279665D02*
X130675224Y-148327284D01*
X130675224Y-148327284D02*
X130770462Y-148374903D01*
X130770462Y-148374903D02*
X130865701Y-148470141D01*
X130865701Y-148470141D02*
X130913320Y-148612998D01*
X130913320Y-148612998D02*
X130913320Y-148851093D01*
X130341891Y-147708236D02*
X130294272Y-147803474D01*
X130294272Y-147803474D02*
X130246653Y-147851093D01*
X130246653Y-147851093D02*
X130151415Y-147898712D01*
X130151415Y-147898712D02*
X130103796Y-147898712D01*
X130103796Y-147898712D02*
X130008558Y-147851093D01*
X130008558Y-147851093D02*
X129960939Y-147803474D01*
X129960939Y-147803474D02*
X129913320Y-147708236D01*
X129913320Y-147708236D02*
X129913320Y-147517760D01*
X129913320Y-147517760D02*
X129960939Y-147422522D01*
X129960939Y-147422522D02*
X130008558Y-147374903D01*
X130008558Y-147374903D02*
X130103796Y-147327284D01*
X130103796Y-147327284D02*
X130151415Y-147327284D01*
X130151415Y-147327284D02*
X130246653Y-147374903D01*
X130246653Y-147374903D02*
X130294272Y-147422522D01*
X130294272Y-147422522D02*
X130341891Y-147517760D01*
X130341891Y-147517760D02*
X130341891Y-147708236D01*
X130341891Y-147708236D02*
X130389510Y-147803474D01*
X130389510Y-147803474D02*
X130437129Y-147851093D01*
X130437129Y-147851093D02*
X130532367Y-147898712D01*
X130532367Y-147898712D02*
X130722843Y-147898712D01*
X130722843Y-147898712D02*
X130818081Y-147851093D01*
X130818081Y-147851093D02*
X130865701Y-147803474D01*
X130865701Y-147803474D02*
X130913320Y-147708236D01*
X130913320Y-147708236D02*
X130913320Y-147517760D01*
X130913320Y-147517760D02*
X130865701Y-147422522D01*
X130865701Y-147422522D02*
X130818081Y-147374903D01*
X130818081Y-147374903D02*
X130722843Y-147327284D01*
X130722843Y-147327284D02*
X130532367Y-147327284D01*
X130532367Y-147327284D02*
X130437129Y-147374903D01*
X130437129Y-147374903D02*
X130389510Y-147422522D01*
X130389510Y-147422522D02*
X130341891Y-147517760D01*
X130593320Y-144564903D02*
X129593320Y-144564903D01*
X130593320Y-143993475D02*
X130021891Y-144422046D01*
X129593320Y-143993475D02*
X130164748Y-144564903D01*
X86143180Y-91287865D02*
X85428895Y-91287865D01*
X85428895Y-91287865D02*
X85286038Y-91240246D01*
X85286038Y-91240246D02*
X85190800Y-91145008D01*
X85190800Y-91145008D02*
X85143180Y-91002151D01*
X85143180Y-91002151D02*
X85143180Y-90906913D01*
X85714609Y-91906913D02*
X85762228Y-91811675D01*
X85762228Y-91811675D02*
X85809847Y-91764056D01*
X85809847Y-91764056D02*
X85905085Y-91716437D01*
X85905085Y-91716437D02*
X85952704Y-91716437D01*
X85952704Y-91716437D02*
X86047942Y-91764056D01*
X86047942Y-91764056D02*
X86095561Y-91811675D01*
X86095561Y-91811675D02*
X86143180Y-91906913D01*
X86143180Y-91906913D02*
X86143180Y-92097389D01*
X86143180Y-92097389D02*
X86095561Y-92192627D01*
X86095561Y-92192627D02*
X86047942Y-92240246D01*
X86047942Y-92240246D02*
X85952704Y-92287865D01*
X85952704Y-92287865D02*
X85905085Y-92287865D01*
X85905085Y-92287865D02*
X85809847Y-92240246D01*
X85809847Y-92240246D02*
X85762228Y-92192627D01*
X85762228Y-92192627D02*
X85714609Y-92097389D01*
X85714609Y-92097389D02*
X85714609Y-91906913D01*
X85714609Y-91906913D02*
X85666990Y-91811675D01*
X85666990Y-91811675D02*
X85619371Y-91764056D01*
X85619371Y-91764056D02*
X85524133Y-91716437D01*
X85524133Y-91716437D02*
X85333657Y-91716437D01*
X85333657Y-91716437D02*
X85238419Y-91764056D01*
X85238419Y-91764056D02*
X85190800Y-91811675D01*
X85190800Y-91811675D02*
X85143180Y-91906913D01*
X85143180Y-91906913D02*
X85143180Y-92097389D01*
X85143180Y-92097389D02*
X85190800Y-92192627D01*
X85190800Y-92192627D02*
X85238419Y-92240246D01*
X85238419Y-92240246D02*
X85333657Y-92287865D01*
X85333657Y-92287865D02*
X85524133Y-92287865D01*
X85524133Y-92287865D02*
X85619371Y-92240246D01*
X85619371Y-92240246D02*
X85666990Y-92192627D01*
X85666990Y-92192627D02*
X85714609Y-92097389D01*
X130913320Y-94495093D02*
X129913320Y-94495093D01*
X129913320Y-94495093D02*
X129913320Y-94256998D01*
X129913320Y-94256998D02*
X129960939Y-94114141D01*
X129960939Y-94114141D02*
X130056177Y-94018903D01*
X130056177Y-94018903D02*
X130151415Y-93971284D01*
X130151415Y-93971284D02*
X130341891Y-93923665D01*
X130341891Y-93923665D02*
X130484748Y-93923665D01*
X130484748Y-93923665D02*
X130675224Y-93971284D01*
X130675224Y-93971284D02*
X130770462Y-94018903D01*
X130770462Y-94018903D02*
X130865701Y-94114141D01*
X130865701Y-94114141D02*
X130913320Y-94256998D01*
X130913320Y-94256998D02*
X130913320Y-94495093D01*
X129913320Y-93018903D02*
X129913320Y-93495093D01*
X129913320Y-93495093D02*
X130389510Y-93542712D01*
X130389510Y-93542712D02*
X130341891Y-93495093D01*
X130341891Y-93495093D02*
X130294272Y-93399855D01*
X130294272Y-93399855D02*
X130294272Y-93161760D01*
X130294272Y-93161760D02*
X130341891Y-93066522D01*
X130341891Y-93066522D02*
X130389510Y-93018903D01*
X130389510Y-93018903D02*
X130484748Y-92971284D01*
X130484748Y-92971284D02*
X130722843Y-92971284D01*
X130722843Y-92971284D02*
X130818081Y-93018903D01*
X130818081Y-93018903D02*
X130865701Y-93066522D01*
X130865701Y-93066522D02*
X130913320Y-93161760D01*
X130913320Y-93161760D02*
X130913320Y-93399855D01*
X130913320Y-93399855D02*
X130865701Y-93495093D01*
X130865701Y-93495093D02*
X130818081Y-93542712D01*
X130593320Y-90208903D02*
X129593320Y-90208903D01*
X130593320Y-89637475D02*
X130021891Y-90066046D01*
X129593320Y-89637475D02*
X130164748Y-90208903D01*
X188428333Y-81734819D02*
X188095000Y-81258628D01*
X187856905Y-81734819D02*
X187856905Y-80734819D01*
X187856905Y-80734819D02*
X188237857Y-80734819D01*
X188237857Y-80734819D02*
X188333095Y-80782438D01*
X188333095Y-80782438D02*
X188380714Y-80830057D01*
X188380714Y-80830057D02*
X188428333Y-80925295D01*
X188428333Y-80925295D02*
X188428333Y-81068152D01*
X188428333Y-81068152D02*
X188380714Y-81163390D01*
X188380714Y-81163390D02*
X188333095Y-81211009D01*
X188333095Y-81211009D02*
X188237857Y-81258628D01*
X188237857Y-81258628D02*
X187856905Y-81258628D01*
X189380714Y-81734819D02*
X188809286Y-81734819D01*
X189095000Y-81734819D02*
X189095000Y-80734819D01*
X189095000Y-80734819D02*
X188999762Y-80877676D01*
X188999762Y-80877676D02*
X188904524Y-80972914D01*
X188904524Y-80972914D02*
X188809286Y-81020533D01*
X187324200Y-76085867D02*
X187276580Y-76228724D01*
X187276580Y-76228724D02*
X187276580Y-76466819D01*
X187276580Y-76466819D02*
X187324200Y-76562057D01*
X187324200Y-76562057D02*
X187371819Y-76609676D01*
X187371819Y-76609676D02*
X187467057Y-76657295D01*
X187467057Y-76657295D02*
X187562295Y-76657295D01*
X187562295Y-76657295D02*
X187657533Y-76609676D01*
X187657533Y-76609676D02*
X187705152Y-76562057D01*
X187705152Y-76562057D02*
X187752771Y-76466819D01*
X187752771Y-76466819D02*
X187800390Y-76276343D01*
X187800390Y-76276343D02*
X187848009Y-76181105D01*
X187848009Y-76181105D02*
X187895628Y-76133486D01*
X187895628Y-76133486D02*
X187990866Y-76085867D01*
X187990866Y-76085867D02*
X188086104Y-76085867D01*
X188086104Y-76085867D02*
X188181342Y-76133486D01*
X188181342Y-76133486D02*
X188228961Y-76181105D01*
X188228961Y-76181105D02*
X188276580Y-76276343D01*
X188276580Y-76276343D02*
X188276580Y-76514438D01*
X188276580Y-76514438D02*
X188228961Y-76657295D01*
X188276580Y-76990629D02*
X187276580Y-77228724D01*
X187276580Y-77228724D02*
X187990866Y-77419200D01*
X187990866Y-77419200D02*
X187276580Y-77609676D01*
X187276580Y-77609676D02*
X188276580Y-77847772D01*
X187276580Y-78752533D02*
X187276580Y-78181105D01*
X187276580Y-78466819D02*
X188276580Y-78466819D01*
X188276580Y-78466819D02*
X188133723Y-78371581D01*
X188133723Y-78371581D02*
X188038485Y-78276343D01*
X188038485Y-78276343D02*
X187990866Y-78181105D01*
X161857542Y-40392361D02*
X161905161Y-40297123D01*
X161905161Y-40297123D02*
X162000400Y-40201885D01*
X162000400Y-40201885D02*
X162143257Y-40059028D01*
X162143257Y-40059028D02*
X162190876Y-39963790D01*
X162190876Y-39963790D02*
X162190876Y-39868552D01*
X161952780Y-39916171D02*
X162000400Y-39820933D01*
X162000400Y-39820933D02*
X162095638Y-39725695D01*
X162095638Y-39725695D02*
X162286114Y-39678076D01*
X162286114Y-39678076D02*
X162619447Y-39678076D01*
X162619447Y-39678076D02*
X162809923Y-39725695D01*
X162809923Y-39725695D02*
X162905161Y-39820933D01*
X162905161Y-39820933D02*
X162952780Y-39916171D01*
X162952780Y-39916171D02*
X162952780Y-40106647D01*
X162952780Y-40106647D02*
X162905161Y-40201885D01*
X162905161Y-40201885D02*
X162809923Y-40297123D01*
X162809923Y-40297123D02*
X162619447Y-40344742D01*
X162619447Y-40344742D02*
X162286114Y-40344742D01*
X162286114Y-40344742D02*
X162095638Y-40297123D01*
X162095638Y-40297123D02*
X162000400Y-40201885D01*
X162000400Y-40201885D02*
X161952780Y-40106647D01*
X161952780Y-40106647D02*
X161952780Y-39916171D01*
X162857542Y-40725695D02*
X162905161Y-40773314D01*
X162905161Y-40773314D02*
X162952780Y-40868552D01*
X162952780Y-40868552D02*
X162952780Y-41106647D01*
X162952780Y-41106647D02*
X162905161Y-41201885D01*
X162905161Y-41201885D02*
X162857542Y-41249504D01*
X162857542Y-41249504D02*
X162762304Y-41297123D01*
X162762304Y-41297123D02*
X162667066Y-41297123D01*
X162667066Y-41297123D02*
X162524209Y-41249504D01*
X162524209Y-41249504D02*
X161952780Y-40678076D01*
X161952780Y-40678076D02*
X161952780Y-41297123D01*
X176908619Y-129681266D02*
X176432428Y-130014599D01*
X176908619Y-130252694D02*
X175908619Y-130252694D01*
X175908619Y-130252694D02*
X175908619Y-129871742D01*
X175908619Y-129871742D02*
X175956238Y-129776504D01*
X175956238Y-129776504D02*
X176003857Y-129728885D01*
X176003857Y-129728885D02*
X176099095Y-129681266D01*
X176099095Y-129681266D02*
X176241952Y-129681266D01*
X176241952Y-129681266D02*
X176337190Y-129728885D01*
X176337190Y-129728885D02*
X176384809Y-129776504D01*
X176384809Y-129776504D02*
X176432428Y-129871742D01*
X176432428Y-129871742D02*
X176432428Y-130252694D01*
X176908619Y-129205075D02*
X176908619Y-129014599D01*
X176908619Y-129014599D02*
X176861000Y-128919361D01*
X176861000Y-128919361D02*
X176813380Y-128871742D01*
X176813380Y-128871742D02*
X176670523Y-128776504D01*
X176670523Y-128776504D02*
X176480047Y-128728885D01*
X176480047Y-128728885D02*
X176099095Y-128728885D01*
X176099095Y-128728885D02*
X176003857Y-128776504D01*
X176003857Y-128776504D02*
X175956238Y-128824123D01*
X175956238Y-128824123D02*
X175908619Y-128919361D01*
X175908619Y-128919361D02*
X175908619Y-129109837D01*
X175908619Y-129109837D02*
X175956238Y-129205075D01*
X175956238Y-129205075D02*
X176003857Y-129252694D01*
X176003857Y-129252694D02*
X176099095Y-129300313D01*
X176099095Y-129300313D02*
X176337190Y-129300313D01*
X176337190Y-129300313D02*
X176432428Y-129252694D01*
X176432428Y-129252694D02*
X176480047Y-129205075D01*
X176480047Y-129205075D02*
X176527666Y-129109837D01*
X176527666Y-129109837D02*
X176527666Y-128919361D01*
X176527666Y-128919361D02*
X176480047Y-128824123D01*
X176480047Y-128824123D02*
X176432428Y-128776504D01*
X176432428Y-128776504D02*
X176337190Y-128728885D01*
X157226095Y-139027819D02*
X157226095Y-139837342D01*
X157226095Y-139837342D02*
X157273714Y-139932580D01*
X157273714Y-139932580D02*
X157321333Y-139980200D01*
X157321333Y-139980200D02*
X157416571Y-140027819D01*
X157416571Y-140027819D02*
X157607047Y-140027819D01*
X157607047Y-140027819D02*
X157702285Y-139980200D01*
X157702285Y-139980200D02*
X157749904Y-139932580D01*
X157749904Y-139932580D02*
X157797523Y-139837342D01*
X157797523Y-139837342D02*
X157797523Y-139027819D01*
X158702285Y-139361152D02*
X158702285Y-140027819D01*
X158464190Y-138980200D02*
X158226095Y-139694485D01*
X158226095Y-139694485D02*
X158845142Y-139694485D01*
X130913320Y-74429093D02*
X129913320Y-74429093D01*
X129913320Y-74429093D02*
X129913320Y-74190998D01*
X129913320Y-74190998D02*
X129960939Y-74048141D01*
X129960939Y-74048141D02*
X130056177Y-73952903D01*
X130056177Y-73952903D02*
X130151415Y-73905284D01*
X130151415Y-73905284D02*
X130341891Y-73857665D01*
X130341891Y-73857665D02*
X130484748Y-73857665D01*
X130484748Y-73857665D02*
X130675224Y-73905284D01*
X130675224Y-73905284D02*
X130770462Y-73952903D01*
X130770462Y-73952903D02*
X130865701Y-74048141D01*
X130865701Y-74048141D02*
X130913320Y-74190998D01*
X130913320Y-74190998D02*
X130913320Y-74429093D01*
X130246653Y-73000522D02*
X130913320Y-73000522D01*
X129865701Y-73238617D02*
X130579986Y-73476712D01*
X130579986Y-73476712D02*
X130579986Y-72857665D01*
X130593320Y-70142903D02*
X129593320Y-70142903D01*
X130593320Y-69571475D02*
X130021891Y-70000046D01*
X129593320Y-69571475D02*
X130164748Y-70142903D01*
X130302095Y-43399819D02*
X130302095Y-44209342D01*
X130302095Y-44209342D02*
X130349714Y-44304580D01*
X130349714Y-44304580D02*
X130397333Y-44352200D01*
X130397333Y-44352200D02*
X130492571Y-44399819D01*
X130492571Y-44399819D02*
X130683047Y-44399819D01*
X130683047Y-44399819D02*
X130778285Y-44352200D01*
X130778285Y-44352200D02*
X130825904Y-44304580D01*
X130825904Y-44304580D02*
X130873523Y-44209342D01*
X130873523Y-44209342D02*
X130873523Y-43399819D01*
X131254476Y-43399819D02*
X131921142Y-43399819D01*
X131921142Y-43399819D02*
X131492571Y-44399819D01*
X166729580Y-131198857D02*
X166777200Y-131246476D01*
X166777200Y-131246476D02*
X166824819Y-131389333D01*
X166824819Y-131389333D02*
X166824819Y-131484571D01*
X166824819Y-131484571D02*
X166777200Y-131627428D01*
X166777200Y-131627428D02*
X166681961Y-131722666D01*
X166681961Y-131722666D02*
X166586723Y-131770285D01*
X166586723Y-131770285D02*
X166396247Y-131817904D01*
X166396247Y-131817904D02*
X166253390Y-131817904D01*
X166253390Y-131817904D02*
X166062914Y-131770285D01*
X166062914Y-131770285D02*
X165967676Y-131722666D01*
X165967676Y-131722666D02*
X165872438Y-131627428D01*
X165872438Y-131627428D02*
X165824819Y-131484571D01*
X165824819Y-131484571D02*
X165824819Y-131389333D01*
X165824819Y-131389333D02*
X165872438Y-131246476D01*
X165872438Y-131246476D02*
X165920057Y-131198857D01*
X166824819Y-130246476D02*
X166824819Y-130817904D01*
X166824819Y-130532190D02*
X165824819Y-130532190D01*
X165824819Y-130532190D02*
X165967676Y-130627428D01*
X165967676Y-130627428D02*
X166062914Y-130722666D01*
X166062914Y-130722666D02*
X166110533Y-130817904D01*
X165920057Y-129865523D02*
X165872438Y-129817904D01*
X165872438Y-129817904D02*
X165824819Y-129722666D01*
X165824819Y-129722666D02*
X165824819Y-129484571D01*
X165824819Y-129484571D02*
X165872438Y-129389333D01*
X165872438Y-129389333D02*
X165920057Y-129341714D01*
X165920057Y-129341714D02*
X166015295Y-129294095D01*
X166015295Y-129294095D02*
X166110533Y-129294095D01*
X166110533Y-129294095D02*
X166253390Y-129341714D01*
X166253390Y-129341714D02*
X166824819Y-129913142D01*
X166824819Y-129913142D02*
X166824819Y-129294095D01*
X136161980Y-61127857D02*
X136209600Y-61175476D01*
X136209600Y-61175476D02*
X136257219Y-61318333D01*
X136257219Y-61318333D02*
X136257219Y-61413571D01*
X136257219Y-61413571D02*
X136209600Y-61556428D01*
X136209600Y-61556428D02*
X136114361Y-61651666D01*
X136114361Y-61651666D02*
X136019123Y-61699285D01*
X136019123Y-61699285D02*
X135828647Y-61746904D01*
X135828647Y-61746904D02*
X135685790Y-61746904D01*
X135685790Y-61746904D02*
X135495314Y-61699285D01*
X135495314Y-61699285D02*
X135400076Y-61651666D01*
X135400076Y-61651666D02*
X135304838Y-61556428D01*
X135304838Y-61556428D02*
X135257219Y-61413571D01*
X135257219Y-61413571D02*
X135257219Y-61318333D01*
X135257219Y-61318333D02*
X135304838Y-61175476D01*
X135304838Y-61175476D02*
X135352457Y-61127857D01*
X135352457Y-60746904D02*
X135304838Y-60699285D01*
X135304838Y-60699285D02*
X135257219Y-60604047D01*
X135257219Y-60604047D02*
X135257219Y-60365952D01*
X135257219Y-60365952D02*
X135304838Y-60270714D01*
X135304838Y-60270714D02*
X135352457Y-60223095D01*
X135352457Y-60223095D02*
X135447695Y-60175476D01*
X135447695Y-60175476D02*
X135542933Y-60175476D01*
X135542933Y-60175476D02*
X135685790Y-60223095D01*
X135685790Y-60223095D02*
X136257219Y-60794523D01*
X136257219Y-60794523D02*
X136257219Y-60175476D01*
X136257219Y-59699285D02*
X136257219Y-59508809D01*
X136257219Y-59508809D02*
X136209600Y-59413571D01*
X136209600Y-59413571D02*
X136161980Y-59365952D01*
X136161980Y-59365952D02*
X136019123Y-59270714D01*
X136019123Y-59270714D02*
X135828647Y-59223095D01*
X135828647Y-59223095D02*
X135447695Y-59223095D01*
X135447695Y-59223095D02*
X135352457Y-59270714D01*
X135352457Y-59270714D02*
X135304838Y-59318333D01*
X135304838Y-59318333D02*
X135257219Y-59413571D01*
X135257219Y-59413571D02*
X135257219Y-59604047D01*
X135257219Y-59604047D02*
X135304838Y-59699285D01*
X135304838Y-59699285D02*
X135352457Y-59746904D01*
X135352457Y-59746904D02*
X135447695Y-59794523D01*
X135447695Y-59794523D02*
X135685790Y-59794523D01*
X135685790Y-59794523D02*
X135781028Y-59746904D01*
X135781028Y-59746904D02*
X135828647Y-59699285D01*
X135828647Y-59699285D02*
X135876266Y-59604047D01*
X135876266Y-59604047D02*
X135876266Y-59413571D01*
X135876266Y-59413571D02*
X135828647Y-59318333D01*
X135828647Y-59318333D02*
X135781028Y-59270714D01*
X135781028Y-59270714D02*
X135685790Y-59223095D01*
X156950580Y-138691857D02*
X156998200Y-138739476D01*
X156998200Y-138739476D02*
X157045819Y-138882333D01*
X157045819Y-138882333D02*
X157045819Y-138977571D01*
X157045819Y-138977571D02*
X156998200Y-139120428D01*
X156998200Y-139120428D02*
X156902961Y-139215666D01*
X156902961Y-139215666D02*
X156807723Y-139263285D01*
X156807723Y-139263285D02*
X156617247Y-139310904D01*
X156617247Y-139310904D02*
X156474390Y-139310904D01*
X156474390Y-139310904D02*
X156283914Y-139263285D01*
X156283914Y-139263285D02*
X156188676Y-139215666D01*
X156188676Y-139215666D02*
X156093438Y-139120428D01*
X156093438Y-139120428D02*
X156045819Y-138977571D01*
X156045819Y-138977571D02*
X156045819Y-138882333D01*
X156045819Y-138882333D02*
X156093438Y-138739476D01*
X156093438Y-138739476D02*
X156141057Y-138691857D01*
X157045819Y-137739476D02*
X157045819Y-138310904D01*
X157045819Y-138025190D02*
X156045819Y-138025190D01*
X156045819Y-138025190D02*
X156188676Y-138120428D01*
X156188676Y-138120428D02*
X156283914Y-138215666D01*
X156283914Y-138215666D02*
X156331533Y-138310904D01*
X156045819Y-137120428D02*
X156045819Y-137025190D01*
X156045819Y-137025190D02*
X156093438Y-136929952D01*
X156093438Y-136929952D02*
X156141057Y-136882333D01*
X156141057Y-136882333D02*
X156236295Y-136834714D01*
X156236295Y-136834714D02*
X156426771Y-136787095D01*
X156426771Y-136787095D02*
X156664866Y-136787095D01*
X156664866Y-136787095D02*
X156855342Y-136834714D01*
X156855342Y-136834714D02*
X156950580Y-136882333D01*
X156950580Y-136882333D02*
X156998200Y-136929952D01*
X156998200Y-136929952D02*
X157045819Y-137025190D01*
X157045819Y-137025190D02*
X157045819Y-137120428D01*
X157045819Y-137120428D02*
X156998200Y-137215666D01*
X156998200Y-137215666D02*
X156950580Y-137263285D01*
X156950580Y-137263285D02*
X156855342Y-137310904D01*
X156855342Y-137310904D02*
X156664866Y-137358523D01*
X156664866Y-137358523D02*
X156426771Y-137358523D01*
X156426771Y-137358523D02*
X156236295Y-137310904D01*
X156236295Y-137310904D02*
X156141057Y-137263285D01*
X156141057Y-137263285D02*
X156093438Y-137215666D01*
X156093438Y-137215666D02*
X156045819Y-137120428D01*
X181018206Y-134217580D02*
X180970587Y-134265200D01*
X180970587Y-134265200D02*
X180827730Y-134312819D01*
X180827730Y-134312819D02*
X180732492Y-134312819D01*
X180732492Y-134312819D02*
X180589635Y-134265200D01*
X180589635Y-134265200D02*
X180494397Y-134169961D01*
X180494397Y-134169961D02*
X180446778Y-134074723D01*
X180446778Y-134074723D02*
X180399159Y-133884247D01*
X180399159Y-133884247D02*
X180399159Y-133741390D01*
X180399159Y-133741390D02*
X180446778Y-133550914D01*
X180446778Y-133550914D02*
X180494397Y-133455676D01*
X180494397Y-133455676D02*
X180589635Y-133360438D01*
X180589635Y-133360438D02*
X180732492Y-133312819D01*
X180732492Y-133312819D02*
X180827730Y-133312819D01*
X180827730Y-133312819D02*
X180970587Y-133360438D01*
X180970587Y-133360438D02*
X181018206Y-133408057D01*
X181399159Y-133408057D02*
X181446778Y-133360438D01*
X181446778Y-133360438D02*
X181542016Y-133312819D01*
X181542016Y-133312819D02*
X181780111Y-133312819D01*
X181780111Y-133312819D02*
X181875349Y-133360438D01*
X181875349Y-133360438D02*
X181922968Y-133408057D01*
X181922968Y-133408057D02*
X181970587Y-133503295D01*
X181970587Y-133503295D02*
X181970587Y-133598533D01*
X181970587Y-133598533D02*
X181922968Y-133741390D01*
X181922968Y-133741390D02*
X181351540Y-134312819D01*
X181351540Y-134312819D02*
X181970587Y-134312819D01*
X182303921Y-133312819D02*
X182922968Y-133312819D01*
X182922968Y-133312819D02*
X182589635Y-133693771D01*
X182589635Y-133693771D02*
X182732492Y-133693771D01*
X182732492Y-133693771D02*
X182827730Y-133741390D01*
X182827730Y-133741390D02*
X182875349Y-133789009D01*
X182875349Y-133789009D02*
X182922968Y-133884247D01*
X182922968Y-133884247D02*
X182922968Y-134122342D01*
X182922968Y-134122342D02*
X182875349Y-134217580D01*
X182875349Y-134217580D02*
X182827730Y-134265200D01*
X182827730Y-134265200D02*
X182732492Y-134312819D01*
X182732492Y-134312819D02*
X182446778Y-134312819D01*
X182446778Y-134312819D02*
X182351540Y-134265200D01*
X182351540Y-134265200D02*
X182303921Y-134217580D01*
X182618142Y-137773580D02*
X182570523Y-137821200D01*
X182570523Y-137821200D02*
X182427666Y-137868819D01*
X182427666Y-137868819D02*
X182332428Y-137868819D01*
X182332428Y-137868819D02*
X182189571Y-137821200D01*
X182189571Y-137821200D02*
X182094333Y-137725961D01*
X182094333Y-137725961D02*
X182046714Y-137630723D01*
X182046714Y-137630723D02*
X181999095Y-137440247D01*
X181999095Y-137440247D02*
X181999095Y-137297390D01*
X181999095Y-137297390D02*
X182046714Y-137106914D01*
X182046714Y-137106914D02*
X182094333Y-137011676D01*
X182094333Y-137011676D02*
X182189571Y-136916438D01*
X182189571Y-136916438D02*
X182332428Y-136868819D01*
X182332428Y-136868819D02*
X182427666Y-136868819D01*
X182427666Y-136868819D02*
X182570523Y-136916438D01*
X182570523Y-136916438D02*
X182618142Y-136964057D01*
X182999095Y-136964057D02*
X183046714Y-136916438D01*
X183046714Y-136916438D02*
X183141952Y-136868819D01*
X183141952Y-136868819D02*
X183380047Y-136868819D01*
X183380047Y-136868819D02*
X183475285Y-136916438D01*
X183475285Y-136916438D02*
X183522904Y-136964057D01*
X183522904Y-136964057D02*
X183570523Y-137059295D01*
X183570523Y-137059295D02*
X183570523Y-137154533D01*
X183570523Y-137154533D02*
X183522904Y-137297390D01*
X183522904Y-137297390D02*
X182951476Y-137868819D01*
X182951476Y-137868819D02*
X183570523Y-137868819D01*
X184427666Y-137202152D02*
X184427666Y-137868819D01*
X184189571Y-136821200D02*
X183951476Y-137535485D01*
X183951476Y-137535485D02*
X184570523Y-137535485D01*
X164298333Y-138757819D02*
X163822143Y-138757819D01*
X163822143Y-138757819D02*
X163822143Y-137757819D01*
X164536429Y-137757819D02*
X165155476Y-137757819D01*
X165155476Y-137757819D02*
X164822143Y-138138771D01*
X164822143Y-138138771D02*
X164965000Y-138138771D01*
X164965000Y-138138771D02*
X165060238Y-138186390D01*
X165060238Y-138186390D02*
X165107857Y-138234009D01*
X165107857Y-138234009D02*
X165155476Y-138329247D01*
X165155476Y-138329247D02*
X165155476Y-138567342D01*
X165155476Y-138567342D02*
X165107857Y-138662580D01*
X165107857Y-138662580D02*
X165060238Y-138710200D01*
X165060238Y-138710200D02*
X164965000Y-138757819D01*
X164965000Y-138757819D02*
X164679286Y-138757819D01*
X164679286Y-138757819D02*
X164584048Y-138710200D01*
X164584048Y-138710200D02*
X164536429Y-138662580D01*
X177112819Y-32670666D02*
X176636628Y-33003999D01*
X177112819Y-33242094D02*
X176112819Y-33242094D01*
X176112819Y-33242094D02*
X176112819Y-32861142D01*
X176112819Y-32861142D02*
X176160438Y-32765904D01*
X176160438Y-32765904D02*
X176208057Y-32718285D01*
X176208057Y-32718285D02*
X176303295Y-32670666D01*
X176303295Y-32670666D02*
X176446152Y-32670666D01*
X176446152Y-32670666D02*
X176541390Y-32718285D01*
X176541390Y-32718285D02*
X176589009Y-32765904D01*
X176589009Y-32765904D02*
X176636628Y-32861142D01*
X176636628Y-32861142D02*
X176636628Y-33242094D01*
X176112819Y-32337332D02*
X176112819Y-31718285D01*
X176112819Y-31718285D02*
X176493771Y-32051618D01*
X176493771Y-32051618D02*
X176493771Y-31908761D01*
X176493771Y-31908761D02*
X176541390Y-31813523D01*
X176541390Y-31813523D02*
X176589009Y-31765904D01*
X176589009Y-31765904D02*
X176684247Y-31718285D01*
X176684247Y-31718285D02*
X176922342Y-31718285D01*
X176922342Y-31718285D02*
X177017580Y-31765904D01*
X177017580Y-31765904D02*
X177065200Y-31813523D01*
X177065200Y-31813523D02*
X177112819Y-31908761D01*
X177112819Y-31908761D02*
X177112819Y-32194475D01*
X177112819Y-32194475D02*
X177065200Y-32289713D01*
X177065200Y-32289713D02*
X177017580Y-32337332D01*
X157313333Y-132661819D02*
X156980000Y-132185628D01*
X156741905Y-132661819D02*
X156741905Y-131661819D01*
X156741905Y-131661819D02*
X157122857Y-131661819D01*
X157122857Y-131661819D02*
X157218095Y-131709438D01*
X157218095Y-131709438D02*
X157265714Y-131757057D01*
X157265714Y-131757057D02*
X157313333Y-131852295D01*
X157313333Y-131852295D02*
X157313333Y-131995152D01*
X157313333Y-131995152D02*
X157265714Y-132090390D01*
X157265714Y-132090390D02*
X157218095Y-132138009D01*
X157218095Y-132138009D02*
X157122857Y-132185628D01*
X157122857Y-132185628D02*
X156741905Y-132185628D01*
X157884762Y-132090390D02*
X157789524Y-132042771D01*
X157789524Y-132042771D02*
X157741905Y-131995152D01*
X157741905Y-131995152D02*
X157694286Y-131899914D01*
X157694286Y-131899914D02*
X157694286Y-131852295D01*
X157694286Y-131852295D02*
X157741905Y-131757057D01*
X157741905Y-131757057D02*
X157789524Y-131709438D01*
X157789524Y-131709438D02*
X157884762Y-131661819D01*
X157884762Y-131661819D02*
X158075238Y-131661819D01*
X158075238Y-131661819D02*
X158170476Y-131709438D01*
X158170476Y-131709438D02*
X158218095Y-131757057D01*
X158218095Y-131757057D02*
X158265714Y-131852295D01*
X158265714Y-131852295D02*
X158265714Y-131899914D01*
X158265714Y-131899914D02*
X158218095Y-131995152D01*
X158218095Y-131995152D02*
X158170476Y-132042771D01*
X158170476Y-132042771D02*
X158075238Y-132090390D01*
X158075238Y-132090390D02*
X157884762Y-132090390D01*
X157884762Y-132090390D02*
X157789524Y-132138009D01*
X157789524Y-132138009D02*
X157741905Y-132185628D01*
X157741905Y-132185628D02*
X157694286Y-132280866D01*
X157694286Y-132280866D02*
X157694286Y-132471342D01*
X157694286Y-132471342D02*
X157741905Y-132566580D01*
X157741905Y-132566580D02*
X157789524Y-132614200D01*
X157789524Y-132614200D02*
X157884762Y-132661819D01*
X157884762Y-132661819D02*
X158075238Y-132661819D01*
X158075238Y-132661819D02*
X158170476Y-132614200D01*
X158170476Y-132614200D02*
X158218095Y-132566580D01*
X158218095Y-132566580D02*
X158265714Y-132471342D01*
X158265714Y-132471342D02*
X158265714Y-132280866D01*
X158265714Y-132280866D02*
X158218095Y-132185628D01*
X158218095Y-132185628D02*
X158170476Y-132138009D01*
X158170476Y-132138009D02*
X158075238Y-132090390D01*
X110987680Y-91518104D02*
X111987680Y-91518104D01*
X110987680Y-92089532D02*
X111559109Y-91660961D01*
X111987680Y-92089532D02*
X111416252Y-91518104D01*
X111892442Y-92470485D02*
X111940061Y-92518104D01*
X111940061Y-92518104D02*
X111987680Y-92613342D01*
X111987680Y-92613342D02*
X111987680Y-92851437D01*
X111987680Y-92851437D02*
X111940061Y-92946675D01*
X111940061Y-92946675D02*
X111892442Y-92994294D01*
X111892442Y-92994294D02*
X111797204Y-93041913D01*
X111797204Y-93041913D02*
X111701966Y-93041913D01*
X111701966Y-93041913D02*
X111559109Y-92994294D01*
X111559109Y-92994294D02*
X110987680Y-92422866D01*
X110987680Y-92422866D02*
X110987680Y-93041913D01*
X156837142Y-48587819D02*
X156503809Y-48111628D01*
X156265714Y-48587819D02*
X156265714Y-47587819D01*
X156265714Y-47587819D02*
X156646666Y-47587819D01*
X156646666Y-47587819D02*
X156741904Y-47635438D01*
X156741904Y-47635438D02*
X156789523Y-47683057D01*
X156789523Y-47683057D02*
X156837142Y-47778295D01*
X156837142Y-47778295D02*
X156837142Y-47921152D01*
X156837142Y-47921152D02*
X156789523Y-48016390D01*
X156789523Y-48016390D02*
X156741904Y-48064009D01*
X156741904Y-48064009D02*
X156646666Y-48111628D01*
X156646666Y-48111628D02*
X156265714Y-48111628D01*
X157789523Y-48587819D02*
X157218095Y-48587819D01*
X157503809Y-48587819D02*
X157503809Y-47587819D01*
X157503809Y-47587819D02*
X157408571Y-47730676D01*
X157408571Y-47730676D02*
X157313333Y-47825914D01*
X157313333Y-47825914D02*
X157218095Y-47873533D01*
X158170476Y-47683057D02*
X158218095Y-47635438D01*
X158218095Y-47635438D02*
X158313333Y-47587819D01*
X158313333Y-47587819D02*
X158551428Y-47587819D01*
X158551428Y-47587819D02*
X158646666Y-47635438D01*
X158646666Y-47635438D02*
X158694285Y-47683057D01*
X158694285Y-47683057D02*
X158741904Y-47778295D01*
X158741904Y-47778295D02*
X158741904Y-47873533D01*
X158741904Y-47873533D02*
X158694285Y-48016390D01*
X158694285Y-48016390D02*
X158122857Y-48587819D01*
X158122857Y-48587819D02*
X158741904Y-48587819D01*
X84429342Y-67579380D02*
X84381723Y-67627000D01*
X84381723Y-67627000D02*
X84238866Y-67674619D01*
X84238866Y-67674619D02*
X84143628Y-67674619D01*
X84143628Y-67674619D02*
X84000771Y-67627000D01*
X84000771Y-67627000D02*
X83905533Y-67531761D01*
X83905533Y-67531761D02*
X83857914Y-67436523D01*
X83857914Y-67436523D02*
X83810295Y-67246047D01*
X83810295Y-67246047D02*
X83810295Y-67103190D01*
X83810295Y-67103190D02*
X83857914Y-66912714D01*
X83857914Y-66912714D02*
X83905533Y-66817476D01*
X83905533Y-66817476D02*
X84000771Y-66722238D01*
X84000771Y-66722238D02*
X84143628Y-66674619D01*
X84143628Y-66674619D02*
X84238866Y-66674619D01*
X84238866Y-66674619D02*
X84381723Y-66722238D01*
X84381723Y-66722238D02*
X84429342Y-66769857D01*
X84810295Y-66769857D02*
X84857914Y-66722238D01*
X84857914Y-66722238D02*
X84953152Y-66674619D01*
X84953152Y-66674619D02*
X85191247Y-66674619D01*
X85191247Y-66674619D02*
X85286485Y-66722238D01*
X85286485Y-66722238D02*
X85334104Y-66769857D01*
X85334104Y-66769857D02*
X85381723Y-66865095D01*
X85381723Y-66865095D02*
X85381723Y-66960333D01*
X85381723Y-66960333D02*
X85334104Y-67103190D01*
X85334104Y-67103190D02*
X84762676Y-67674619D01*
X84762676Y-67674619D02*
X85381723Y-67674619D01*
X86238866Y-66674619D02*
X86048390Y-66674619D01*
X86048390Y-66674619D02*
X85953152Y-66722238D01*
X85953152Y-66722238D02*
X85905533Y-66769857D01*
X85905533Y-66769857D02*
X85810295Y-66912714D01*
X85810295Y-66912714D02*
X85762676Y-67103190D01*
X85762676Y-67103190D02*
X85762676Y-67484142D01*
X85762676Y-67484142D02*
X85810295Y-67579380D01*
X85810295Y-67579380D02*
X85857914Y-67627000D01*
X85857914Y-67627000D02*
X85953152Y-67674619D01*
X85953152Y-67674619D02*
X86143628Y-67674619D01*
X86143628Y-67674619D02*
X86238866Y-67627000D01*
X86238866Y-67627000D02*
X86286485Y-67579380D01*
X86286485Y-67579380D02*
X86334104Y-67484142D01*
X86334104Y-67484142D02*
X86334104Y-67246047D01*
X86334104Y-67246047D02*
X86286485Y-67150809D01*
X86286485Y-67150809D02*
X86238866Y-67103190D01*
X86238866Y-67103190D02*
X86143628Y-67055571D01*
X86143628Y-67055571D02*
X85953152Y-67055571D01*
X85953152Y-67055571D02*
X85857914Y-67103190D01*
X85857914Y-67103190D02*
X85810295Y-67150809D01*
X85810295Y-67150809D02*
X85762676Y-67246047D01*
X184618333Y-81512580D02*
X184570714Y-81560200D01*
X184570714Y-81560200D02*
X184427857Y-81607819D01*
X184427857Y-81607819D02*
X184332619Y-81607819D01*
X184332619Y-81607819D02*
X184189762Y-81560200D01*
X184189762Y-81560200D02*
X184094524Y-81464961D01*
X184094524Y-81464961D02*
X184046905Y-81369723D01*
X184046905Y-81369723D02*
X183999286Y-81179247D01*
X183999286Y-81179247D02*
X183999286Y-81036390D01*
X183999286Y-81036390D02*
X184046905Y-80845914D01*
X184046905Y-80845914D02*
X184094524Y-80750676D01*
X184094524Y-80750676D02*
X184189762Y-80655438D01*
X184189762Y-80655438D02*
X184332619Y-80607819D01*
X184332619Y-80607819D02*
X184427857Y-80607819D01*
X184427857Y-80607819D02*
X184570714Y-80655438D01*
X184570714Y-80655438D02*
X184618333Y-80703057D01*
X185475476Y-80941152D02*
X185475476Y-81607819D01*
X185237381Y-80560200D02*
X184999286Y-81274485D01*
X184999286Y-81274485D02*
X185618333Y-81274485D01*
X89124095Y-59317819D02*
X89124095Y-60127342D01*
X89124095Y-60127342D02*
X89171714Y-60222580D01*
X89171714Y-60222580D02*
X89219333Y-60270200D01*
X89219333Y-60270200D02*
X89314571Y-60317819D01*
X89314571Y-60317819D02*
X89505047Y-60317819D01*
X89505047Y-60317819D02*
X89600285Y-60270200D01*
X89600285Y-60270200D02*
X89647904Y-60222580D01*
X89647904Y-60222580D02*
X89695523Y-60127342D01*
X89695523Y-60127342D02*
X89695523Y-59317819D01*
X90600285Y-59317819D02*
X90409809Y-59317819D01*
X90409809Y-59317819D02*
X90314571Y-59365438D01*
X90314571Y-59365438D02*
X90266952Y-59413057D01*
X90266952Y-59413057D02*
X90171714Y-59555914D01*
X90171714Y-59555914D02*
X90124095Y-59746390D01*
X90124095Y-59746390D02*
X90124095Y-60127342D01*
X90124095Y-60127342D02*
X90171714Y-60222580D01*
X90171714Y-60222580D02*
X90219333Y-60270200D01*
X90219333Y-60270200D02*
X90314571Y-60317819D01*
X90314571Y-60317819D02*
X90505047Y-60317819D01*
X90505047Y-60317819D02*
X90600285Y-60270200D01*
X90600285Y-60270200D02*
X90647904Y-60222580D01*
X90647904Y-60222580D02*
X90695523Y-60127342D01*
X90695523Y-60127342D02*
X90695523Y-59889247D01*
X90695523Y-59889247D02*
X90647904Y-59794009D01*
X90647904Y-59794009D02*
X90600285Y-59746390D01*
X90600285Y-59746390D02*
X90505047Y-59698771D01*
X90505047Y-59698771D02*
X90314571Y-59698771D01*
X90314571Y-59698771D02*
X90219333Y-59746390D01*
X90219333Y-59746390D02*
X90171714Y-59794009D01*
X90171714Y-59794009D02*
X90124095Y-59889247D01*
X132788819Y-42171857D02*
X132312628Y-42505190D01*
X132788819Y-42743285D02*
X131788819Y-42743285D01*
X131788819Y-42743285D02*
X131788819Y-42362333D01*
X131788819Y-42362333D02*
X131836438Y-42267095D01*
X131836438Y-42267095D02*
X131884057Y-42219476D01*
X131884057Y-42219476D02*
X131979295Y-42171857D01*
X131979295Y-42171857D02*
X132122152Y-42171857D01*
X132122152Y-42171857D02*
X132217390Y-42219476D01*
X132217390Y-42219476D02*
X132265009Y-42267095D01*
X132265009Y-42267095D02*
X132312628Y-42362333D01*
X132312628Y-42362333D02*
X132312628Y-42743285D01*
X132788819Y-41219476D02*
X132788819Y-41790904D01*
X132788819Y-41505190D02*
X131788819Y-41505190D01*
X131788819Y-41505190D02*
X131931676Y-41600428D01*
X131931676Y-41600428D02*
X132026914Y-41695666D01*
X132026914Y-41695666D02*
X132074533Y-41790904D01*
X131788819Y-40886142D02*
X131788819Y-40219476D01*
X131788819Y-40219476D02*
X132788819Y-40648047D01*
X175980656Y-132693580D02*
X175933037Y-132741200D01*
X175933037Y-132741200D02*
X175790180Y-132788819D01*
X175790180Y-132788819D02*
X175694942Y-132788819D01*
X175694942Y-132788819D02*
X175552085Y-132741200D01*
X175552085Y-132741200D02*
X175456847Y-132645961D01*
X175456847Y-132645961D02*
X175409228Y-132550723D01*
X175409228Y-132550723D02*
X175361609Y-132360247D01*
X175361609Y-132360247D02*
X175361609Y-132217390D01*
X175361609Y-132217390D02*
X175409228Y-132026914D01*
X175409228Y-132026914D02*
X175456847Y-131931676D01*
X175456847Y-131931676D02*
X175552085Y-131836438D01*
X175552085Y-131836438D02*
X175694942Y-131788819D01*
X175694942Y-131788819D02*
X175790180Y-131788819D01*
X175790180Y-131788819D02*
X175933037Y-131836438D01*
X175933037Y-131836438D02*
X175980656Y-131884057D01*
X176361609Y-131884057D02*
X176409228Y-131836438D01*
X176409228Y-131836438D02*
X176504466Y-131788819D01*
X176504466Y-131788819D02*
X176742561Y-131788819D01*
X176742561Y-131788819D02*
X176837799Y-131836438D01*
X176837799Y-131836438D02*
X176885418Y-131884057D01*
X176885418Y-131884057D02*
X176933037Y-131979295D01*
X176933037Y-131979295D02*
X176933037Y-132074533D01*
X176933037Y-132074533D02*
X176885418Y-132217390D01*
X176885418Y-132217390D02*
X176313990Y-132788819D01*
X176313990Y-132788819D02*
X176933037Y-132788819D01*
X177552085Y-131788819D02*
X177647323Y-131788819D01*
X177647323Y-131788819D02*
X177742561Y-131836438D01*
X177742561Y-131836438D02*
X177790180Y-131884057D01*
X177790180Y-131884057D02*
X177837799Y-131979295D01*
X177837799Y-131979295D02*
X177885418Y-132169771D01*
X177885418Y-132169771D02*
X177885418Y-132407866D01*
X177885418Y-132407866D02*
X177837799Y-132598342D01*
X177837799Y-132598342D02*
X177790180Y-132693580D01*
X177790180Y-132693580D02*
X177742561Y-132741200D01*
X177742561Y-132741200D02*
X177647323Y-132788819D01*
X177647323Y-132788819D02*
X177552085Y-132788819D01*
X177552085Y-132788819D02*
X177456847Y-132741200D01*
X177456847Y-132741200D02*
X177409228Y-132693580D01*
X177409228Y-132693580D02*
X177361609Y-132598342D01*
X177361609Y-132598342D02*
X177313990Y-132407866D01*
X177313990Y-132407866D02*
X177313990Y-132169771D01*
X177313990Y-132169771D02*
X177361609Y-131979295D01*
X177361609Y-131979295D02*
X177409228Y-131884057D01*
X177409228Y-131884057D02*
X177456847Y-131836438D01*
X177456847Y-131836438D02*
X177552085Y-131788819D01*
X167727333Y-131899819D02*
X167251143Y-131899819D01*
X167251143Y-131899819D02*
X167251143Y-130899819D01*
X168013048Y-130995057D02*
X168060667Y-130947438D01*
X168060667Y-130947438D02*
X168155905Y-130899819D01*
X168155905Y-130899819D02*
X168394000Y-130899819D01*
X168394000Y-130899819D02*
X168489238Y-130947438D01*
X168489238Y-130947438D02*
X168536857Y-130995057D01*
X168536857Y-130995057D02*
X168584476Y-131090295D01*
X168584476Y-131090295D02*
X168584476Y-131185533D01*
X168584476Y-131185533D02*
X168536857Y-131328390D01*
X168536857Y-131328390D02*
X167965429Y-131899819D01*
X167965429Y-131899819D02*
X168584476Y-131899819D01*
X116883380Y-47157857D02*
X116931000Y-47205476D01*
X116931000Y-47205476D02*
X116978619Y-47348333D01*
X116978619Y-47348333D02*
X116978619Y-47443571D01*
X116978619Y-47443571D02*
X116931000Y-47586428D01*
X116931000Y-47586428D02*
X116835761Y-47681666D01*
X116835761Y-47681666D02*
X116740523Y-47729285D01*
X116740523Y-47729285D02*
X116550047Y-47776904D01*
X116550047Y-47776904D02*
X116407190Y-47776904D01*
X116407190Y-47776904D02*
X116216714Y-47729285D01*
X116216714Y-47729285D02*
X116121476Y-47681666D01*
X116121476Y-47681666D02*
X116026238Y-47586428D01*
X116026238Y-47586428D02*
X115978619Y-47443571D01*
X115978619Y-47443571D02*
X115978619Y-47348333D01*
X115978619Y-47348333D02*
X116026238Y-47205476D01*
X116026238Y-47205476D02*
X116073857Y-47157857D01*
X116073857Y-46776904D02*
X116026238Y-46729285D01*
X116026238Y-46729285D02*
X115978619Y-46634047D01*
X115978619Y-46634047D02*
X115978619Y-46395952D01*
X115978619Y-46395952D02*
X116026238Y-46300714D01*
X116026238Y-46300714D02*
X116073857Y-46253095D01*
X116073857Y-46253095D02*
X116169095Y-46205476D01*
X116169095Y-46205476D02*
X116264333Y-46205476D01*
X116264333Y-46205476D02*
X116407190Y-46253095D01*
X116407190Y-46253095D02*
X116978619Y-46824523D01*
X116978619Y-46824523D02*
X116978619Y-46205476D01*
X116407190Y-45634047D02*
X116359571Y-45729285D01*
X116359571Y-45729285D02*
X116311952Y-45776904D01*
X116311952Y-45776904D02*
X116216714Y-45824523D01*
X116216714Y-45824523D02*
X116169095Y-45824523D01*
X116169095Y-45824523D02*
X116073857Y-45776904D01*
X116073857Y-45776904D02*
X116026238Y-45729285D01*
X116026238Y-45729285D02*
X115978619Y-45634047D01*
X115978619Y-45634047D02*
X115978619Y-45443571D01*
X115978619Y-45443571D02*
X116026238Y-45348333D01*
X116026238Y-45348333D02*
X116073857Y-45300714D01*
X116073857Y-45300714D02*
X116169095Y-45253095D01*
X116169095Y-45253095D02*
X116216714Y-45253095D01*
X116216714Y-45253095D02*
X116311952Y-45300714D01*
X116311952Y-45300714D02*
X116359571Y-45348333D01*
X116359571Y-45348333D02*
X116407190Y-45443571D01*
X116407190Y-45443571D02*
X116407190Y-45634047D01*
X116407190Y-45634047D02*
X116454809Y-45729285D01*
X116454809Y-45729285D02*
X116502428Y-45776904D01*
X116502428Y-45776904D02*
X116597666Y-45824523D01*
X116597666Y-45824523D02*
X116788142Y-45824523D01*
X116788142Y-45824523D02*
X116883380Y-45776904D01*
X116883380Y-45776904D02*
X116931000Y-45729285D01*
X116931000Y-45729285D02*
X116978619Y-45634047D01*
X116978619Y-45634047D02*
X116978619Y-45443571D01*
X116978619Y-45443571D02*
X116931000Y-45348333D01*
X116931000Y-45348333D02*
X116883380Y-45300714D01*
X116883380Y-45300714D02*
X116788142Y-45253095D01*
X116788142Y-45253095D02*
X116597666Y-45253095D01*
X116597666Y-45253095D02*
X116502428Y-45300714D01*
X116502428Y-45300714D02*
X116454809Y-45348333D01*
X116454809Y-45348333D02*
X116407190Y-45443571D01*
X178128819Y-47791666D02*
X177652628Y-48124999D01*
X178128819Y-48363094D02*
X177128819Y-48363094D01*
X177128819Y-48363094D02*
X177128819Y-47982142D01*
X177128819Y-47982142D02*
X177176438Y-47886904D01*
X177176438Y-47886904D02*
X177224057Y-47839285D01*
X177224057Y-47839285D02*
X177319295Y-47791666D01*
X177319295Y-47791666D02*
X177462152Y-47791666D01*
X177462152Y-47791666D02*
X177557390Y-47839285D01*
X177557390Y-47839285D02*
X177605009Y-47886904D01*
X177605009Y-47886904D02*
X177652628Y-47982142D01*
X177652628Y-47982142D02*
X177652628Y-48363094D01*
X177224057Y-47410713D02*
X177176438Y-47363094D01*
X177176438Y-47363094D02*
X177128819Y-47267856D01*
X177128819Y-47267856D02*
X177128819Y-47029761D01*
X177128819Y-47029761D02*
X177176438Y-46934523D01*
X177176438Y-46934523D02*
X177224057Y-46886904D01*
X177224057Y-46886904D02*
X177319295Y-46839285D01*
X177319295Y-46839285D02*
X177414533Y-46839285D01*
X177414533Y-46839285D02*
X177557390Y-46886904D01*
X177557390Y-46886904D02*
X178128819Y-47458332D01*
X178128819Y-47458332D02*
X178128819Y-46839285D01*
X162665580Y-132246666D02*
X162713200Y-132294285D01*
X162713200Y-132294285D02*
X162760819Y-132437142D01*
X162760819Y-132437142D02*
X162760819Y-132532380D01*
X162760819Y-132532380D02*
X162713200Y-132675237D01*
X162713200Y-132675237D02*
X162617961Y-132770475D01*
X162617961Y-132770475D02*
X162522723Y-132818094D01*
X162522723Y-132818094D02*
X162332247Y-132865713D01*
X162332247Y-132865713D02*
X162189390Y-132865713D01*
X162189390Y-132865713D02*
X161998914Y-132818094D01*
X161998914Y-132818094D02*
X161903676Y-132770475D01*
X161903676Y-132770475D02*
X161808438Y-132675237D01*
X161808438Y-132675237D02*
X161760819Y-132532380D01*
X161760819Y-132532380D02*
X161760819Y-132437142D01*
X161760819Y-132437142D02*
X161808438Y-132294285D01*
X161808438Y-132294285D02*
X161856057Y-132246666D01*
X162760819Y-131770475D02*
X162760819Y-131579999D01*
X162760819Y-131579999D02*
X162713200Y-131484761D01*
X162713200Y-131484761D02*
X162665580Y-131437142D01*
X162665580Y-131437142D02*
X162522723Y-131341904D01*
X162522723Y-131341904D02*
X162332247Y-131294285D01*
X162332247Y-131294285D02*
X161951295Y-131294285D01*
X161951295Y-131294285D02*
X161856057Y-131341904D01*
X161856057Y-131341904D02*
X161808438Y-131389523D01*
X161808438Y-131389523D02*
X161760819Y-131484761D01*
X161760819Y-131484761D02*
X161760819Y-131675237D01*
X161760819Y-131675237D02*
X161808438Y-131770475D01*
X161808438Y-131770475D02*
X161856057Y-131818094D01*
X161856057Y-131818094D02*
X161951295Y-131865713D01*
X161951295Y-131865713D02*
X162189390Y-131865713D01*
X162189390Y-131865713D02*
X162284628Y-131818094D01*
X162284628Y-131818094D02*
X162332247Y-131770475D01*
X162332247Y-131770475D02*
X162379866Y-131675237D01*
X162379866Y-131675237D02*
X162379866Y-131484761D01*
X162379866Y-131484761D02*
X162332247Y-131389523D01*
X162332247Y-131389523D02*
X162284628Y-131341904D01*
X162284628Y-131341904D02*
X162189390Y-131294285D01*
X172712142Y-131550580D02*
X172664523Y-131598200D01*
X172664523Y-131598200D02*
X172521666Y-131645819D01*
X172521666Y-131645819D02*
X172426428Y-131645819D01*
X172426428Y-131645819D02*
X172283571Y-131598200D01*
X172283571Y-131598200D02*
X172188333Y-131502961D01*
X172188333Y-131502961D02*
X172140714Y-131407723D01*
X172140714Y-131407723D02*
X172093095Y-131217247D01*
X172093095Y-131217247D02*
X172093095Y-131074390D01*
X172093095Y-131074390D02*
X172140714Y-130883914D01*
X172140714Y-130883914D02*
X172188333Y-130788676D01*
X172188333Y-130788676D02*
X172283571Y-130693438D01*
X172283571Y-130693438D02*
X172426428Y-130645819D01*
X172426428Y-130645819D02*
X172521666Y-130645819D01*
X172521666Y-130645819D02*
X172664523Y-130693438D01*
X172664523Y-130693438D02*
X172712142Y-130741057D01*
X173664523Y-131645819D02*
X173093095Y-131645819D01*
X173378809Y-131645819D02*
X173378809Y-130645819D01*
X173378809Y-130645819D02*
X173283571Y-130788676D01*
X173283571Y-130788676D02*
X173188333Y-130883914D01*
X173188333Y-130883914D02*
X173093095Y-130931533D01*
X174521666Y-130645819D02*
X174331190Y-130645819D01*
X174331190Y-130645819D02*
X174235952Y-130693438D01*
X174235952Y-130693438D02*
X174188333Y-130741057D01*
X174188333Y-130741057D02*
X174093095Y-130883914D01*
X174093095Y-130883914D02*
X174045476Y-131074390D01*
X174045476Y-131074390D02*
X174045476Y-131455342D01*
X174045476Y-131455342D02*
X174093095Y-131550580D01*
X174093095Y-131550580D02*
X174140714Y-131598200D01*
X174140714Y-131598200D02*
X174235952Y-131645819D01*
X174235952Y-131645819D02*
X174426428Y-131645819D01*
X174426428Y-131645819D02*
X174521666Y-131598200D01*
X174521666Y-131598200D02*
X174569285Y-131550580D01*
X174569285Y-131550580D02*
X174616904Y-131455342D01*
X174616904Y-131455342D02*
X174616904Y-131217247D01*
X174616904Y-131217247D02*
X174569285Y-131122009D01*
X174569285Y-131122009D02*
X174521666Y-131074390D01*
X174521666Y-131074390D02*
X174426428Y-131026771D01*
X174426428Y-131026771D02*
X174235952Y-131026771D01*
X174235952Y-131026771D02*
X174140714Y-131074390D01*
X174140714Y-131074390D02*
X174093095Y-131122009D01*
X174093095Y-131122009D02*
X174045476Y-131217247D01*
X126314081Y-74333856D02*
X126361701Y-74381475D01*
X126361701Y-74381475D02*
X126409320Y-74524332D01*
X126409320Y-74524332D02*
X126409320Y-74619570D01*
X126409320Y-74619570D02*
X126361701Y-74762427D01*
X126361701Y-74762427D02*
X126266462Y-74857665D01*
X126266462Y-74857665D02*
X126171224Y-74905284D01*
X126171224Y-74905284D02*
X125980748Y-74952903D01*
X125980748Y-74952903D02*
X125837891Y-74952903D01*
X125837891Y-74952903D02*
X125647415Y-74905284D01*
X125647415Y-74905284D02*
X125552177Y-74857665D01*
X125552177Y-74857665D02*
X125456939Y-74762427D01*
X125456939Y-74762427D02*
X125409320Y-74619570D01*
X125409320Y-74619570D02*
X125409320Y-74524332D01*
X125409320Y-74524332D02*
X125456939Y-74381475D01*
X125456939Y-74381475D02*
X125504558Y-74333856D01*
X125409320Y-74000522D02*
X125409320Y-73381475D01*
X125409320Y-73381475D02*
X125790272Y-73714808D01*
X125790272Y-73714808D02*
X125790272Y-73571951D01*
X125790272Y-73571951D02*
X125837891Y-73476713D01*
X125837891Y-73476713D02*
X125885510Y-73429094D01*
X125885510Y-73429094D02*
X125980748Y-73381475D01*
X125980748Y-73381475D02*
X126218843Y-73381475D01*
X126218843Y-73381475D02*
X126314081Y-73429094D01*
X126314081Y-73429094D02*
X126361701Y-73476713D01*
X126361701Y-73476713D02*
X126409320Y-73571951D01*
X126409320Y-73571951D02*
X126409320Y-73857665D01*
X126409320Y-73857665D02*
X126361701Y-73952903D01*
X126361701Y-73952903D02*
X126314081Y-74000522D01*
X125409320Y-72762427D02*
X125409320Y-72667189D01*
X125409320Y-72667189D02*
X125456939Y-72571951D01*
X125456939Y-72571951D02*
X125504558Y-72524332D01*
X125504558Y-72524332D02*
X125599796Y-72476713D01*
X125599796Y-72476713D02*
X125790272Y-72429094D01*
X125790272Y-72429094D02*
X126028367Y-72429094D01*
X126028367Y-72429094D02*
X126218843Y-72476713D01*
X126218843Y-72476713D02*
X126314081Y-72524332D01*
X126314081Y-72524332D02*
X126361701Y-72571951D01*
X126361701Y-72571951D02*
X126409320Y-72667189D01*
X126409320Y-72667189D02*
X126409320Y-72762427D01*
X126409320Y-72762427D02*
X126361701Y-72857665D01*
X126361701Y-72857665D02*
X126314081Y-72905284D01*
X126314081Y-72905284D02*
X126218843Y-72952903D01*
X126218843Y-72952903D02*
X126028367Y-73000522D01*
X126028367Y-73000522D02*
X125790272Y-73000522D01*
X125790272Y-73000522D02*
X125599796Y-72952903D01*
X125599796Y-72952903D02*
X125504558Y-72905284D01*
X125504558Y-72905284D02*
X125456939Y-72857665D01*
X125456939Y-72857665D02*
X125409320Y-72762427D01*
X86143180Y-127872475D02*
X85428895Y-127872475D01*
X85428895Y-127872475D02*
X85286038Y-127824856D01*
X85286038Y-127824856D02*
X85190800Y-127729618D01*
X85190800Y-127729618D02*
X85143180Y-127586761D01*
X85143180Y-127586761D02*
X85143180Y-127491523D01*
X85143180Y-128872475D02*
X85143180Y-128301047D01*
X85143180Y-128586761D02*
X86143180Y-128586761D01*
X86143180Y-128586761D02*
X86000323Y-128491523D01*
X86000323Y-128491523D02*
X85905085Y-128396285D01*
X85905085Y-128396285D02*
X85857466Y-128301047D01*
X86143180Y-129491523D02*
X86143180Y-129586761D01*
X86143180Y-129586761D02*
X86095561Y-129681999D01*
X86095561Y-129681999D02*
X86047942Y-129729618D01*
X86047942Y-129729618D02*
X85952704Y-129777237D01*
X85952704Y-129777237D02*
X85762228Y-129824856D01*
X85762228Y-129824856D02*
X85524133Y-129824856D01*
X85524133Y-129824856D02*
X85333657Y-129777237D01*
X85333657Y-129777237D02*
X85238419Y-129729618D01*
X85238419Y-129729618D02*
X85190800Y-129681999D01*
X85190800Y-129681999D02*
X85143180Y-129586761D01*
X85143180Y-129586761D02*
X85143180Y-129491523D01*
X85143180Y-129491523D02*
X85190800Y-129396285D01*
X85190800Y-129396285D02*
X85238419Y-129348666D01*
X85238419Y-129348666D02*
X85333657Y-129301047D01*
X85333657Y-129301047D02*
X85524133Y-129253428D01*
X85524133Y-129253428D02*
X85762228Y-129253428D01*
X85762228Y-129253428D02*
X85952704Y-129301047D01*
X85952704Y-129301047D02*
X86047942Y-129348666D01*
X86047942Y-129348666D02*
X86095561Y-129396285D01*
X86095561Y-129396285D02*
X86143180Y-129491523D01*
X181307066Y-48980666D02*
X182307066Y-48980666D01*
X182307066Y-48980666D02*
X182507066Y-49047333D01*
X182507066Y-49047333D02*
X182640400Y-49180666D01*
X182640400Y-49180666D02*
X182707066Y-49380666D01*
X182707066Y-49380666D02*
X182707066Y-49514000D01*
X181440400Y-48380666D02*
X181373733Y-48313999D01*
X181373733Y-48313999D02*
X181307066Y-48180666D01*
X181307066Y-48180666D02*
X181307066Y-47847333D01*
X181307066Y-47847333D02*
X181373733Y-47713999D01*
X181373733Y-47713999D02*
X181440400Y-47647333D01*
X181440400Y-47647333D02*
X181573733Y-47580666D01*
X181573733Y-47580666D02*
X181707066Y-47580666D01*
X181707066Y-47580666D02*
X181907066Y-47647333D01*
X181907066Y-47647333D02*
X182707066Y-48447333D01*
X182707066Y-48447333D02*
X182707066Y-47580666D01*
X126568081Y-94399856D02*
X126615701Y-94447475D01*
X126615701Y-94447475D02*
X126663320Y-94590332D01*
X126663320Y-94590332D02*
X126663320Y-94685570D01*
X126663320Y-94685570D02*
X126615701Y-94828427D01*
X126615701Y-94828427D02*
X126520462Y-94923665D01*
X126520462Y-94923665D02*
X126425224Y-94971284D01*
X126425224Y-94971284D02*
X126234748Y-95018903D01*
X126234748Y-95018903D02*
X126091891Y-95018903D01*
X126091891Y-95018903D02*
X125901415Y-94971284D01*
X125901415Y-94971284D02*
X125806177Y-94923665D01*
X125806177Y-94923665D02*
X125710939Y-94828427D01*
X125710939Y-94828427D02*
X125663320Y-94685570D01*
X125663320Y-94685570D02*
X125663320Y-94590332D01*
X125663320Y-94590332D02*
X125710939Y-94447475D01*
X125710939Y-94447475D02*
X125758558Y-94399856D01*
X125663320Y-94066522D02*
X125663320Y-93447475D01*
X125663320Y-93447475D02*
X126044272Y-93780808D01*
X126044272Y-93780808D02*
X126044272Y-93637951D01*
X126044272Y-93637951D02*
X126091891Y-93542713D01*
X126091891Y-93542713D02*
X126139510Y-93495094D01*
X126139510Y-93495094D02*
X126234748Y-93447475D01*
X126234748Y-93447475D02*
X126472843Y-93447475D01*
X126472843Y-93447475D02*
X126568081Y-93495094D01*
X126568081Y-93495094D02*
X126615701Y-93542713D01*
X126615701Y-93542713D02*
X126663320Y-93637951D01*
X126663320Y-93637951D02*
X126663320Y-93923665D01*
X126663320Y-93923665D02*
X126615701Y-94018903D01*
X126615701Y-94018903D02*
X126568081Y-94066522D01*
X126663320Y-92495094D02*
X126663320Y-93066522D01*
X126663320Y-92780808D02*
X125663320Y-92780808D01*
X125663320Y-92780808D02*
X125806177Y-92876046D01*
X125806177Y-92876046D02*
X125901415Y-92971284D01*
X125901415Y-92971284D02*
X125949034Y-93066522D01*
X163524323Y-128341333D02*
X163524323Y-128674666D01*
X164048133Y-128674666D02*
X163048133Y-128674666D01*
X163048133Y-128674666D02*
X163048133Y-128198476D01*
X163524323Y-127484190D02*
X163571942Y-127341333D01*
X163571942Y-127341333D02*
X163619561Y-127293714D01*
X163619561Y-127293714D02*
X163714799Y-127246095D01*
X163714799Y-127246095D02*
X163857656Y-127246095D01*
X163857656Y-127246095D02*
X163952894Y-127293714D01*
X163952894Y-127293714D02*
X164000514Y-127341333D01*
X164000514Y-127341333D02*
X164048133Y-127436571D01*
X164048133Y-127436571D02*
X164048133Y-127817523D01*
X164048133Y-127817523D02*
X163048133Y-127817523D01*
X163048133Y-127817523D02*
X163048133Y-127484190D01*
X163048133Y-127484190D02*
X163095752Y-127388952D01*
X163095752Y-127388952D02*
X163143371Y-127341333D01*
X163143371Y-127341333D02*
X163238609Y-127293714D01*
X163238609Y-127293714D02*
X163333847Y-127293714D01*
X163333847Y-127293714D02*
X163429085Y-127341333D01*
X163429085Y-127341333D02*
X163476704Y-127388952D01*
X163476704Y-127388952D02*
X163524323Y-127484190D01*
X163524323Y-127484190D02*
X163524323Y-127817523D01*
X164048133Y-126293714D02*
X164048133Y-126865142D01*
X164048133Y-126579428D02*
X163048133Y-126579428D01*
X163048133Y-126579428D02*
X163190990Y-126674666D01*
X163190990Y-126674666D02*
X163286228Y-126769904D01*
X163286228Y-126769904D02*
X163333847Y-126865142D01*
X134772143Y-89863819D02*
X134438810Y-89387628D01*
X134200715Y-89863819D02*
X134200715Y-88863819D01*
X134200715Y-88863819D02*
X134581667Y-88863819D01*
X134581667Y-88863819D02*
X134676905Y-88911438D01*
X134676905Y-88911438D02*
X134724524Y-88959057D01*
X134724524Y-88959057D02*
X134772143Y-89054295D01*
X134772143Y-89054295D02*
X134772143Y-89197152D01*
X134772143Y-89197152D02*
X134724524Y-89292390D01*
X134724524Y-89292390D02*
X134676905Y-89340009D01*
X134676905Y-89340009D02*
X134581667Y-89387628D01*
X134581667Y-89387628D02*
X134200715Y-89387628D01*
X135153096Y-88959057D02*
X135200715Y-88911438D01*
X135200715Y-88911438D02*
X135295953Y-88863819D01*
X135295953Y-88863819D02*
X135534048Y-88863819D01*
X135534048Y-88863819D02*
X135629286Y-88911438D01*
X135629286Y-88911438D02*
X135676905Y-88959057D01*
X135676905Y-88959057D02*
X135724524Y-89054295D01*
X135724524Y-89054295D02*
X135724524Y-89149533D01*
X135724524Y-89149533D02*
X135676905Y-89292390D01*
X135676905Y-89292390D02*
X135105477Y-89863819D01*
X135105477Y-89863819D02*
X135724524Y-89863819D01*
X136581667Y-89197152D02*
X136581667Y-89863819D01*
X136343572Y-88816200D02*
X136105477Y-89530485D01*
X136105477Y-89530485D02*
X136724524Y-89530485D01*
X136368558Y-131190237D02*
X136320939Y-131285475D01*
X136320939Y-131285475D02*
X136225701Y-131380713D01*
X136225701Y-131380713D02*
X136082843Y-131523570D01*
X136082843Y-131523570D02*
X136035224Y-131618808D01*
X136035224Y-131618808D02*
X136035224Y-131714046D01*
X136273320Y-131666427D02*
X136225701Y-131761665D01*
X136225701Y-131761665D02*
X136130462Y-131856903D01*
X136130462Y-131856903D02*
X135939986Y-131904522D01*
X135939986Y-131904522D02*
X135606653Y-131904522D01*
X135606653Y-131904522D02*
X135416177Y-131856903D01*
X135416177Y-131856903D02*
X135320939Y-131761665D01*
X135320939Y-131761665D02*
X135273320Y-131666427D01*
X135273320Y-131666427D02*
X135273320Y-131475951D01*
X135273320Y-131475951D02*
X135320939Y-131380713D01*
X135320939Y-131380713D02*
X135416177Y-131285475D01*
X135416177Y-131285475D02*
X135606653Y-131237856D01*
X135606653Y-131237856D02*
X135939986Y-131237856D01*
X135939986Y-131237856D02*
X136130462Y-131285475D01*
X136130462Y-131285475D02*
X136225701Y-131380713D01*
X136225701Y-131380713D02*
X136273320Y-131475951D01*
X136273320Y-131475951D02*
X136273320Y-131666427D01*
X135273320Y-130380713D02*
X135273320Y-130571189D01*
X135273320Y-130571189D02*
X135320939Y-130666427D01*
X135320939Y-130666427D02*
X135368558Y-130714046D01*
X135368558Y-130714046D02*
X135511415Y-130809284D01*
X135511415Y-130809284D02*
X135701891Y-130856903D01*
X135701891Y-130856903D02*
X136082843Y-130856903D01*
X136082843Y-130856903D02*
X136178081Y-130809284D01*
X136178081Y-130809284D02*
X136225701Y-130761665D01*
X136225701Y-130761665D02*
X136273320Y-130666427D01*
X136273320Y-130666427D02*
X136273320Y-130475951D01*
X136273320Y-130475951D02*
X136225701Y-130380713D01*
X136225701Y-130380713D02*
X136178081Y-130333094D01*
X136178081Y-130333094D02*
X136082843Y-130285475D01*
X136082843Y-130285475D02*
X135844748Y-130285475D01*
X135844748Y-130285475D02*
X135749510Y-130333094D01*
X135749510Y-130333094D02*
X135701891Y-130380713D01*
X135701891Y-130380713D02*
X135654272Y-130475951D01*
X135654272Y-130475951D02*
X135654272Y-130666427D01*
X135654272Y-130666427D02*
X135701891Y-130761665D01*
X135701891Y-130761665D02*
X135749510Y-130809284D01*
X135749510Y-130809284D02*
X135844748Y-130856903D01*
X134772143Y-69923819D02*
X134438810Y-69447628D01*
X134200715Y-69923819D02*
X134200715Y-68923819D01*
X134200715Y-68923819D02*
X134581667Y-68923819D01*
X134581667Y-68923819D02*
X134676905Y-68971438D01*
X134676905Y-68971438D02*
X134724524Y-69019057D01*
X134724524Y-69019057D02*
X134772143Y-69114295D01*
X134772143Y-69114295D02*
X134772143Y-69257152D01*
X134772143Y-69257152D02*
X134724524Y-69352390D01*
X134724524Y-69352390D02*
X134676905Y-69400009D01*
X134676905Y-69400009D02*
X134581667Y-69447628D01*
X134581667Y-69447628D02*
X134200715Y-69447628D01*
X135153096Y-69019057D02*
X135200715Y-68971438D01*
X135200715Y-68971438D02*
X135295953Y-68923819D01*
X135295953Y-68923819D02*
X135534048Y-68923819D01*
X135534048Y-68923819D02*
X135629286Y-68971438D01*
X135629286Y-68971438D02*
X135676905Y-69019057D01*
X135676905Y-69019057D02*
X135724524Y-69114295D01*
X135724524Y-69114295D02*
X135724524Y-69209533D01*
X135724524Y-69209533D02*
X135676905Y-69352390D01*
X135676905Y-69352390D02*
X135105477Y-69923819D01*
X135105477Y-69923819D02*
X135724524Y-69923819D01*
X136057858Y-68923819D02*
X136676905Y-68923819D01*
X136676905Y-68923819D02*
X136343572Y-69304771D01*
X136343572Y-69304771D02*
X136486429Y-69304771D01*
X136486429Y-69304771D02*
X136581667Y-69352390D01*
X136581667Y-69352390D02*
X136629286Y-69400009D01*
X136629286Y-69400009D02*
X136676905Y-69495247D01*
X136676905Y-69495247D02*
X136676905Y-69733342D01*
X136676905Y-69733342D02*
X136629286Y-69828580D01*
X136629286Y-69828580D02*
X136581667Y-69876200D01*
X136581667Y-69876200D02*
X136486429Y-69923819D01*
X136486429Y-69923819D02*
X136200715Y-69923819D01*
X136200715Y-69923819D02*
X136105477Y-69876200D01*
X136105477Y-69876200D02*
X136057858Y-69828580D01*
X86143180Y-146402875D02*
X85428895Y-146402875D01*
X85428895Y-146402875D02*
X85286038Y-146355256D01*
X85286038Y-146355256D02*
X85190800Y-146260018D01*
X85190800Y-146260018D02*
X85143180Y-146117161D01*
X85143180Y-146117161D02*
X85143180Y-146021923D01*
X85143180Y-147402875D02*
X85143180Y-146831447D01*
X85143180Y-147117161D02*
X86143180Y-147117161D01*
X86143180Y-147117161D02*
X86000323Y-147021923D01*
X86000323Y-147021923D02*
X85905085Y-146926685D01*
X85905085Y-146926685D02*
X85857466Y-146831447D01*
X85143180Y-148355256D02*
X85143180Y-147783828D01*
X85143180Y-148069542D02*
X86143180Y-148069542D01*
X86143180Y-148069542D02*
X86000323Y-147974304D01*
X86000323Y-147974304D02*
X85905085Y-147879066D01*
X85905085Y-147879066D02*
X85857466Y-147783828D01*
X162670342Y-45167561D02*
X162717961Y-45072323D01*
X162717961Y-45072323D02*
X162813200Y-44977085D01*
X162813200Y-44977085D02*
X162956057Y-44834228D01*
X162956057Y-44834228D02*
X163003676Y-44738990D01*
X163003676Y-44738990D02*
X163003676Y-44643752D01*
X162765580Y-44691371D02*
X162813200Y-44596133D01*
X162813200Y-44596133D02*
X162908438Y-44500895D01*
X162908438Y-44500895D02*
X163098914Y-44453276D01*
X163098914Y-44453276D02*
X163432247Y-44453276D01*
X163432247Y-44453276D02*
X163622723Y-44500895D01*
X163622723Y-44500895D02*
X163717961Y-44596133D01*
X163717961Y-44596133D02*
X163765580Y-44691371D01*
X163765580Y-44691371D02*
X163765580Y-44881847D01*
X163765580Y-44881847D02*
X163717961Y-44977085D01*
X163717961Y-44977085D02*
X163622723Y-45072323D01*
X163622723Y-45072323D02*
X163432247Y-45119942D01*
X163432247Y-45119942D02*
X163098914Y-45119942D01*
X163098914Y-45119942D02*
X162908438Y-45072323D01*
X162908438Y-45072323D02*
X162813200Y-44977085D01*
X162813200Y-44977085D02*
X162765580Y-44881847D01*
X162765580Y-44881847D02*
X162765580Y-44691371D01*
X162765580Y-46072323D02*
X162765580Y-45500895D01*
X162765580Y-45786609D02*
X163765580Y-45786609D01*
X163765580Y-45786609D02*
X163622723Y-45691371D01*
X163622723Y-45691371D02*
X163527485Y-45596133D01*
X163527485Y-45596133D02*
X163479866Y-45500895D01*
X94233742Y-47665780D02*
X94186123Y-47713400D01*
X94186123Y-47713400D02*
X94043266Y-47761019D01*
X94043266Y-47761019D02*
X93948028Y-47761019D01*
X93948028Y-47761019D02*
X93805171Y-47713400D01*
X93805171Y-47713400D02*
X93709933Y-47618161D01*
X93709933Y-47618161D02*
X93662314Y-47522923D01*
X93662314Y-47522923D02*
X93614695Y-47332447D01*
X93614695Y-47332447D02*
X93614695Y-47189590D01*
X93614695Y-47189590D02*
X93662314Y-46999114D01*
X93662314Y-46999114D02*
X93709933Y-46903876D01*
X93709933Y-46903876D02*
X93805171Y-46808638D01*
X93805171Y-46808638D02*
X93948028Y-46761019D01*
X93948028Y-46761019D02*
X94043266Y-46761019D01*
X94043266Y-46761019D02*
X94186123Y-46808638D01*
X94186123Y-46808638D02*
X94233742Y-46856257D01*
X94614695Y-46856257D02*
X94662314Y-46808638D01*
X94662314Y-46808638D02*
X94757552Y-46761019D01*
X94757552Y-46761019D02*
X94995647Y-46761019D01*
X94995647Y-46761019D02*
X95090885Y-46808638D01*
X95090885Y-46808638D02*
X95138504Y-46856257D01*
X95138504Y-46856257D02*
X95186123Y-46951495D01*
X95186123Y-46951495D02*
X95186123Y-47046733D01*
X95186123Y-47046733D02*
X95138504Y-47189590D01*
X95138504Y-47189590D02*
X94567076Y-47761019D01*
X94567076Y-47761019D02*
X95186123Y-47761019D01*
X95519457Y-46761019D02*
X96186123Y-46761019D01*
X96186123Y-46761019D02*
X95757552Y-47761019D01*
X181408666Y-72145466D02*
X182408666Y-72145466D01*
X182408666Y-72145466D02*
X182608666Y-72212133D01*
X182608666Y-72212133D02*
X182742000Y-72345466D01*
X182742000Y-72345466D02*
X182808666Y-72545466D01*
X182808666Y-72545466D02*
X182808666Y-72678800D01*
X181408666Y-71612133D02*
X181408666Y-70745466D01*
X181408666Y-70745466D02*
X181942000Y-71212133D01*
X181942000Y-71212133D02*
X181942000Y-71012133D01*
X181942000Y-71012133D02*
X182008666Y-70878799D01*
X182008666Y-70878799D02*
X182075333Y-70812133D01*
X182075333Y-70812133D02*
X182208666Y-70745466D01*
X182208666Y-70745466D02*
X182542000Y-70745466D01*
X182542000Y-70745466D02*
X182675333Y-70812133D01*
X182675333Y-70812133D02*
X182742000Y-70878799D01*
X182742000Y-70878799D02*
X182808666Y-71012133D01*
X182808666Y-71012133D02*
X182808666Y-71412133D01*
X182808666Y-71412133D02*
X182742000Y-71545466D01*
X182742000Y-71545466D02*
X182675333Y-71612133D01*
X146555619Y-49791857D02*
X146079428Y-50125190D01*
X146555619Y-50363285D02*
X145555619Y-50363285D01*
X145555619Y-50363285D02*
X145555619Y-49982333D01*
X145555619Y-49982333D02*
X145603238Y-49887095D01*
X145603238Y-49887095D02*
X145650857Y-49839476D01*
X145650857Y-49839476D02*
X145746095Y-49791857D01*
X145746095Y-49791857D02*
X145888952Y-49791857D01*
X145888952Y-49791857D02*
X145984190Y-49839476D01*
X145984190Y-49839476D02*
X146031809Y-49887095D01*
X146031809Y-49887095D02*
X146079428Y-49982333D01*
X146079428Y-49982333D02*
X146079428Y-50363285D01*
X146555619Y-48839476D02*
X146555619Y-49410904D01*
X146555619Y-49125190D02*
X145555619Y-49125190D01*
X145555619Y-49125190D02*
X145698476Y-49220428D01*
X145698476Y-49220428D02*
X145793714Y-49315666D01*
X145793714Y-49315666D02*
X145841333Y-49410904D01*
X146555619Y-48363285D02*
X146555619Y-48172809D01*
X146555619Y-48172809D02*
X146508000Y-48077571D01*
X146508000Y-48077571D02*
X146460380Y-48029952D01*
X146460380Y-48029952D02*
X146317523Y-47934714D01*
X146317523Y-47934714D02*
X146127047Y-47887095D01*
X146127047Y-47887095D02*
X145746095Y-47887095D01*
X145746095Y-47887095D02*
X145650857Y-47934714D01*
X145650857Y-47934714D02*
X145603238Y-47982333D01*
X145603238Y-47982333D02*
X145555619Y-48077571D01*
X145555619Y-48077571D02*
X145555619Y-48268047D01*
X145555619Y-48268047D02*
X145603238Y-48363285D01*
X145603238Y-48363285D02*
X145650857Y-48410904D01*
X145650857Y-48410904D02*
X145746095Y-48458523D01*
X145746095Y-48458523D02*
X145984190Y-48458523D01*
X145984190Y-48458523D02*
X146079428Y-48410904D01*
X146079428Y-48410904D02*
X146127047Y-48363285D01*
X146127047Y-48363285D02*
X146174666Y-48268047D01*
X146174666Y-48268047D02*
X146174666Y-48077571D01*
X146174666Y-48077571D02*
X146127047Y-47982333D01*
X146127047Y-47982333D02*
X146079428Y-47934714D01*
X146079428Y-47934714D02*
X145984190Y-47887095D01*
X156061580Y-131738666D02*
X156109200Y-131786285D01*
X156109200Y-131786285D02*
X156156819Y-131929142D01*
X156156819Y-131929142D02*
X156156819Y-132024380D01*
X156156819Y-132024380D02*
X156109200Y-132167237D01*
X156109200Y-132167237D02*
X156013961Y-132262475D01*
X156013961Y-132262475D02*
X155918723Y-132310094D01*
X155918723Y-132310094D02*
X155728247Y-132357713D01*
X155728247Y-132357713D02*
X155585390Y-132357713D01*
X155585390Y-132357713D02*
X155394914Y-132310094D01*
X155394914Y-132310094D02*
X155299676Y-132262475D01*
X155299676Y-132262475D02*
X155204438Y-132167237D01*
X155204438Y-132167237D02*
X155156819Y-132024380D01*
X155156819Y-132024380D02*
X155156819Y-131929142D01*
X155156819Y-131929142D02*
X155204438Y-131786285D01*
X155204438Y-131786285D02*
X155252057Y-131738666D01*
X155585390Y-131167237D02*
X155537771Y-131262475D01*
X155537771Y-131262475D02*
X155490152Y-131310094D01*
X155490152Y-131310094D02*
X155394914Y-131357713D01*
X155394914Y-131357713D02*
X155347295Y-131357713D01*
X155347295Y-131357713D02*
X155252057Y-131310094D01*
X155252057Y-131310094D02*
X155204438Y-131262475D01*
X155204438Y-131262475D02*
X155156819Y-131167237D01*
X155156819Y-131167237D02*
X155156819Y-130976761D01*
X155156819Y-130976761D02*
X155204438Y-130881523D01*
X155204438Y-130881523D02*
X155252057Y-130833904D01*
X155252057Y-130833904D02*
X155347295Y-130786285D01*
X155347295Y-130786285D02*
X155394914Y-130786285D01*
X155394914Y-130786285D02*
X155490152Y-130833904D01*
X155490152Y-130833904D02*
X155537771Y-130881523D01*
X155537771Y-130881523D02*
X155585390Y-130976761D01*
X155585390Y-130976761D02*
X155585390Y-131167237D01*
X155585390Y-131167237D02*
X155633009Y-131262475D01*
X155633009Y-131262475D02*
X155680628Y-131310094D01*
X155680628Y-131310094D02*
X155775866Y-131357713D01*
X155775866Y-131357713D02*
X155966342Y-131357713D01*
X155966342Y-131357713D02*
X156061580Y-131310094D01*
X156061580Y-131310094D02*
X156109200Y-131262475D01*
X156109200Y-131262475D02*
X156156819Y-131167237D01*
X156156819Y-131167237D02*
X156156819Y-130976761D01*
X156156819Y-130976761D02*
X156109200Y-130881523D01*
X156109200Y-130881523D02*
X156061580Y-130833904D01*
X156061580Y-130833904D02*
X155966342Y-130786285D01*
X155966342Y-130786285D02*
X155775866Y-130786285D01*
X155775866Y-130786285D02*
X155680628Y-130833904D01*
X155680628Y-130833904D02*
X155633009Y-130881523D01*
X155633009Y-130881523D02*
X155585390Y-130976761D01*
X184872333Y-136725819D02*
X184396143Y-136725819D01*
X184396143Y-136725819D02*
X184396143Y-135725819D01*
X185634238Y-135725819D02*
X185443762Y-135725819D01*
X185443762Y-135725819D02*
X185348524Y-135773438D01*
X185348524Y-135773438D02*
X185300905Y-135821057D01*
X185300905Y-135821057D02*
X185205667Y-135963914D01*
X185205667Y-135963914D02*
X185158048Y-136154390D01*
X185158048Y-136154390D02*
X185158048Y-136535342D01*
X185158048Y-136535342D02*
X185205667Y-136630580D01*
X185205667Y-136630580D02*
X185253286Y-136678200D01*
X185253286Y-136678200D02*
X185348524Y-136725819D01*
X185348524Y-136725819D02*
X185539000Y-136725819D01*
X185539000Y-136725819D02*
X185634238Y-136678200D01*
X185634238Y-136678200D02*
X185681857Y-136630580D01*
X185681857Y-136630580D02*
X185729476Y-136535342D01*
X185729476Y-136535342D02*
X185729476Y-136297247D01*
X185729476Y-136297247D02*
X185681857Y-136202009D01*
X185681857Y-136202009D02*
X185634238Y-136154390D01*
X185634238Y-136154390D02*
X185539000Y-136106771D01*
X185539000Y-136106771D02*
X185348524Y-136106771D01*
X185348524Y-136106771D02*
X185253286Y-136154390D01*
X185253286Y-136154390D02*
X185205667Y-136202009D01*
X185205667Y-136202009D02*
X185158048Y-136297247D01*
X177366819Y-55665666D02*
X176890628Y-55998999D01*
X177366819Y-56237094D02*
X176366819Y-56237094D01*
X176366819Y-56237094D02*
X176366819Y-55856142D01*
X176366819Y-55856142D02*
X176414438Y-55760904D01*
X176414438Y-55760904D02*
X176462057Y-55713285D01*
X176462057Y-55713285D02*
X176557295Y-55665666D01*
X176557295Y-55665666D02*
X176700152Y-55665666D01*
X176700152Y-55665666D02*
X176795390Y-55713285D01*
X176795390Y-55713285D02*
X176843009Y-55760904D01*
X176843009Y-55760904D02*
X176890628Y-55856142D01*
X176890628Y-55856142D02*
X176890628Y-56237094D01*
X176366819Y-54808523D02*
X176366819Y-54998999D01*
X176366819Y-54998999D02*
X176414438Y-55094237D01*
X176414438Y-55094237D02*
X176462057Y-55141856D01*
X176462057Y-55141856D02*
X176604914Y-55237094D01*
X176604914Y-55237094D02*
X176795390Y-55284713D01*
X176795390Y-55284713D02*
X177176342Y-55284713D01*
X177176342Y-55284713D02*
X177271580Y-55237094D01*
X177271580Y-55237094D02*
X177319200Y-55189475D01*
X177319200Y-55189475D02*
X177366819Y-55094237D01*
X177366819Y-55094237D02*
X177366819Y-54903761D01*
X177366819Y-54903761D02*
X177319200Y-54808523D01*
X177319200Y-54808523D02*
X177271580Y-54760904D01*
X177271580Y-54760904D02*
X177176342Y-54713285D01*
X177176342Y-54713285D02*
X176938247Y-54713285D01*
X176938247Y-54713285D02*
X176843009Y-54760904D01*
X176843009Y-54760904D02*
X176795390Y-54808523D01*
X176795390Y-54808523D02*
X176747771Y-54903761D01*
X176747771Y-54903761D02*
X176747771Y-55094237D01*
X176747771Y-55094237D02*
X176795390Y-55189475D01*
X176795390Y-55189475D02*
X176843009Y-55237094D01*
X176843009Y-55237094D02*
X176938247Y-55284713D01*
X146478666Y-29426819D02*
X146478666Y-30141104D01*
X146478666Y-30141104D02*
X146431047Y-30283961D01*
X146431047Y-30283961D02*
X146335809Y-30379200D01*
X146335809Y-30379200D02*
X146192952Y-30426819D01*
X146192952Y-30426819D02*
X146097714Y-30426819D01*
X147431047Y-29426819D02*
X146954857Y-29426819D01*
X146954857Y-29426819D02*
X146907238Y-29903009D01*
X146907238Y-29903009D02*
X146954857Y-29855390D01*
X146954857Y-29855390D02*
X147050095Y-29807771D01*
X147050095Y-29807771D02*
X147288190Y-29807771D01*
X147288190Y-29807771D02*
X147383428Y-29855390D01*
X147383428Y-29855390D02*
X147431047Y-29903009D01*
X147431047Y-29903009D02*
X147478666Y-29998247D01*
X147478666Y-29998247D02*
X147478666Y-30236342D01*
X147478666Y-30236342D02*
X147431047Y-30331580D01*
X147431047Y-30331580D02*
X147383428Y-30379200D01*
X147383428Y-30379200D02*
X147288190Y-30426819D01*
X147288190Y-30426819D02*
X147050095Y-30426819D01*
X147050095Y-30426819D02*
X146954857Y-30379200D01*
X146954857Y-30379200D02*
X146907238Y-30331580D01*
X185666142Y-137900580D02*
X185618523Y-137948200D01*
X185618523Y-137948200D02*
X185475666Y-137995819D01*
X185475666Y-137995819D02*
X185380428Y-137995819D01*
X185380428Y-137995819D02*
X185237571Y-137948200D01*
X185237571Y-137948200D02*
X185142333Y-137852961D01*
X185142333Y-137852961D02*
X185094714Y-137757723D01*
X185094714Y-137757723D02*
X185047095Y-137567247D01*
X185047095Y-137567247D02*
X185047095Y-137424390D01*
X185047095Y-137424390D02*
X185094714Y-137233914D01*
X185094714Y-137233914D02*
X185142333Y-137138676D01*
X185142333Y-137138676D02*
X185237571Y-137043438D01*
X185237571Y-137043438D02*
X185380428Y-136995819D01*
X185380428Y-136995819D02*
X185475666Y-136995819D01*
X185475666Y-136995819D02*
X185618523Y-137043438D01*
X185618523Y-137043438D02*
X185666142Y-137091057D01*
X186047095Y-137091057D02*
X186094714Y-137043438D01*
X186094714Y-137043438D02*
X186189952Y-136995819D01*
X186189952Y-136995819D02*
X186428047Y-136995819D01*
X186428047Y-136995819D02*
X186523285Y-137043438D01*
X186523285Y-137043438D02*
X186570904Y-137091057D01*
X186570904Y-137091057D02*
X186618523Y-137186295D01*
X186618523Y-137186295D02*
X186618523Y-137281533D01*
X186618523Y-137281533D02*
X186570904Y-137424390D01*
X186570904Y-137424390D02*
X185999476Y-137995819D01*
X185999476Y-137995819D02*
X186618523Y-137995819D01*
X187523285Y-136995819D02*
X187047095Y-136995819D01*
X187047095Y-136995819D02*
X186999476Y-137472009D01*
X186999476Y-137472009D02*
X187047095Y-137424390D01*
X187047095Y-137424390D02*
X187142333Y-137376771D01*
X187142333Y-137376771D02*
X187380428Y-137376771D01*
X187380428Y-137376771D02*
X187475666Y-137424390D01*
X187475666Y-137424390D02*
X187523285Y-137472009D01*
X187523285Y-137472009D02*
X187570904Y-137567247D01*
X187570904Y-137567247D02*
X187570904Y-137805342D01*
X187570904Y-137805342D02*
X187523285Y-137900580D01*
X187523285Y-137900580D02*
X187475666Y-137948200D01*
X187475666Y-137948200D02*
X187380428Y-137995819D01*
X187380428Y-137995819D02*
X187142333Y-137995819D01*
X187142333Y-137995819D02*
X187047095Y-137948200D01*
X187047095Y-137948200D02*
X186999476Y-137900580D01*
X165981142Y-139297580D02*
X165933523Y-139345200D01*
X165933523Y-139345200D02*
X165790666Y-139392819D01*
X165790666Y-139392819D02*
X165695428Y-139392819D01*
X165695428Y-139392819D02*
X165552571Y-139345200D01*
X165552571Y-139345200D02*
X165457333Y-139249961D01*
X165457333Y-139249961D02*
X165409714Y-139154723D01*
X165409714Y-139154723D02*
X165362095Y-138964247D01*
X165362095Y-138964247D02*
X165362095Y-138821390D01*
X165362095Y-138821390D02*
X165409714Y-138630914D01*
X165409714Y-138630914D02*
X165457333Y-138535676D01*
X165457333Y-138535676D02*
X165552571Y-138440438D01*
X165552571Y-138440438D02*
X165695428Y-138392819D01*
X165695428Y-138392819D02*
X165790666Y-138392819D01*
X165790666Y-138392819D02*
X165933523Y-138440438D01*
X165933523Y-138440438D02*
X165981142Y-138488057D01*
X166933523Y-139392819D02*
X166362095Y-139392819D01*
X166647809Y-139392819D02*
X166647809Y-138392819D01*
X166647809Y-138392819D02*
X166552571Y-138535676D01*
X166552571Y-138535676D02*
X166457333Y-138630914D01*
X166457333Y-138630914D02*
X166362095Y-138678533D01*
X167790666Y-138726152D02*
X167790666Y-139392819D01*
X167552571Y-138345200D02*
X167314476Y-139059485D01*
X167314476Y-139059485D02*
X167933523Y-139059485D01*
X169791142Y-131423580D02*
X169743523Y-131471200D01*
X169743523Y-131471200D02*
X169600666Y-131518819D01*
X169600666Y-131518819D02*
X169505428Y-131518819D01*
X169505428Y-131518819D02*
X169362571Y-131471200D01*
X169362571Y-131471200D02*
X169267333Y-131375961D01*
X169267333Y-131375961D02*
X169219714Y-131280723D01*
X169219714Y-131280723D02*
X169172095Y-131090247D01*
X169172095Y-131090247D02*
X169172095Y-130947390D01*
X169172095Y-130947390D02*
X169219714Y-130756914D01*
X169219714Y-130756914D02*
X169267333Y-130661676D01*
X169267333Y-130661676D02*
X169362571Y-130566438D01*
X169362571Y-130566438D02*
X169505428Y-130518819D01*
X169505428Y-130518819D02*
X169600666Y-130518819D01*
X169600666Y-130518819D02*
X169743523Y-130566438D01*
X169743523Y-130566438D02*
X169791142Y-130614057D01*
X170743523Y-131518819D02*
X170172095Y-131518819D01*
X170457809Y-131518819D02*
X170457809Y-130518819D01*
X170457809Y-130518819D02*
X170362571Y-130661676D01*
X170362571Y-130661676D02*
X170267333Y-130756914D01*
X170267333Y-130756914D02*
X170172095Y-130804533D01*
X171076857Y-130518819D02*
X171695904Y-130518819D01*
X171695904Y-130518819D02*
X171362571Y-130899771D01*
X171362571Y-130899771D02*
X171505428Y-130899771D01*
X171505428Y-130899771D02*
X171600666Y-130947390D01*
X171600666Y-130947390D02*
X171648285Y-130995009D01*
X171648285Y-130995009D02*
X171695904Y-131090247D01*
X171695904Y-131090247D02*
X171695904Y-131328342D01*
X171695904Y-131328342D02*
X171648285Y-131423580D01*
X171648285Y-131423580D02*
X171600666Y-131471200D01*
X171600666Y-131471200D02*
X171505428Y-131518819D01*
X171505428Y-131518819D02*
X171219714Y-131518819D01*
X171219714Y-131518819D02*
X171124476Y-131471200D01*
X171124476Y-131471200D02*
X171076857Y-131423580D01*
X136368558Y-74294237D02*
X136320939Y-74389475D01*
X136320939Y-74389475D02*
X136225701Y-74484713D01*
X136225701Y-74484713D02*
X136082843Y-74627570D01*
X136082843Y-74627570D02*
X136035224Y-74722808D01*
X136035224Y-74722808D02*
X136035224Y-74818046D01*
X136273320Y-74770427D02*
X136225701Y-74865665D01*
X136225701Y-74865665D02*
X136130462Y-74960903D01*
X136130462Y-74960903D02*
X135939986Y-75008522D01*
X135939986Y-75008522D02*
X135606653Y-75008522D01*
X135606653Y-75008522D02*
X135416177Y-74960903D01*
X135416177Y-74960903D02*
X135320939Y-74865665D01*
X135320939Y-74865665D02*
X135273320Y-74770427D01*
X135273320Y-74770427D02*
X135273320Y-74579951D01*
X135273320Y-74579951D02*
X135320939Y-74484713D01*
X135320939Y-74484713D02*
X135416177Y-74389475D01*
X135416177Y-74389475D02*
X135606653Y-74341856D01*
X135606653Y-74341856D02*
X135939986Y-74341856D01*
X135939986Y-74341856D02*
X136130462Y-74389475D01*
X136130462Y-74389475D02*
X136225701Y-74484713D01*
X136225701Y-74484713D02*
X136273320Y-74579951D01*
X136273320Y-74579951D02*
X136273320Y-74770427D01*
X135273320Y-74008522D02*
X135273320Y-73389475D01*
X135273320Y-73389475D02*
X135654272Y-73722808D01*
X135654272Y-73722808D02*
X135654272Y-73579951D01*
X135654272Y-73579951D02*
X135701891Y-73484713D01*
X135701891Y-73484713D02*
X135749510Y-73437094D01*
X135749510Y-73437094D02*
X135844748Y-73389475D01*
X135844748Y-73389475D02*
X136082843Y-73389475D01*
X136082843Y-73389475D02*
X136178081Y-73437094D01*
X136178081Y-73437094D02*
X136225701Y-73484713D01*
X136225701Y-73484713D02*
X136273320Y-73579951D01*
X136273320Y-73579951D02*
X136273320Y-73865665D01*
X136273320Y-73865665D02*
X136225701Y-73960903D01*
X136225701Y-73960903D02*
X136178081Y-74008522D01*
X172204142Y-133836580D02*
X172156523Y-133884200D01*
X172156523Y-133884200D02*
X172013666Y-133931819D01*
X172013666Y-133931819D02*
X171918428Y-133931819D01*
X171918428Y-133931819D02*
X171775571Y-133884200D01*
X171775571Y-133884200D02*
X171680333Y-133788961D01*
X171680333Y-133788961D02*
X171632714Y-133693723D01*
X171632714Y-133693723D02*
X171585095Y-133503247D01*
X171585095Y-133503247D02*
X171585095Y-133360390D01*
X171585095Y-133360390D02*
X171632714Y-133169914D01*
X171632714Y-133169914D02*
X171680333Y-133074676D01*
X171680333Y-133074676D02*
X171775571Y-132979438D01*
X171775571Y-132979438D02*
X171918428Y-132931819D01*
X171918428Y-132931819D02*
X172013666Y-132931819D01*
X172013666Y-132931819D02*
X172156523Y-132979438D01*
X172156523Y-132979438D02*
X172204142Y-133027057D01*
X173156523Y-133931819D02*
X172585095Y-133931819D01*
X172870809Y-133931819D02*
X172870809Y-132931819D01*
X172870809Y-132931819D02*
X172775571Y-133074676D01*
X172775571Y-133074676D02*
X172680333Y-133169914D01*
X172680333Y-133169914D02*
X172585095Y-133217533D01*
X173632714Y-133931819D02*
X173823190Y-133931819D01*
X173823190Y-133931819D02*
X173918428Y-133884200D01*
X173918428Y-133884200D02*
X173966047Y-133836580D01*
X173966047Y-133836580D02*
X174061285Y-133693723D01*
X174061285Y-133693723D02*
X174108904Y-133503247D01*
X174108904Y-133503247D02*
X174108904Y-133122295D01*
X174108904Y-133122295D02*
X174061285Y-133027057D01*
X174061285Y-133027057D02*
X174013666Y-132979438D01*
X174013666Y-132979438D02*
X173918428Y-132931819D01*
X173918428Y-132931819D02*
X173727952Y-132931819D01*
X173727952Y-132931819D02*
X173632714Y-132979438D01*
X173632714Y-132979438D02*
X173585095Y-133027057D01*
X173585095Y-133027057D02*
X173537476Y-133122295D01*
X173537476Y-133122295D02*
X173537476Y-133360390D01*
X173537476Y-133360390D02*
X173585095Y-133455628D01*
X173585095Y-133455628D02*
X173632714Y-133503247D01*
X173632714Y-133503247D02*
X173727952Y-133550866D01*
X173727952Y-133550866D02*
X173918428Y-133550866D01*
X173918428Y-133550866D02*
X174013666Y-133503247D01*
X174013666Y-133503247D02*
X174061285Y-133455628D01*
X174061285Y-133455628D02*
X174108904Y-133360390D01*
D11*
X159937752Y-127591965D02*
X159937752Y-127979012D01*
X159666819Y-127166212D02*
X159937752Y-127591965D01*
X159937752Y-127591965D02*
X160208686Y-127166212D01*
X160905372Y-127979012D02*
X160440915Y-127979012D01*
X160673143Y-127979012D02*
X160673143Y-127166212D01*
X160673143Y-127166212D02*
X160595734Y-127282327D01*
X160595734Y-127282327D02*
X160518324Y-127359736D01*
X160518324Y-127359736D02*
X160440915Y-127398441D01*
D10*
X98499705Y-62932819D02*
X98499705Y-61932819D01*
X98499705Y-61932819D02*
X98737800Y-61932819D01*
X98737800Y-61932819D02*
X98880657Y-61980438D01*
X98880657Y-61980438D02*
X98975895Y-62075676D01*
X98975895Y-62075676D02*
X99023514Y-62170914D01*
X99023514Y-62170914D02*
X99071133Y-62361390D01*
X99071133Y-62361390D02*
X99071133Y-62504247D01*
X99071133Y-62504247D02*
X99023514Y-62694723D01*
X99023514Y-62694723D02*
X98975895Y-62789961D01*
X98975895Y-62789961D02*
X98880657Y-62885200D01*
X98880657Y-62885200D02*
X98737800Y-62932819D01*
X98737800Y-62932819D02*
X98499705Y-62932819D01*
X100023514Y-62932819D02*
X99452086Y-62932819D01*
X99737800Y-62932819D02*
X99737800Y-61932819D01*
X99737800Y-61932819D02*
X99642562Y-62075676D01*
X99642562Y-62075676D02*
X99547324Y-62170914D01*
X99547324Y-62170914D02*
X99452086Y-62218533D01*
X106849895Y-65538819D02*
X106849895Y-64538819D01*
X107421323Y-65538819D02*
X106992752Y-64967390D01*
X107421323Y-64538819D02*
X106849895Y-65110247D01*
X126314081Y-148734356D02*
X126361701Y-148781975D01*
X126361701Y-148781975D02*
X126409320Y-148924832D01*
X126409320Y-148924832D02*
X126409320Y-149020070D01*
X126409320Y-149020070D02*
X126361701Y-149162927D01*
X126361701Y-149162927D02*
X126266462Y-149258165D01*
X126266462Y-149258165D02*
X126171224Y-149305784D01*
X126171224Y-149305784D02*
X125980748Y-149353403D01*
X125980748Y-149353403D02*
X125837891Y-149353403D01*
X125837891Y-149353403D02*
X125647415Y-149305784D01*
X125647415Y-149305784D02*
X125552177Y-149258165D01*
X125552177Y-149258165D02*
X125456939Y-149162927D01*
X125456939Y-149162927D02*
X125409320Y-149020070D01*
X125409320Y-149020070D02*
X125409320Y-148924832D01*
X125409320Y-148924832D02*
X125456939Y-148781975D01*
X125456939Y-148781975D02*
X125504558Y-148734356D01*
X125409320Y-148401022D02*
X125409320Y-147781975D01*
X125409320Y-147781975D02*
X125790272Y-148115308D01*
X125790272Y-148115308D02*
X125790272Y-147972451D01*
X125790272Y-147972451D02*
X125837891Y-147877213D01*
X125837891Y-147877213D02*
X125885510Y-147829594D01*
X125885510Y-147829594D02*
X125980748Y-147781975D01*
X125980748Y-147781975D02*
X126218843Y-147781975D01*
X126218843Y-147781975D02*
X126314081Y-147829594D01*
X126314081Y-147829594D02*
X126361701Y-147877213D01*
X126361701Y-147877213D02*
X126409320Y-147972451D01*
X126409320Y-147972451D02*
X126409320Y-148258165D01*
X126409320Y-148258165D02*
X126361701Y-148353403D01*
X126361701Y-148353403D02*
X126314081Y-148401022D01*
X125742653Y-146924832D02*
X126409320Y-146924832D01*
X125361701Y-147162927D02*
X126075986Y-147401022D01*
X126075986Y-147401022D02*
X126075986Y-146781975D01*
X136368558Y-148716237D02*
X136320939Y-148811475D01*
X136320939Y-148811475D02*
X136225701Y-148906713D01*
X136225701Y-148906713D02*
X136082843Y-149049570D01*
X136082843Y-149049570D02*
X136035224Y-149144808D01*
X136035224Y-149144808D02*
X136035224Y-149240046D01*
X136273320Y-149192427D02*
X136225701Y-149287665D01*
X136225701Y-149287665D02*
X136130462Y-149382903D01*
X136130462Y-149382903D02*
X135939986Y-149430522D01*
X135939986Y-149430522D02*
X135606653Y-149430522D01*
X135606653Y-149430522D02*
X135416177Y-149382903D01*
X135416177Y-149382903D02*
X135320939Y-149287665D01*
X135320939Y-149287665D02*
X135273320Y-149192427D01*
X135273320Y-149192427D02*
X135273320Y-149001951D01*
X135273320Y-149001951D02*
X135320939Y-148906713D01*
X135320939Y-148906713D02*
X135416177Y-148811475D01*
X135416177Y-148811475D02*
X135606653Y-148763856D01*
X135606653Y-148763856D02*
X135939986Y-148763856D01*
X135939986Y-148763856D02*
X136130462Y-148811475D01*
X136130462Y-148811475D02*
X136225701Y-148906713D01*
X136225701Y-148906713D02*
X136273320Y-149001951D01*
X136273320Y-149001951D02*
X136273320Y-149192427D01*
X135273320Y-148430522D02*
X135273320Y-147763856D01*
X135273320Y-147763856D02*
X136273320Y-148192427D01*
X177366819Y-69889666D02*
X176890628Y-70222999D01*
X177366819Y-70461094D02*
X176366819Y-70461094D01*
X176366819Y-70461094D02*
X176366819Y-70080142D01*
X176366819Y-70080142D02*
X176414438Y-69984904D01*
X176414438Y-69984904D02*
X176462057Y-69937285D01*
X176462057Y-69937285D02*
X176557295Y-69889666D01*
X176557295Y-69889666D02*
X176700152Y-69889666D01*
X176700152Y-69889666D02*
X176795390Y-69937285D01*
X176795390Y-69937285D02*
X176843009Y-69984904D01*
X176843009Y-69984904D02*
X176890628Y-70080142D01*
X176890628Y-70080142D02*
X176890628Y-70461094D01*
X176366819Y-68984904D02*
X176366819Y-69461094D01*
X176366819Y-69461094D02*
X176843009Y-69508713D01*
X176843009Y-69508713D02*
X176795390Y-69461094D01*
X176795390Y-69461094D02*
X176747771Y-69365856D01*
X176747771Y-69365856D02*
X176747771Y-69127761D01*
X176747771Y-69127761D02*
X176795390Y-69032523D01*
X176795390Y-69032523D02*
X176843009Y-68984904D01*
X176843009Y-68984904D02*
X176938247Y-68937285D01*
X176938247Y-68937285D02*
X177176342Y-68937285D01*
X177176342Y-68937285D02*
X177271580Y-68984904D01*
X177271580Y-68984904D02*
X177319200Y-69032523D01*
X177319200Y-69032523D02*
X177366819Y-69127761D01*
X177366819Y-69127761D02*
X177366819Y-69365856D01*
X177366819Y-69365856D02*
X177319200Y-69461094D01*
X177319200Y-69461094D02*
X177271580Y-69508713D01*
X163822142Y-134852580D02*
X163774523Y-134900200D01*
X163774523Y-134900200D02*
X163631666Y-134947819D01*
X163631666Y-134947819D02*
X163536428Y-134947819D01*
X163536428Y-134947819D02*
X163393571Y-134900200D01*
X163393571Y-134900200D02*
X163298333Y-134804961D01*
X163298333Y-134804961D02*
X163250714Y-134709723D01*
X163250714Y-134709723D02*
X163203095Y-134519247D01*
X163203095Y-134519247D02*
X163203095Y-134376390D01*
X163203095Y-134376390D02*
X163250714Y-134185914D01*
X163250714Y-134185914D02*
X163298333Y-134090676D01*
X163298333Y-134090676D02*
X163393571Y-133995438D01*
X163393571Y-133995438D02*
X163536428Y-133947819D01*
X163536428Y-133947819D02*
X163631666Y-133947819D01*
X163631666Y-133947819D02*
X163774523Y-133995438D01*
X163774523Y-133995438D02*
X163822142Y-134043057D01*
X164774523Y-134947819D02*
X164203095Y-134947819D01*
X164488809Y-134947819D02*
X164488809Y-133947819D01*
X164488809Y-133947819D02*
X164393571Y-134090676D01*
X164393571Y-134090676D02*
X164298333Y-134185914D01*
X164298333Y-134185914D02*
X164203095Y-134233533D01*
X165679285Y-133947819D02*
X165203095Y-133947819D01*
X165203095Y-133947819D02*
X165155476Y-134424009D01*
X165155476Y-134424009D02*
X165203095Y-134376390D01*
X165203095Y-134376390D02*
X165298333Y-134328771D01*
X165298333Y-134328771D02*
X165536428Y-134328771D01*
X165536428Y-134328771D02*
X165631666Y-134376390D01*
X165631666Y-134376390D02*
X165679285Y-134424009D01*
X165679285Y-134424009D02*
X165726904Y-134519247D01*
X165726904Y-134519247D02*
X165726904Y-134757342D01*
X165726904Y-134757342D02*
X165679285Y-134852580D01*
X165679285Y-134852580D02*
X165631666Y-134900200D01*
X165631666Y-134900200D02*
X165536428Y-134947819D01*
X165536428Y-134947819D02*
X165298333Y-134947819D01*
X165298333Y-134947819D02*
X165203095Y-134900200D01*
X165203095Y-134900200D02*
X165155476Y-134852580D01*
X134772143Y-107135819D02*
X134438810Y-106659628D01*
X134200715Y-107135819D02*
X134200715Y-106135819D01*
X134200715Y-106135819D02*
X134581667Y-106135819D01*
X134581667Y-106135819D02*
X134676905Y-106183438D01*
X134676905Y-106183438D02*
X134724524Y-106231057D01*
X134724524Y-106231057D02*
X134772143Y-106326295D01*
X134772143Y-106326295D02*
X134772143Y-106469152D01*
X134772143Y-106469152D02*
X134724524Y-106564390D01*
X134724524Y-106564390D02*
X134676905Y-106612009D01*
X134676905Y-106612009D02*
X134581667Y-106659628D01*
X134581667Y-106659628D02*
X134200715Y-106659628D01*
X135153096Y-106231057D02*
X135200715Y-106183438D01*
X135200715Y-106183438D02*
X135295953Y-106135819D01*
X135295953Y-106135819D02*
X135534048Y-106135819D01*
X135534048Y-106135819D02*
X135629286Y-106183438D01*
X135629286Y-106183438D02*
X135676905Y-106231057D01*
X135676905Y-106231057D02*
X135724524Y-106326295D01*
X135724524Y-106326295D02*
X135724524Y-106421533D01*
X135724524Y-106421533D02*
X135676905Y-106564390D01*
X135676905Y-106564390D02*
X135105477Y-107135819D01*
X135105477Y-107135819D02*
X135724524Y-107135819D01*
X136629286Y-106135819D02*
X136153096Y-106135819D01*
X136153096Y-106135819D02*
X136105477Y-106612009D01*
X136105477Y-106612009D02*
X136153096Y-106564390D01*
X136153096Y-106564390D02*
X136248334Y-106516771D01*
X136248334Y-106516771D02*
X136486429Y-106516771D01*
X136486429Y-106516771D02*
X136581667Y-106564390D01*
X136581667Y-106564390D02*
X136629286Y-106612009D01*
X136629286Y-106612009D02*
X136676905Y-106707247D01*
X136676905Y-106707247D02*
X136676905Y-106945342D01*
X136676905Y-106945342D02*
X136629286Y-107040580D01*
X136629286Y-107040580D02*
X136581667Y-107088200D01*
X136581667Y-107088200D02*
X136486429Y-107135819D01*
X136486429Y-107135819D02*
X136248334Y-107135819D01*
X136248334Y-107135819D02*
X136153096Y-107088200D01*
X136153096Y-107088200D02*
X136105477Y-107040580D01*
X86143180Y-72818666D02*
X85428895Y-72818666D01*
X85428895Y-72818666D02*
X85286038Y-72771047D01*
X85286038Y-72771047D02*
X85190800Y-72675809D01*
X85190800Y-72675809D02*
X85143180Y-72532952D01*
X85143180Y-72532952D02*
X85143180Y-72437714D01*
X86143180Y-73199619D02*
X86143180Y-73866285D01*
X86143180Y-73866285D02*
X85143180Y-73437714D01*
X143964819Y-38615857D02*
X143488628Y-38949190D01*
X143964819Y-39187285D02*
X142964819Y-39187285D01*
X142964819Y-39187285D02*
X142964819Y-38806333D01*
X142964819Y-38806333D02*
X143012438Y-38711095D01*
X143012438Y-38711095D02*
X143060057Y-38663476D01*
X143060057Y-38663476D02*
X143155295Y-38615857D01*
X143155295Y-38615857D02*
X143298152Y-38615857D01*
X143298152Y-38615857D02*
X143393390Y-38663476D01*
X143393390Y-38663476D02*
X143441009Y-38711095D01*
X143441009Y-38711095D02*
X143488628Y-38806333D01*
X143488628Y-38806333D02*
X143488628Y-39187285D01*
X143964819Y-37663476D02*
X143964819Y-38234904D01*
X143964819Y-37949190D02*
X142964819Y-37949190D01*
X142964819Y-37949190D02*
X143107676Y-38044428D01*
X143107676Y-38044428D02*
X143202914Y-38139666D01*
X143202914Y-38139666D02*
X143250533Y-38234904D01*
X143298152Y-36806333D02*
X143964819Y-36806333D01*
X142917200Y-37044428D02*
X143631485Y-37282523D01*
X143631485Y-37282523D02*
X143631485Y-36663476D01*
X176799933Y-139800757D02*
X176323742Y-140134090D01*
X176799933Y-140372185D02*
X175799933Y-140372185D01*
X175799933Y-140372185D02*
X175799933Y-139991233D01*
X175799933Y-139991233D02*
X175847552Y-139895995D01*
X175847552Y-139895995D02*
X175895171Y-139848376D01*
X175895171Y-139848376D02*
X175990409Y-139800757D01*
X175990409Y-139800757D02*
X176133266Y-139800757D01*
X176133266Y-139800757D02*
X176228504Y-139848376D01*
X176228504Y-139848376D02*
X176276123Y-139895995D01*
X176276123Y-139895995D02*
X176323742Y-139991233D01*
X176323742Y-139991233D02*
X176323742Y-140372185D01*
X176799933Y-138848376D02*
X176799933Y-139419804D01*
X176799933Y-139134090D02*
X175799933Y-139134090D01*
X175799933Y-139134090D02*
X175942790Y-139229328D01*
X175942790Y-139229328D02*
X176038028Y-139324566D01*
X176038028Y-139324566D02*
X176085647Y-139419804D01*
X175799933Y-138229328D02*
X175799933Y-138134090D01*
X175799933Y-138134090D02*
X175847552Y-138038852D01*
X175847552Y-138038852D02*
X175895171Y-137991233D01*
X175895171Y-137991233D02*
X175990409Y-137943614D01*
X175990409Y-137943614D02*
X176180885Y-137895995D01*
X176180885Y-137895995D02*
X176418980Y-137895995D01*
X176418980Y-137895995D02*
X176609456Y-137943614D01*
X176609456Y-137943614D02*
X176704694Y-137991233D01*
X176704694Y-137991233D02*
X176752314Y-138038852D01*
X176752314Y-138038852D02*
X176799933Y-138134090D01*
X176799933Y-138134090D02*
X176799933Y-138229328D01*
X176799933Y-138229328D02*
X176752314Y-138324566D01*
X176752314Y-138324566D02*
X176704694Y-138372185D01*
X176704694Y-138372185D02*
X176609456Y-138419804D01*
X176609456Y-138419804D02*
X176418980Y-138467423D01*
X176418980Y-138467423D02*
X176180885Y-138467423D01*
X176180885Y-138467423D02*
X175990409Y-138419804D01*
X175990409Y-138419804D02*
X175895171Y-138372185D01*
X175895171Y-138372185D02*
X175847552Y-138324566D01*
X175847552Y-138324566D02*
X175799933Y-138229328D01*
X132662819Y-38107857D02*
X132186628Y-38441190D01*
X132662819Y-38679285D02*
X131662819Y-38679285D01*
X131662819Y-38679285D02*
X131662819Y-38298333D01*
X131662819Y-38298333D02*
X131710438Y-38203095D01*
X131710438Y-38203095D02*
X131758057Y-38155476D01*
X131758057Y-38155476D02*
X131853295Y-38107857D01*
X131853295Y-38107857D02*
X131996152Y-38107857D01*
X131996152Y-38107857D02*
X132091390Y-38155476D01*
X132091390Y-38155476D02*
X132139009Y-38203095D01*
X132139009Y-38203095D02*
X132186628Y-38298333D01*
X132186628Y-38298333D02*
X132186628Y-38679285D01*
X132662819Y-37155476D02*
X132662819Y-37726904D01*
X132662819Y-37441190D02*
X131662819Y-37441190D01*
X131662819Y-37441190D02*
X131805676Y-37536428D01*
X131805676Y-37536428D02*
X131900914Y-37631666D01*
X131900914Y-37631666D02*
X131948533Y-37726904D01*
X131662819Y-36298333D02*
X131662819Y-36488809D01*
X131662819Y-36488809D02*
X131710438Y-36584047D01*
X131710438Y-36584047D02*
X131758057Y-36631666D01*
X131758057Y-36631666D02*
X131900914Y-36726904D01*
X131900914Y-36726904D02*
X132091390Y-36774523D01*
X132091390Y-36774523D02*
X132472342Y-36774523D01*
X132472342Y-36774523D02*
X132567580Y-36726904D01*
X132567580Y-36726904D02*
X132615200Y-36679285D01*
X132615200Y-36679285D02*
X132662819Y-36584047D01*
X132662819Y-36584047D02*
X132662819Y-36393571D01*
X132662819Y-36393571D02*
X132615200Y-36298333D01*
X132615200Y-36298333D02*
X132567580Y-36250714D01*
X132567580Y-36250714D02*
X132472342Y-36203095D01*
X132472342Y-36203095D02*
X132234247Y-36203095D01*
X132234247Y-36203095D02*
X132139009Y-36250714D01*
X132139009Y-36250714D02*
X132091390Y-36298333D01*
X132091390Y-36298333D02*
X132043771Y-36393571D01*
X132043771Y-36393571D02*
X132043771Y-36584047D01*
X132043771Y-36584047D02*
X132091390Y-36679285D01*
X132091390Y-36679285D02*
X132139009Y-36726904D01*
X132139009Y-36726904D02*
X132234247Y-36774523D01*
X112596705Y-57071419D02*
X112596705Y-56071419D01*
X112596705Y-56071419D02*
X112834800Y-56071419D01*
X112834800Y-56071419D02*
X112977657Y-56119038D01*
X112977657Y-56119038D02*
X113072895Y-56214276D01*
X113072895Y-56214276D02*
X113120514Y-56309514D01*
X113120514Y-56309514D02*
X113168133Y-56499990D01*
X113168133Y-56499990D02*
X113168133Y-56642847D01*
X113168133Y-56642847D02*
X113120514Y-56833323D01*
X113120514Y-56833323D02*
X113072895Y-56928561D01*
X113072895Y-56928561D02*
X112977657Y-57023800D01*
X112977657Y-57023800D02*
X112834800Y-57071419D01*
X112834800Y-57071419D02*
X112596705Y-57071419D01*
X113501467Y-56071419D02*
X114120514Y-56071419D01*
X114120514Y-56071419D02*
X113787181Y-56452371D01*
X113787181Y-56452371D02*
X113930038Y-56452371D01*
X113930038Y-56452371D02*
X114025276Y-56499990D01*
X114025276Y-56499990D02*
X114072895Y-56547609D01*
X114072895Y-56547609D02*
X114120514Y-56642847D01*
X114120514Y-56642847D02*
X114120514Y-56880942D01*
X114120514Y-56880942D02*
X114072895Y-56976180D01*
X114072895Y-56976180D02*
X114025276Y-57023800D01*
X114025276Y-57023800D02*
X113930038Y-57071419D01*
X113930038Y-57071419D02*
X113644324Y-57071419D01*
X113644324Y-57071419D02*
X113549086Y-57023800D01*
X113549086Y-57023800D02*
X113501467Y-56976180D01*
X121404095Y-59671419D02*
X121404095Y-58671419D01*
X121975523Y-59671419D02*
X121546952Y-59099990D01*
X121975523Y-58671419D02*
X121404095Y-59242847D01*
X169269580Y-139072857D02*
X169317200Y-139120476D01*
X169317200Y-139120476D02*
X169364819Y-139263333D01*
X169364819Y-139263333D02*
X169364819Y-139358571D01*
X169364819Y-139358571D02*
X169317200Y-139501428D01*
X169317200Y-139501428D02*
X169221961Y-139596666D01*
X169221961Y-139596666D02*
X169126723Y-139644285D01*
X169126723Y-139644285D02*
X168936247Y-139691904D01*
X168936247Y-139691904D02*
X168793390Y-139691904D01*
X168793390Y-139691904D02*
X168602914Y-139644285D01*
X168602914Y-139644285D02*
X168507676Y-139596666D01*
X168507676Y-139596666D02*
X168412438Y-139501428D01*
X168412438Y-139501428D02*
X168364819Y-139358571D01*
X168364819Y-139358571D02*
X168364819Y-139263333D01*
X168364819Y-139263333D02*
X168412438Y-139120476D01*
X168412438Y-139120476D02*
X168460057Y-139072857D01*
X169364819Y-138120476D02*
X169364819Y-138691904D01*
X169364819Y-138406190D02*
X168364819Y-138406190D01*
X168364819Y-138406190D02*
X168507676Y-138501428D01*
X168507676Y-138501428D02*
X168602914Y-138596666D01*
X168602914Y-138596666D02*
X168650533Y-138691904D01*
X168793390Y-137549047D02*
X168745771Y-137644285D01*
X168745771Y-137644285D02*
X168698152Y-137691904D01*
X168698152Y-137691904D02*
X168602914Y-137739523D01*
X168602914Y-137739523D02*
X168555295Y-137739523D01*
X168555295Y-137739523D02*
X168460057Y-137691904D01*
X168460057Y-137691904D02*
X168412438Y-137644285D01*
X168412438Y-137644285D02*
X168364819Y-137549047D01*
X168364819Y-137549047D02*
X168364819Y-137358571D01*
X168364819Y-137358571D02*
X168412438Y-137263333D01*
X168412438Y-137263333D02*
X168460057Y-137215714D01*
X168460057Y-137215714D02*
X168555295Y-137168095D01*
X168555295Y-137168095D02*
X168602914Y-137168095D01*
X168602914Y-137168095D02*
X168698152Y-137215714D01*
X168698152Y-137215714D02*
X168745771Y-137263333D01*
X168745771Y-137263333D02*
X168793390Y-137358571D01*
X168793390Y-137358571D02*
X168793390Y-137549047D01*
X168793390Y-137549047D02*
X168841009Y-137644285D01*
X168841009Y-137644285D02*
X168888628Y-137691904D01*
X168888628Y-137691904D02*
X168983866Y-137739523D01*
X168983866Y-137739523D02*
X169174342Y-137739523D01*
X169174342Y-137739523D02*
X169269580Y-137691904D01*
X169269580Y-137691904D02*
X169317200Y-137644285D01*
X169317200Y-137644285D02*
X169364819Y-137549047D01*
X169364819Y-137549047D02*
X169364819Y-137358571D01*
X169364819Y-137358571D02*
X169317200Y-137263333D01*
X169317200Y-137263333D02*
X169269580Y-137215714D01*
X169269580Y-137215714D02*
X169174342Y-137168095D01*
X169174342Y-137168095D02*
X168983866Y-137168095D01*
X168983866Y-137168095D02*
X168888628Y-137215714D01*
X168888628Y-137215714D02*
X168841009Y-137263333D01*
X168841009Y-137263333D02*
X168793390Y-137358571D01*
X181859894Y-130097957D02*
X181907514Y-130145576D01*
X181907514Y-130145576D02*
X181955133Y-130288433D01*
X181955133Y-130288433D02*
X181955133Y-130383671D01*
X181955133Y-130383671D02*
X181907514Y-130526528D01*
X181907514Y-130526528D02*
X181812275Y-130621766D01*
X181812275Y-130621766D02*
X181717037Y-130669385D01*
X181717037Y-130669385D02*
X181526561Y-130717004D01*
X181526561Y-130717004D02*
X181383704Y-130717004D01*
X181383704Y-130717004D02*
X181193228Y-130669385D01*
X181193228Y-130669385D02*
X181097990Y-130621766D01*
X181097990Y-130621766D02*
X181002752Y-130526528D01*
X181002752Y-130526528D02*
X180955133Y-130383671D01*
X180955133Y-130383671D02*
X180955133Y-130288433D01*
X180955133Y-130288433D02*
X181002752Y-130145576D01*
X181002752Y-130145576D02*
X181050371Y-130097957D01*
X181050371Y-129717004D02*
X181002752Y-129669385D01*
X181002752Y-129669385D02*
X180955133Y-129574147D01*
X180955133Y-129574147D02*
X180955133Y-129336052D01*
X180955133Y-129336052D02*
X181002752Y-129240814D01*
X181002752Y-129240814D02*
X181050371Y-129193195D01*
X181050371Y-129193195D02*
X181145609Y-129145576D01*
X181145609Y-129145576D02*
X181240847Y-129145576D01*
X181240847Y-129145576D02*
X181383704Y-129193195D01*
X181383704Y-129193195D02*
X181955133Y-129764623D01*
X181955133Y-129764623D02*
X181955133Y-129145576D01*
X181955133Y-128193195D02*
X181955133Y-128764623D01*
X181955133Y-128478909D02*
X180955133Y-128478909D01*
X180955133Y-128478909D02*
X181097990Y-128574147D01*
X181097990Y-128574147D02*
X181193228Y-128669385D01*
X181193228Y-128669385D02*
X181240847Y-128764623D01*
X110987680Y-147109304D02*
X111987680Y-147109304D01*
X110987680Y-147680732D02*
X111559109Y-147252161D01*
X111987680Y-147680732D02*
X111416252Y-147109304D01*
X111987680Y-148585494D02*
X111987680Y-148109304D01*
X111987680Y-148109304D02*
X111511490Y-148061685D01*
X111511490Y-148061685D02*
X111559109Y-148109304D01*
X111559109Y-148109304D02*
X111606728Y-148204542D01*
X111606728Y-148204542D02*
X111606728Y-148442637D01*
X111606728Y-148442637D02*
X111559109Y-148537875D01*
X111559109Y-148537875D02*
X111511490Y-148585494D01*
X111511490Y-148585494D02*
X111416252Y-148633113D01*
X111416252Y-148633113D02*
X111178157Y-148633113D01*
X111178157Y-148633113D02*
X111082919Y-148585494D01*
X111082919Y-148585494D02*
X111035300Y-148537875D01*
X111035300Y-148537875D02*
X110987680Y-148442637D01*
X110987680Y-148442637D02*
X110987680Y-148204542D01*
X110987680Y-148204542D02*
X111035300Y-148109304D01*
X111035300Y-148109304D02*
X111082919Y-148061685D01*
X186675733Y-87481580D02*
X186628114Y-87529200D01*
X186628114Y-87529200D02*
X186485257Y-87576819D01*
X186485257Y-87576819D02*
X186390019Y-87576819D01*
X186390019Y-87576819D02*
X186247162Y-87529200D01*
X186247162Y-87529200D02*
X186151924Y-87433961D01*
X186151924Y-87433961D02*
X186104305Y-87338723D01*
X186104305Y-87338723D02*
X186056686Y-87148247D01*
X186056686Y-87148247D02*
X186056686Y-87005390D01*
X186056686Y-87005390D02*
X186104305Y-86814914D01*
X186104305Y-86814914D02*
X186151924Y-86719676D01*
X186151924Y-86719676D02*
X186247162Y-86624438D01*
X186247162Y-86624438D02*
X186390019Y-86576819D01*
X186390019Y-86576819D02*
X186485257Y-86576819D01*
X186485257Y-86576819D02*
X186628114Y-86624438D01*
X186628114Y-86624438D02*
X186675733Y-86672057D01*
X187628114Y-87576819D02*
X187056686Y-87576819D01*
X187342400Y-87576819D02*
X187342400Y-86576819D01*
X187342400Y-86576819D02*
X187247162Y-86719676D01*
X187247162Y-86719676D02*
X187151924Y-86814914D01*
X187151924Y-86814914D02*
X187056686Y-86862533D01*
X149603619Y-49791857D02*
X149127428Y-50125190D01*
X149603619Y-50363285D02*
X148603619Y-50363285D01*
X148603619Y-50363285D02*
X148603619Y-49982333D01*
X148603619Y-49982333D02*
X148651238Y-49887095D01*
X148651238Y-49887095D02*
X148698857Y-49839476D01*
X148698857Y-49839476D02*
X148794095Y-49791857D01*
X148794095Y-49791857D02*
X148936952Y-49791857D01*
X148936952Y-49791857D02*
X149032190Y-49839476D01*
X149032190Y-49839476D02*
X149079809Y-49887095D01*
X149079809Y-49887095D02*
X149127428Y-49982333D01*
X149127428Y-49982333D02*
X149127428Y-50363285D01*
X148698857Y-49410904D02*
X148651238Y-49363285D01*
X148651238Y-49363285D02*
X148603619Y-49268047D01*
X148603619Y-49268047D02*
X148603619Y-49029952D01*
X148603619Y-49029952D02*
X148651238Y-48934714D01*
X148651238Y-48934714D02*
X148698857Y-48887095D01*
X148698857Y-48887095D02*
X148794095Y-48839476D01*
X148794095Y-48839476D02*
X148889333Y-48839476D01*
X148889333Y-48839476D02*
X149032190Y-48887095D01*
X149032190Y-48887095D02*
X149603619Y-49458523D01*
X149603619Y-49458523D02*
X149603619Y-48839476D01*
X148698857Y-48458523D02*
X148651238Y-48410904D01*
X148651238Y-48410904D02*
X148603619Y-48315666D01*
X148603619Y-48315666D02*
X148603619Y-48077571D01*
X148603619Y-48077571D02*
X148651238Y-47982333D01*
X148651238Y-47982333D02*
X148698857Y-47934714D01*
X148698857Y-47934714D02*
X148794095Y-47887095D01*
X148794095Y-47887095D02*
X148889333Y-47887095D01*
X148889333Y-47887095D02*
X149032190Y-47934714D01*
X149032190Y-47934714D02*
X149603619Y-48506142D01*
X149603619Y-48506142D02*
X149603619Y-47887095D01*
X110987680Y-72987704D02*
X111987680Y-72987704D01*
X110987680Y-73559132D02*
X111559109Y-73130561D01*
X111987680Y-73559132D02*
X111416252Y-72987704D01*
X110987680Y-74511513D02*
X110987680Y-73940085D01*
X110987680Y-74225799D02*
X111987680Y-74225799D01*
X111987680Y-74225799D02*
X111844823Y-74130561D01*
X111844823Y-74130561D02*
X111749585Y-74035323D01*
X111749585Y-74035323D02*
X111701966Y-73940085D01*
X155268819Y-44203857D02*
X154792628Y-44537190D01*
X155268819Y-44775285D02*
X154268819Y-44775285D01*
X154268819Y-44775285D02*
X154268819Y-44394333D01*
X154268819Y-44394333D02*
X154316438Y-44299095D01*
X154316438Y-44299095D02*
X154364057Y-44251476D01*
X154364057Y-44251476D02*
X154459295Y-44203857D01*
X154459295Y-44203857D02*
X154602152Y-44203857D01*
X154602152Y-44203857D02*
X154697390Y-44251476D01*
X154697390Y-44251476D02*
X154745009Y-44299095D01*
X154745009Y-44299095D02*
X154792628Y-44394333D01*
X154792628Y-44394333D02*
X154792628Y-44775285D01*
X155268819Y-43251476D02*
X155268819Y-43822904D01*
X155268819Y-43537190D02*
X154268819Y-43537190D01*
X154268819Y-43537190D02*
X154411676Y-43632428D01*
X154411676Y-43632428D02*
X154506914Y-43727666D01*
X154506914Y-43727666D02*
X154554533Y-43822904D01*
X154268819Y-42918142D02*
X154268819Y-42299095D01*
X154268819Y-42299095D02*
X154649771Y-42632428D01*
X154649771Y-42632428D02*
X154649771Y-42489571D01*
X154649771Y-42489571D02*
X154697390Y-42394333D01*
X154697390Y-42394333D02*
X154745009Y-42346714D01*
X154745009Y-42346714D02*
X154840247Y-42299095D01*
X154840247Y-42299095D02*
X155078342Y-42299095D01*
X155078342Y-42299095D02*
X155173580Y-42346714D01*
X155173580Y-42346714D02*
X155221200Y-42394333D01*
X155221200Y-42394333D02*
X155268819Y-42489571D01*
X155268819Y-42489571D02*
X155268819Y-42775285D01*
X155268819Y-42775285D02*
X155221200Y-42870523D01*
X155221200Y-42870523D02*
X155173580Y-42918142D01*
X190838980Y-96999794D02*
X190029457Y-96999794D01*
X190029457Y-96999794D02*
X189934219Y-97047413D01*
X189934219Y-97047413D02*
X189886600Y-97095032D01*
X189886600Y-97095032D02*
X189838980Y-97190270D01*
X189838980Y-97190270D02*
X189838980Y-97380746D01*
X189838980Y-97380746D02*
X189886600Y-97475984D01*
X189886600Y-97475984D02*
X189934219Y-97523603D01*
X189934219Y-97523603D02*
X190029457Y-97571222D01*
X190029457Y-97571222D02*
X190838980Y-97571222D01*
X189838980Y-98571222D02*
X189838980Y-97999794D01*
X189838980Y-98285508D02*
X190838980Y-98285508D01*
X190838980Y-98285508D02*
X190696123Y-98190270D01*
X190696123Y-98190270D02*
X190600885Y-98095032D01*
X190600885Y-98095032D02*
X190553266Y-97999794D01*
X126314081Y-130975856D02*
X126361701Y-131023475D01*
X126361701Y-131023475D02*
X126409320Y-131166332D01*
X126409320Y-131166332D02*
X126409320Y-131261570D01*
X126409320Y-131261570D02*
X126361701Y-131404427D01*
X126361701Y-131404427D02*
X126266462Y-131499665D01*
X126266462Y-131499665D02*
X126171224Y-131547284D01*
X126171224Y-131547284D02*
X125980748Y-131594903D01*
X125980748Y-131594903D02*
X125837891Y-131594903D01*
X125837891Y-131594903D02*
X125647415Y-131547284D01*
X125647415Y-131547284D02*
X125552177Y-131499665D01*
X125552177Y-131499665D02*
X125456939Y-131404427D01*
X125456939Y-131404427D02*
X125409320Y-131261570D01*
X125409320Y-131261570D02*
X125409320Y-131166332D01*
X125409320Y-131166332D02*
X125456939Y-131023475D01*
X125456939Y-131023475D02*
X125504558Y-130975856D01*
X125409320Y-130642522D02*
X125409320Y-130023475D01*
X125409320Y-130023475D02*
X125790272Y-130356808D01*
X125790272Y-130356808D02*
X125790272Y-130213951D01*
X125790272Y-130213951D02*
X125837891Y-130118713D01*
X125837891Y-130118713D02*
X125885510Y-130071094D01*
X125885510Y-130071094D02*
X125980748Y-130023475D01*
X125980748Y-130023475D02*
X126218843Y-130023475D01*
X126218843Y-130023475D02*
X126314081Y-130071094D01*
X126314081Y-130071094D02*
X126361701Y-130118713D01*
X126361701Y-130118713D02*
X126409320Y-130213951D01*
X126409320Y-130213951D02*
X126409320Y-130499665D01*
X126409320Y-130499665D02*
X126361701Y-130594903D01*
X126361701Y-130594903D02*
X126314081Y-130642522D01*
X125409320Y-129690141D02*
X125409320Y-129071094D01*
X125409320Y-129071094D02*
X125790272Y-129404427D01*
X125790272Y-129404427D02*
X125790272Y-129261570D01*
X125790272Y-129261570D02*
X125837891Y-129166332D01*
X125837891Y-129166332D02*
X125885510Y-129118713D01*
X125885510Y-129118713D02*
X125980748Y-129071094D01*
X125980748Y-129071094D02*
X126218843Y-129071094D01*
X126218843Y-129071094D02*
X126314081Y-129118713D01*
X126314081Y-129118713D02*
X126361701Y-129166332D01*
X126361701Y-129166332D02*
X126409320Y-129261570D01*
X126409320Y-129261570D02*
X126409320Y-129547284D01*
X126409320Y-129547284D02*
X126361701Y-129642522D01*
X126361701Y-129642522D02*
X126314081Y-129690141D01*
X141983619Y-49791857D02*
X141507428Y-50125190D01*
X141983619Y-50363285D02*
X140983619Y-50363285D01*
X140983619Y-50363285D02*
X140983619Y-49982333D01*
X140983619Y-49982333D02*
X141031238Y-49887095D01*
X141031238Y-49887095D02*
X141078857Y-49839476D01*
X141078857Y-49839476D02*
X141174095Y-49791857D01*
X141174095Y-49791857D02*
X141316952Y-49791857D01*
X141316952Y-49791857D02*
X141412190Y-49839476D01*
X141412190Y-49839476D02*
X141459809Y-49887095D01*
X141459809Y-49887095D02*
X141507428Y-49982333D01*
X141507428Y-49982333D02*
X141507428Y-50363285D01*
X141983619Y-48839476D02*
X141983619Y-49410904D01*
X141983619Y-49125190D02*
X140983619Y-49125190D01*
X140983619Y-49125190D02*
X141126476Y-49220428D01*
X141126476Y-49220428D02*
X141221714Y-49315666D01*
X141221714Y-49315666D02*
X141269333Y-49410904D01*
X141412190Y-48268047D02*
X141364571Y-48363285D01*
X141364571Y-48363285D02*
X141316952Y-48410904D01*
X141316952Y-48410904D02*
X141221714Y-48458523D01*
X141221714Y-48458523D02*
X141174095Y-48458523D01*
X141174095Y-48458523D02*
X141078857Y-48410904D01*
X141078857Y-48410904D02*
X141031238Y-48363285D01*
X141031238Y-48363285D02*
X140983619Y-48268047D01*
X140983619Y-48268047D02*
X140983619Y-48077571D01*
X140983619Y-48077571D02*
X141031238Y-47982333D01*
X141031238Y-47982333D02*
X141078857Y-47934714D01*
X141078857Y-47934714D02*
X141174095Y-47887095D01*
X141174095Y-47887095D02*
X141221714Y-47887095D01*
X141221714Y-47887095D02*
X141316952Y-47934714D01*
X141316952Y-47934714D02*
X141364571Y-47982333D01*
X141364571Y-47982333D02*
X141412190Y-48077571D01*
X141412190Y-48077571D02*
X141412190Y-48268047D01*
X141412190Y-48268047D02*
X141459809Y-48363285D01*
X141459809Y-48363285D02*
X141507428Y-48410904D01*
X141507428Y-48410904D02*
X141602666Y-48458523D01*
X141602666Y-48458523D02*
X141793142Y-48458523D01*
X141793142Y-48458523D02*
X141888380Y-48410904D01*
X141888380Y-48410904D02*
X141936000Y-48363285D01*
X141936000Y-48363285D02*
X141983619Y-48268047D01*
X141983619Y-48268047D02*
X141983619Y-48077571D01*
X141983619Y-48077571D02*
X141936000Y-47982333D01*
X141936000Y-47982333D02*
X141888380Y-47934714D01*
X141888380Y-47934714D02*
X141793142Y-47887095D01*
X141793142Y-47887095D02*
X141602666Y-47887095D01*
X141602666Y-47887095D02*
X141507428Y-47934714D01*
X141507428Y-47934714D02*
X141459809Y-47982333D01*
X141459809Y-47982333D02*
X141412190Y-48077571D01*
X185128819Y-133810333D02*
X185843104Y-133810333D01*
X185843104Y-133810333D02*
X185985961Y-133857952D01*
X185985961Y-133857952D02*
X186081200Y-133953190D01*
X186081200Y-133953190D02*
X186128819Y-134096047D01*
X186128819Y-134096047D02*
X186128819Y-134191285D01*
X185462152Y-132905571D02*
X186128819Y-132905571D01*
X185081200Y-133143666D02*
X185795485Y-133381761D01*
X185795485Y-133381761D02*
X185795485Y-132762714D01*
X130913320Y-111845593D02*
X129913320Y-111845593D01*
X129913320Y-111845593D02*
X129913320Y-111607498D01*
X129913320Y-111607498D02*
X129960939Y-111464641D01*
X129960939Y-111464641D02*
X130056177Y-111369403D01*
X130056177Y-111369403D02*
X130151415Y-111321784D01*
X130151415Y-111321784D02*
X130341891Y-111274165D01*
X130341891Y-111274165D02*
X130484748Y-111274165D01*
X130484748Y-111274165D02*
X130675224Y-111321784D01*
X130675224Y-111321784D02*
X130770462Y-111369403D01*
X130770462Y-111369403D02*
X130865701Y-111464641D01*
X130865701Y-111464641D02*
X130913320Y-111607498D01*
X130913320Y-111607498D02*
X130913320Y-111845593D01*
X129913320Y-110417022D02*
X129913320Y-110607498D01*
X129913320Y-110607498D02*
X129960939Y-110702736D01*
X129960939Y-110702736D02*
X130008558Y-110750355D01*
X130008558Y-110750355D02*
X130151415Y-110845593D01*
X130151415Y-110845593D02*
X130341891Y-110893212D01*
X130341891Y-110893212D02*
X130722843Y-110893212D01*
X130722843Y-110893212D02*
X130818081Y-110845593D01*
X130818081Y-110845593D02*
X130865701Y-110797974D01*
X130865701Y-110797974D02*
X130913320Y-110702736D01*
X130913320Y-110702736D02*
X130913320Y-110512260D01*
X130913320Y-110512260D02*
X130865701Y-110417022D01*
X130865701Y-110417022D02*
X130818081Y-110369403D01*
X130818081Y-110369403D02*
X130722843Y-110321784D01*
X130722843Y-110321784D02*
X130484748Y-110321784D01*
X130484748Y-110321784D02*
X130389510Y-110369403D01*
X130389510Y-110369403D02*
X130341891Y-110417022D01*
X130341891Y-110417022D02*
X130294272Y-110512260D01*
X130294272Y-110512260D02*
X130294272Y-110702736D01*
X130294272Y-110702736D02*
X130341891Y-110797974D01*
X130341891Y-110797974D02*
X130389510Y-110845593D01*
X130389510Y-110845593D02*
X130484748Y-110893212D01*
X130593320Y-107559403D02*
X129593320Y-107559403D01*
X130593320Y-106987975D02*
X130021891Y-107416546D01*
X129593320Y-106987975D02*
X130164748Y-107559403D01*
X170434095Y-62319819D02*
X170434095Y-63129342D01*
X170434095Y-63129342D02*
X170481714Y-63224580D01*
X170481714Y-63224580D02*
X170529333Y-63272200D01*
X170529333Y-63272200D02*
X170624571Y-63319819D01*
X170624571Y-63319819D02*
X170815047Y-63319819D01*
X170815047Y-63319819D02*
X170910285Y-63272200D01*
X170910285Y-63272200D02*
X170957904Y-63224580D01*
X170957904Y-63224580D02*
X171005523Y-63129342D01*
X171005523Y-63129342D02*
X171005523Y-62319819D01*
X171386476Y-62319819D02*
X172005523Y-62319819D01*
X172005523Y-62319819D02*
X171672190Y-62700771D01*
X171672190Y-62700771D02*
X171815047Y-62700771D01*
X171815047Y-62700771D02*
X171910285Y-62748390D01*
X171910285Y-62748390D02*
X171957904Y-62796009D01*
X171957904Y-62796009D02*
X172005523Y-62891247D01*
X172005523Y-62891247D02*
X172005523Y-63129342D01*
X172005523Y-63129342D02*
X171957904Y-63224580D01*
X171957904Y-63224580D02*
X171910285Y-63272200D01*
X171910285Y-63272200D02*
X171815047Y-63319819D01*
X171815047Y-63319819D02*
X171529333Y-63319819D01*
X171529333Y-63319819D02*
X171434095Y-63272200D01*
X171434095Y-63272200D02*
X171386476Y-63224580D01*
X110987680Y-128578904D02*
X111987680Y-128578904D01*
X110987680Y-129150332D02*
X111559109Y-128721761D01*
X111987680Y-129150332D02*
X111416252Y-128578904D01*
X111654347Y-130007475D02*
X110987680Y-130007475D01*
X112035300Y-129769380D02*
X111321014Y-129531285D01*
X111321014Y-129531285D02*
X111321014Y-130150332D01*
X186574133Y-85449580D02*
X186526514Y-85497200D01*
X186526514Y-85497200D02*
X186383657Y-85544819D01*
X186383657Y-85544819D02*
X186288419Y-85544819D01*
X186288419Y-85544819D02*
X186145562Y-85497200D01*
X186145562Y-85497200D02*
X186050324Y-85401961D01*
X186050324Y-85401961D02*
X186002705Y-85306723D01*
X186002705Y-85306723D02*
X185955086Y-85116247D01*
X185955086Y-85116247D02*
X185955086Y-84973390D01*
X185955086Y-84973390D02*
X186002705Y-84782914D01*
X186002705Y-84782914D02*
X186050324Y-84687676D01*
X186050324Y-84687676D02*
X186145562Y-84592438D01*
X186145562Y-84592438D02*
X186288419Y-84544819D01*
X186288419Y-84544819D02*
X186383657Y-84544819D01*
X186383657Y-84544819D02*
X186526514Y-84592438D01*
X186526514Y-84592438D02*
X186574133Y-84640057D01*
X186955086Y-84640057D02*
X187002705Y-84592438D01*
X187002705Y-84592438D02*
X187097943Y-84544819D01*
X187097943Y-84544819D02*
X187336038Y-84544819D01*
X187336038Y-84544819D02*
X187431276Y-84592438D01*
X187431276Y-84592438D02*
X187478895Y-84640057D01*
X187478895Y-84640057D02*
X187526514Y-84735295D01*
X187526514Y-84735295D02*
X187526514Y-84830533D01*
X187526514Y-84830533D02*
X187478895Y-84973390D01*
X187478895Y-84973390D02*
X186907467Y-85544819D01*
X186907467Y-85544819D02*
X187526514Y-85544819D01*
X151503142Y-46461819D02*
X151169809Y-45985628D01*
X150931714Y-46461819D02*
X150931714Y-45461819D01*
X150931714Y-45461819D02*
X151312666Y-45461819D01*
X151312666Y-45461819D02*
X151407904Y-45509438D01*
X151407904Y-45509438D02*
X151455523Y-45557057D01*
X151455523Y-45557057D02*
X151503142Y-45652295D01*
X151503142Y-45652295D02*
X151503142Y-45795152D01*
X151503142Y-45795152D02*
X151455523Y-45890390D01*
X151455523Y-45890390D02*
X151407904Y-45938009D01*
X151407904Y-45938009D02*
X151312666Y-45985628D01*
X151312666Y-45985628D02*
X150931714Y-45985628D01*
X151884095Y-45557057D02*
X151931714Y-45509438D01*
X151931714Y-45509438D02*
X152026952Y-45461819D01*
X152026952Y-45461819D02*
X152265047Y-45461819D01*
X152265047Y-45461819D02*
X152360285Y-45509438D01*
X152360285Y-45509438D02*
X152407904Y-45557057D01*
X152407904Y-45557057D02*
X152455523Y-45652295D01*
X152455523Y-45652295D02*
X152455523Y-45747533D01*
X152455523Y-45747533D02*
X152407904Y-45890390D01*
X152407904Y-45890390D02*
X151836476Y-46461819D01*
X151836476Y-46461819D02*
X152455523Y-46461819D01*
X153407904Y-46461819D02*
X152836476Y-46461819D01*
X153122190Y-46461819D02*
X153122190Y-45461819D01*
X153122190Y-45461819D02*
X153026952Y-45604676D01*
X153026952Y-45604676D02*
X152931714Y-45699914D01*
X152931714Y-45699914D02*
X152836476Y-45747533D01*
X171301580Y-137294857D02*
X171349200Y-137342476D01*
X171349200Y-137342476D02*
X171396819Y-137485333D01*
X171396819Y-137485333D02*
X171396819Y-137580571D01*
X171396819Y-137580571D02*
X171349200Y-137723428D01*
X171349200Y-137723428D02*
X171253961Y-137818666D01*
X171253961Y-137818666D02*
X171158723Y-137866285D01*
X171158723Y-137866285D02*
X170968247Y-137913904D01*
X170968247Y-137913904D02*
X170825390Y-137913904D01*
X170825390Y-137913904D02*
X170634914Y-137866285D01*
X170634914Y-137866285D02*
X170539676Y-137818666D01*
X170539676Y-137818666D02*
X170444438Y-137723428D01*
X170444438Y-137723428D02*
X170396819Y-137580571D01*
X170396819Y-137580571D02*
X170396819Y-137485333D01*
X170396819Y-137485333D02*
X170444438Y-137342476D01*
X170444438Y-137342476D02*
X170492057Y-137294857D01*
X171396819Y-136342476D02*
X171396819Y-136913904D01*
X171396819Y-136628190D02*
X170396819Y-136628190D01*
X170396819Y-136628190D02*
X170539676Y-136723428D01*
X170539676Y-136723428D02*
X170634914Y-136818666D01*
X170634914Y-136818666D02*
X170682533Y-136913904D01*
X170396819Y-136009142D02*
X170396819Y-135342476D01*
X170396819Y-135342476D02*
X171396819Y-135771047D01*
X136368558Y-111710737D02*
X136320939Y-111805975D01*
X136320939Y-111805975D02*
X136225701Y-111901213D01*
X136225701Y-111901213D02*
X136082843Y-112044070D01*
X136082843Y-112044070D02*
X136035224Y-112139308D01*
X136035224Y-112139308D02*
X136035224Y-112234546D01*
X136273320Y-112186927D02*
X136225701Y-112282165D01*
X136225701Y-112282165D02*
X136130462Y-112377403D01*
X136130462Y-112377403D02*
X135939986Y-112425022D01*
X135939986Y-112425022D02*
X135606653Y-112425022D01*
X135606653Y-112425022D02*
X135416177Y-112377403D01*
X135416177Y-112377403D02*
X135320939Y-112282165D01*
X135320939Y-112282165D02*
X135273320Y-112186927D01*
X135273320Y-112186927D02*
X135273320Y-111996451D01*
X135273320Y-111996451D02*
X135320939Y-111901213D01*
X135320939Y-111901213D02*
X135416177Y-111805975D01*
X135416177Y-111805975D02*
X135606653Y-111758356D01*
X135606653Y-111758356D02*
X135939986Y-111758356D01*
X135939986Y-111758356D02*
X136130462Y-111805975D01*
X136130462Y-111805975D02*
X136225701Y-111901213D01*
X136225701Y-111901213D02*
X136273320Y-111996451D01*
X136273320Y-111996451D02*
X136273320Y-112186927D01*
X135273320Y-110853594D02*
X135273320Y-111329784D01*
X135273320Y-111329784D02*
X135749510Y-111377403D01*
X135749510Y-111377403D02*
X135701891Y-111329784D01*
X135701891Y-111329784D02*
X135654272Y-111234546D01*
X135654272Y-111234546D02*
X135654272Y-110996451D01*
X135654272Y-110996451D02*
X135701891Y-110901213D01*
X135701891Y-110901213D02*
X135749510Y-110853594D01*
X135749510Y-110853594D02*
X135844748Y-110805975D01*
X135844748Y-110805975D02*
X136082843Y-110805975D01*
X136082843Y-110805975D02*
X136178081Y-110853594D01*
X136178081Y-110853594D02*
X136225701Y-110901213D01*
X136225701Y-110901213D02*
X136273320Y-110996451D01*
X136273320Y-110996451D02*
X136273320Y-111234546D01*
X136273320Y-111234546D02*
X136225701Y-111329784D01*
X136225701Y-111329784D02*
X136178081Y-111377403D01*
X183391980Y-77611266D02*
X183439600Y-77658885D01*
X183439600Y-77658885D02*
X183487219Y-77801742D01*
X183487219Y-77801742D02*
X183487219Y-77896980D01*
X183487219Y-77896980D02*
X183439600Y-78039837D01*
X183439600Y-78039837D02*
X183344361Y-78135075D01*
X183344361Y-78135075D02*
X183249123Y-78182694D01*
X183249123Y-78182694D02*
X183058647Y-78230313D01*
X183058647Y-78230313D02*
X182915790Y-78230313D01*
X182915790Y-78230313D02*
X182725314Y-78182694D01*
X182725314Y-78182694D02*
X182630076Y-78135075D01*
X182630076Y-78135075D02*
X182534838Y-78039837D01*
X182534838Y-78039837D02*
X182487219Y-77896980D01*
X182487219Y-77896980D02*
X182487219Y-77801742D01*
X182487219Y-77801742D02*
X182534838Y-77658885D01*
X182534838Y-77658885D02*
X182582457Y-77611266D01*
X182487219Y-77277932D02*
X182487219Y-76658885D01*
X182487219Y-76658885D02*
X182868171Y-76992218D01*
X182868171Y-76992218D02*
X182868171Y-76849361D01*
X182868171Y-76849361D02*
X182915790Y-76754123D01*
X182915790Y-76754123D02*
X182963409Y-76706504D01*
X182963409Y-76706504D02*
X183058647Y-76658885D01*
X183058647Y-76658885D02*
X183296742Y-76658885D01*
X183296742Y-76658885D02*
X183391980Y-76706504D01*
X183391980Y-76706504D02*
X183439600Y-76754123D01*
X183439600Y-76754123D02*
X183487219Y-76849361D01*
X183487219Y-76849361D02*
X183487219Y-77135075D01*
X183487219Y-77135075D02*
X183439600Y-77230313D01*
X183439600Y-77230313D02*
X183391980Y-77277932D01*
X169124333Y-136344819D02*
X168648143Y-136344819D01*
X168648143Y-136344819D02*
X168648143Y-135344819D01*
X169886238Y-135678152D02*
X169886238Y-136344819D01*
X169648143Y-135297200D02*
X169410048Y-136011485D01*
X169410048Y-136011485D02*
X170029095Y-136011485D01*
X176646819Y-62777666D02*
X176170628Y-63110999D01*
X176646819Y-63349094D02*
X175646819Y-63349094D01*
X175646819Y-63349094D02*
X175646819Y-62968142D01*
X175646819Y-62968142D02*
X175694438Y-62872904D01*
X175694438Y-62872904D02*
X175742057Y-62825285D01*
X175742057Y-62825285D02*
X175837295Y-62777666D01*
X175837295Y-62777666D02*
X175980152Y-62777666D01*
X175980152Y-62777666D02*
X176075390Y-62825285D01*
X176075390Y-62825285D02*
X176123009Y-62872904D01*
X176123009Y-62872904D02*
X176170628Y-62968142D01*
X176170628Y-62968142D02*
X176170628Y-63349094D01*
X175646819Y-62444332D02*
X175646819Y-61777666D01*
X175646819Y-61777666D02*
X176646819Y-62206237D01*
X126568081Y-111925856D02*
X126615701Y-111973475D01*
X126615701Y-111973475D02*
X126663320Y-112116332D01*
X126663320Y-112116332D02*
X126663320Y-112211570D01*
X126663320Y-112211570D02*
X126615701Y-112354427D01*
X126615701Y-112354427D02*
X126520462Y-112449665D01*
X126520462Y-112449665D02*
X126425224Y-112497284D01*
X126425224Y-112497284D02*
X126234748Y-112544903D01*
X126234748Y-112544903D02*
X126091891Y-112544903D01*
X126091891Y-112544903D02*
X125901415Y-112497284D01*
X125901415Y-112497284D02*
X125806177Y-112449665D01*
X125806177Y-112449665D02*
X125710939Y-112354427D01*
X125710939Y-112354427D02*
X125663320Y-112211570D01*
X125663320Y-112211570D02*
X125663320Y-112116332D01*
X125663320Y-112116332D02*
X125710939Y-111973475D01*
X125710939Y-111973475D02*
X125758558Y-111925856D01*
X125663320Y-111592522D02*
X125663320Y-110973475D01*
X125663320Y-110973475D02*
X126044272Y-111306808D01*
X126044272Y-111306808D02*
X126044272Y-111163951D01*
X126044272Y-111163951D02*
X126091891Y-111068713D01*
X126091891Y-111068713D02*
X126139510Y-111021094D01*
X126139510Y-111021094D02*
X126234748Y-110973475D01*
X126234748Y-110973475D02*
X126472843Y-110973475D01*
X126472843Y-110973475D02*
X126568081Y-111021094D01*
X126568081Y-111021094D02*
X126615701Y-111068713D01*
X126615701Y-111068713D02*
X126663320Y-111163951D01*
X126663320Y-111163951D02*
X126663320Y-111449665D01*
X126663320Y-111449665D02*
X126615701Y-111544903D01*
X126615701Y-111544903D02*
X126568081Y-111592522D01*
X125758558Y-110592522D02*
X125710939Y-110544903D01*
X125710939Y-110544903D02*
X125663320Y-110449665D01*
X125663320Y-110449665D02*
X125663320Y-110211570D01*
X125663320Y-110211570D02*
X125710939Y-110116332D01*
X125710939Y-110116332D02*
X125758558Y-110068713D01*
X125758558Y-110068713D02*
X125853796Y-110021094D01*
X125853796Y-110021094D02*
X125949034Y-110021094D01*
X125949034Y-110021094D02*
X126091891Y-110068713D01*
X126091891Y-110068713D02*
X126663320Y-110640141D01*
X126663320Y-110640141D02*
X126663320Y-110021094D01*
X162665580Y-128055666D02*
X162713200Y-128103285D01*
X162713200Y-128103285D02*
X162760819Y-128246142D01*
X162760819Y-128246142D02*
X162760819Y-128341380D01*
X162760819Y-128341380D02*
X162713200Y-128484237D01*
X162713200Y-128484237D02*
X162617961Y-128579475D01*
X162617961Y-128579475D02*
X162522723Y-128627094D01*
X162522723Y-128627094D02*
X162332247Y-128674713D01*
X162332247Y-128674713D02*
X162189390Y-128674713D01*
X162189390Y-128674713D02*
X161998914Y-128627094D01*
X161998914Y-128627094D02*
X161903676Y-128579475D01*
X161903676Y-128579475D02*
X161808438Y-128484237D01*
X161808438Y-128484237D02*
X161760819Y-128341380D01*
X161760819Y-128341380D02*
X161760819Y-128246142D01*
X161760819Y-128246142D02*
X161808438Y-128103285D01*
X161808438Y-128103285D02*
X161856057Y-128055666D01*
X161760819Y-127198523D02*
X161760819Y-127388999D01*
X161760819Y-127388999D02*
X161808438Y-127484237D01*
X161808438Y-127484237D02*
X161856057Y-127531856D01*
X161856057Y-127531856D02*
X161998914Y-127627094D01*
X161998914Y-127627094D02*
X162189390Y-127674713D01*
X162189390Y-127674713D02*
X162570342Y-127674713D01*
X162570342Y-127674713D02*
X162665580Y-127627094D01*
X162665580Y-127627094D02*
X162713200Y-127579475D01*
X162713200Y-127579475D02*
X162760819Y-127484237D01*
X162760819Y-127484237D02*
X162760819Y-127293761D01*
X162760819Y-127293761D02*
X162713200Y-127198523D01*
X162713200Y-127198523D02*
X162665580Y-127150904D01*
X162665580Y-127150904D02*
X162570342Y-127103285D01*
X162570342Y-127103285D02*
X162332247Y-127103285D01*
X162332247Y-127103285D02*
X162237009Y-127150904D01*
X162237009Y-127150904D02*
X162189390Y-127198523D01*
X162189390Y-127198523D02*
X162141771Y-127293761D01*
X162141771Y-127293761D02*
X162141771Y-127484237D01*
X162141771Y-127484237D02*
X162189390Y-127579475D01*
X162189390Y-127579475D02*
X162237009Y-127627094D01*
X162237009Y-127627094D02*
X162332247Y-127674713D01*
X86143180Y-109737566D02*
X85428895Y-109737566D01*
X85428895Y-109737566D02*
X85286038Y-109689947D01*
X85286038Y-109689947D02*
X85190800Y-109594709D01*
X85190800Y-109594709D02*
X85143180Y-109451852D01*
X85143180Y-109451852D02*
X85143180Y-109356614D01*
X85143180Y-110261376D02*
X85143180Y-110451852D01*
X85143180Y-110451852D02*
X85190800Y-110547090D01*
X85190800Y-110547090D02*
X85238419Y-110594709D01*
X85238419Y-110594709D02*
X85381276Y-110689947D01*
X85381276Y-110689947D02*
X85571752Y-110737566D01*
X85571752Y-110737566D02*
X85952704Y-110737566D01*
X85952704Y-110737566D02*
X86047942Y-110689947D01*
X86047942Y-110689947D02*
X86095561Y-110642328D01*
X86095561Y-110642328D02*
X86143180Y-110547090D01*
X86143180Y-110547090D02*
X86143180Y-110356614D01*
X86143180Y-110356614D02*
X86095561Y-110261376D01*
X86095561Y-110261376D02*
X86047942Y-110213757D01*
X86047942Y-110213757D02*
X85952704Y-110166138D01*
X85952704Y-110166138D02*
X85714609Y-110166138D01*
X85714609Y-110166138D02*
X85619371Y-110213757D01*
X85619371Y-110213757D02*
X85571752Y-110261376D01*
X85571752Y-110261376D02*
X85524133Y-110356614D01*
X85524133Y-110356614D02*
X85524133Y-110547090D01*
X85524133Y-110547090D02*
X85571752Y-110642328D01*
X85571752Y-110642328D02*
X85619371Y-110689947D01*
X85619371Y-110689947D02*
X85714609Y-110737566D01*
X130913320Y-131325093D02*
X129913320Y-131325093D01*
X129913320Y-131325093D02*
X129913320Y-131086998D01*
X129913320Y-131086998D02*
X129960939Y-130944141D01*
X129960939Y-130944141D02*
X130056177Y-130848903D01*
X130056177Y-130848903D02*
X130151415Y-130801284D01*
X130151415Y-130801284D02*
X130341891Y-130753665D01*
X130341891Y-130753665D02*
X130484748Y-130753665D01*
X130484748Y-130753665D02*
X130675224Y-130801284D01*
X130675224Y-130801284D02*
X130770462Y-130848903D01*
X130770462Y-130848903D02*
X130865701Y-130944141D01*
X130865701Y-130944141D02*
X130913320Y-131086998D01*
X130913320Y-131086998D02*
X130913320Y-131325093D01*
X129913320Y-130420331D02*
X129913320Y-129753665D01*
X129913320Y-129753665D02*
X130913320Y-130182236D01*
X130593320Y-127038903D02*
X129593320Y-127038903D01*
X130593320Y-126467475D02*
X130021891Y-126896046D01*
X129593320Y-126467475D02*
X130164748Y-127038903D01*
X143002095Y-40983819D02*
X143002095Y-41793342D01*
X143002095Y-41793342D02*
X143049714Y-41888580D01*
X143049714Y-41888580D02*
X143097333Y-41936200D01*
X143097333Y-41936200D02*
X143192571Y-41983819D01*
X143192571Y-41983819D02*
X143383047Y-41983819D01*
X143383047Y-41983819D02*
X143478285Y-41936200D01*
X143478285Y-41936200D02*
X143525904Y-41888580D01*
X143525904Y-41888580D02*
X143573523Y-41793342D01*
X143573523Y-41793342D02*
X143573523Y-40983819D01*
X144192571Y-41412390D02*
X144097333Y-41364771D01*
X144097333Y-41364771D02*
X144049714Y-41317152D01*
X144049714Y-41317152D02*
X144002095Y-41221914D01*
X144002095Y-41221914D02*
X144002095Y-41174295D01*
X144002095Y-41174295D02*
X144049714Y-41079057D01*
X144049714Y-41079057D02*
X144097333Y-41031438D01*
X144097333Y-41031438D02*
X144192571Y-40983819D01*
X144192571Y-40983819D02*
X144383047Y-40983819D01*
X144383047Y-40983819D02*
X144478285Y-41031438D01*
X144478285Y-41031438D02*
X144525904Y-41079057D01*
X144525904Y-41079057D02*
X144573523Y-41174295D01*
X144573523Y-41174295D02*
X144573523Y-41221914D01*
X144573523Y-41221914D02*
X144525904Y-41317152D01*
X144525904Y-41317152D02*
X144478285Y-41364771D01*
X144478285Y-41364771D02*
X144383047Y-41412390D01*
X144383047Y-41412390D02*
X144192571Y-41412390D01*
X144192571Y-41412390D02*
X144097333Y-41460009D01*
X144097333Y-41460009D02*
X144049714Y-41507628D01*
X144049714Y-41507628D02*
X144002095Y-41602866D01*
X144002095Y-41602866D02*
X144002095Y-41793342D01*
X144002095Y-41793342D02*
X144049714Y-41888580D01*
X144049714Y-41888580D02*
X144097333Y-41936200D01*
X144097333Y-41936200D02*
X144192571Y-41983819D01*
X144192571Y-41983819D02*
X144383047Y-41983819D01*
X144383047Y-41983819D02*
X144478285Y-41936200D01*
X144478285Y-41936200D02*
X144525904Y-41888580D01*
X144525904Y-41888580D02*
X144573523Y-41793342D01*
X144573523Y-41793342D02*
X144573523Y-41602866D01*
X144573523Y-41602866D02*
X144525904Y-41507628D01*
X144525904Y-41507628D02*
X144478285Y-41460009D01*
X144478285Y-41460009D02*
X144383047Y-41412390D01*
X178054095Y-132804819D02*
X178054095Y-133614342D01*
X178054095Y-133614342D02*
X178101714Y-133709580D01*
X178101714Y-133709580D02*
X178149333Y-133757200D01*
X178149333Y-133757200D02*
X178244571Y-133804819D01*
X178244571Y-133804819D02*
X178435047Y-133804819D01*
X178435047Y-133804819D02*
X178530285Y-133757200D01*
X178530285Y-133757200D02*
X178577904Y-133709580D01*
X178577904Y-133709580D02*
X178625523Y-133614342D01*
X178625523Y-133614342D02*
X178625523Y-132804819D01*
X179577904Y-132804819D02*
X179101714Y-132804819D01*
X179101714Y-132804819D02*
X179054095Y-133281009D01*
X179054095Y-133281009D02*
X179101714Y-133233390D01*
X179101714Y-133233390D02*
X179196952Y-133185771D01*
X179196952Y-133185771D02*
X179435047Y-133185771D01*
X179435047Y-133185771D02*
X179530285Y-133233390D01*
X179530285Y-133233390D02*
X179577904Y-133281009D01*
X179577904Y-133281009D02*
X179625523Y-133376247D01*
X179625523Y-133376247D02*
X179625523Y-133614342D01*
X179625523Y-133614342D02*
X179577904Y-133709580D01*
X179577904Y-133709580D02*
X179530285Y-133757200D01*
X179530285Y-133757200D02*
X179435047Y-133804819D01*
X179435047Y-133804819D02*
X179196952Y-133804819D01*
X179196952Y-133804819D02*
X179101714Y-133757200D01*
X179101714Y-133757200D02*
X179054095Y-133709580D01*
X176392819Y-40171666D02*
X175916628Y-40504999D01*
X176392819Y-40743094D02*
X175392819Y-40743094D01*
X175392819Y-40743094D02*
X175392819Y-40362142D01*
X175392819Y-40362142D02*
X175440438Y-40266904D01*
X175440438Y-40266904D02*
X175488057Y-40219285D01*
X175488057Y-40219285D02*
X175583295Y-40171666D01*
X175583295Y-40171666D02*
X175726152Y-40171666D01*
X175726152Y-40171666D02*
X175821390Y-40219285D01*
X175821390Y-40219285D02*
X175869009Y-40266904D01*
X175869009Y-40266904D02*
X175916628Y-40362142D01*
X175916628Y-40362142D02*
X175916628Y-40743094D01*
X175726152Y-39314523D02*
X176392819Y-39314523D01*
X175345200Y-39552618D02*
X176059485Y-39790713D01*
X176059485Y-39790713D02*
X176059485Y-39171666D01*
X181965094Y-139961857D02*
X182012714Y-140009476D01*
X182012714Y-140009476D02*
X182060333Y-140152333D01*
X182060333Y-140152333D02*
X182060333Y-140247571D01*
X182060333Y-140247571D02*
X182012714Y-140390428D01*
X182012714Y-140390428D02*
X181917475Y-140485666D01*
X181917475Y-140485666D02*
X181822237Y-140533285D01*
X181822237Y-140533285D02*
X181631761Y-140580904D01*
X181631761Y-140580904D02*
X181488904Y-140580904D01*
X181488904Y-140580904D02*
X181298428Y-140533285D01*
X181298428Y-140533285D02*
X181203190Y-140485666D01*
X181203190Y-140485666D02*
X181107952Y-140390428D01*
X181107952Y-140390428D02*
X181060333Y-140247571D01*
X181060333Y-140247571D02*
X181060333Y-140152333D01*
X181060333Y-140152333D02*
X181107952Y-140009476D01*
X181107952Y-140009476D02*
X181155571Y-139961857D01*
X181155571Y-139580904D02*
X181107952Y-139533285D01*
X181107952Y-139533285D02*
X181060333Y-139438047D01*
X181060333Y-139438047D02*
X181060333Y-139199952D01*
X181060333Y-139199952D02*
X181107952Y-139104714D01*
X181107952Y-139104714D02*
X181155571Y-139057095D01*
X181155571Y-139057095D02*
X181250809Y-139009476D01*
X181250809Y-139009476D02*
X181346047Y-139009476D01*
X181346047Y-139009476D02*
X181488904Y-139057095D01*
X181488904Y-139057095D02*
X182060333Y-139628523D01*
X182060333Y-139628523D02*
X182060333Y-139009476D01*
X181155571Y-138628523D02*
X181107952Y-138580904D01*
X181107952Y-138580904D02*
X181060333Y-138485666D01*
X181060333Y-138485666D02*
X181060333Y-138247571D01*
X181060333Y-138247571D02*
X181107952Y-138152333D01*
X181107952Y-138152333D02*
X181155571Y-138104714D01*
X181155571Y-138104714D02*
X181250809Y-138057095D01*
X181250809Y-138057095D02*
X181346047Y-138057095D01*
X181346047Y-138057095D02*
X181488904Y-138104714D01*
X181488904Y-138104714D02*
X182060333Y-138676142D01*
X182060333Y-138676142D02*
X182060333Y-138057095D01*
D12*
%TO.C,R26*%
X135187937Y-127154000D02*
X135642065Y-127154000D01*
X135187937Y-128624000D02*
X135642065Y-128624000D01*
%TO.C,C11*%
X164046114Y-133007935D02*
X164046114Y-132776265D01*
X164766114Y-133007935D02*
X164766114Y-132776265D01*
D13*
%TO.C,L7*%
X101447600Y-51879500D02*
X104747060Y-51879500D01*
X108714540Y-51879500D02*
X112014000Y-51879500D01*
X112014000Y-51879500D02*
X112014000Y-41135300D01*
X101447600Y-41135300D02*
X101447600Y-51879500D01*
X104747060Y-41135300D02*
X101447600Y-41135300D01*
X112014000Y-41135300D02*
X108714540Y-41135300D01*
D12*
%TO.C,L5*%
X174745314Y-134200500D02*
X174945714Y-134200500D01*
X174745314Y-134920500D02*
X174945714Y-134920500D01*
%TO.C,L1*%
X156708714Y-134696948D02*
X156708714Y-135219452D01*
X155288714Y-134696948D02*
X155288714Y-135219452D01*
%TO.C,Q4*%
X134978501Y-94264999D02*
X134978501Y-92589999D01*
X134978501Y-94264999D02*
X134978501Y-94914999D01*
X131858501Y-94264999D02*
X131858501Y-93614999D01*
X131858501Y-94264999D02*
X131858501Y-94914999D01*
%TO.C,R11*%
X152881064Y-37438000D02*
X152426936Y-37438000D01*
X152881064Y-35968000D02*
X152426936Y-35968000D01*
D13*
%TO.C,L8*%
X141643100Y-66040000D02*
X141643100Y-69339460D01*
X141643100Y-73306940D02*
X141643100Y-76606400D01*
X141643100Y-76606400D02*
X152387300Y-76606400D01*
X152387300Y-66040000D02*
X141643100Y-66040000D01*
X152387300Y-69339460D02*
X152387300Y-66040000D01*
X152387300Y-76606400D02*
X152387300Y-73306940D01*
D11*
%TO.C,D2*%
X116908200Y-41848800D02*
X118608200Y-41848800D01*
X118608200Y-40548800D02*
X116908200Y-40548800D01*
D14*
X115658200Y-41198800D02*
G75*
G03*
X115658200Y-41198800I-100000J0D01*
G01*
D12*
%TO.C,R27*%
X135187937Y-144680000D02*
X135642065Y-144680000D01*
X135187937Y-146150000D02*
X135642065Y-146150000D01*
%TO.C,R15*%
X148817000Y-37491936D02*
X148817000Y-37946064D01*
X147347000Y-37491936D02*
X147347000Y-37946064D01*
D13*
%TO.C,SW2*%
X169913300Y-105390259D02*
X169913300Y-104616941D01*
X169913300Y-103174800D02*
X165265100Y-103174800D01*
X165265100Y-106832400D02*
X169913300Y-106832400D01*
X165265100Y-104616941D02*
X165265100Y-105390259D01*
D12*
%TO.C,C7*%
X160534149Y-132600400D02*
X160302479Y-132600400D01*
X160534149Y-131880400D02*
X160302479Y-131880400D01*
D13*
%TO.C,U2*%
X168078000Y-42328000D02*
X172282000Y-42328000D01*
X172282000Y-37174000D02*
X168078000Y-37174000D01*
D11*
%TO.C,J6*%
X90677500Y-36195000D02*
X90677500Y-46355000D01*
X80427500Y-36195000D02*
X90677500Y-36195000D01*
X90677500Y-46355000D02*
X80427500Y-46355000D01*
X80427500Y-46355000D02*
X80427500Y-36195000D01*
D14*
X81058700Y-38658800D02*
G75*
G03*
X81058700Y-38658800I-100000J0D01*
G01*
D13*
%TO.C,K3*%
X119692499Y-101462599D02*
X119692499Y-102732599D01*
X120327499Y-102097599D02*
X119057499Y-102097599D01*
X122369499Y-102859599D02*
X100515501Y-102859599D01*
X122369499Y-118713599D02*
X122369499Y-102859599D01*
X122369499Y-118713599D02*
X100515501Y-118713599D01*
X100515501Y-118713599D02*
X100515501Y-102859599D01*
D12*
%TO.C,R20*%
X152146724Y-42051500D02*
X151637276Y-42051500D01*
X152146724Y-41006500D02*
X151637276Y-41006500D01*
%TO.C,J1*%
X179578000Y-112074000D02*
X189798000Y-112074000D01*
X179578000Y-112074000D02*
X179578000Y-109414000D01*
X189798000Y-112074000D02*
X189798000Y-109414000D01*
X176978000Y-110744000D02*
X176978000Y-109414000D01*
X176978000Y-109414000D02*
X178308000Y-109414000D01*
X179578000Y-109414000D02*
X189798000Y-109414000D01*
%TO.C,D8*%
X128338501Y-145342999D02*
X128338501Y-145992999D01*
X129458501Y-145992999D02*
X127218501Y-145992999D01*
X127218501Y-145992999D02*
X127218501Y-150232999D01*
X129458501Y-146592999D02*
X127218501Y-146592999D01*
X129458501Y-146712999D02*
X127218501Y-146712999D01*
X129458501Y-146832999D02*
X127218501Y-146832999D01*
X129458501Y-150232999D02*
X129458501Y-145992999D01*
X127218501Y-150232999D02*
X129458501Y-150232999D01*
X128338501Y-150882999D02*
X128338501Y-150232999D01*
D13*
%TO.C,J8*%
X90825000Y-86414199D02*
X80371000Y-86414199D01*
X80371000Y-86414199D02*
X80371000Y-96828199D01*
X90825000Y-96828199D02*
X90825000Y-86414199D01*
X80371000Y-96828199D02*
X90825000Y-96828199D01*
D12*
%TO.C,D5*%
X128338501Y-90986999D02*
X128338501Y-91636999D01*
X129458501Y-91636999D02*
X127218501Y-91636999D01*
X127218501Y-91636999D02*
X127218501Y-95876999D01*
X129458501Y-92236999D02*
X127218501Y-92236999D01*
X129458501Y-92356999D02*
X127218501Y-92356999D01*
X129458501Y-92476999D02*
X127218501Y-92476999D01*
X129458501Y-95876999D02*
X129458501Y-91636999D01*
X127218501Y-95876999D02*
X129458501Y-95876999D01*
X128338501Y-96526999D02*
X128338501Y-95876999D01*
%TO.C,R1*%
X188822064Y-83412000D02*
X188367936Y-83412000D01*
X188822064Y-81942000D02*
X188367936Y-81942000D01*
D13*
%TO.C,SW1*%
X188118059Y-75095100D02*
X187344741Y-75095100D01*
X185902600Y-75095100D02*
X185902600Y-79743300D01*
X189560200Y-79743300D02*
X189560200Y-75095100D01*
X187344741Y-79743300D02*
X188118059Y-79743300D01*
%TO.C,Q2*%
X161607500Y-40665400D02*
X159956500Y-40665400D01*
X161607500Y-41678860D02*
X161607500Y-40665400D01*
X159956500Y-41953139D02*
X159956500Y-42628861D01*
X161607500Y-43916600D02*
X161607500Y-42903140D01*
X159956500Y-43916600D02*
X161607500Y-43916600D01*
D12*
%TO.C,R9*%
X178662000Y-129287536D02*
X178662000Y-129741664D01*
X177192000Y-129287536D02*
X177192000Y-129741664D01*
D13*
%TO.C,U4*%
X162960814Y-134221600D02*
X162498854Y-134221600D01*
X159079374Y-134221600D02*
X158617414Y-134221600D01*
X158617414Y-134221600D02*
X158617414Y-134683560D01*
X162960814Y-134683560D02*
X162960814Y-134221600D01*
X158617414Y-138103040D02*
X158617414Y-138565000D01*
X162960814Y-138565000D02*
X162960814Y-138103040D01*
X162498854Y-138565000D02*
X162960814Y-138565000D01*
X158617414Y-138565000D02*
X159079374Y-138565000D01*
D12*
%TO.C,D4*%
X128338501Y-70920999D02*
X128338501Y-71570999D01*
X129458501Y-71570999D02*
X127218501Y-71570999D01*
X127218501Y-71570999D02*
X127218501Y-75810999D01*
X129458501Y-72170999D02*
X127218501Y-72170999D01*
X129458501Y-72290999D02*
X127218501Y-72290999D01*
X129458501Y-72410999D02*
X127218501Y-72410999D01*
X129458501Y-75810999D02*
X129458501Y-71570999D01*
X127218501Y-75810999D02*
X129458501Y-75810999D01*
X128338501Y-76460999D02*
X128338501Y-75810999D01*
%TO.C,U7*%
X125864000Y-55882000D02*
X126814000Y-55882000D01*
X126814000Y-55882000D02*
X126814000Y-61007000D01*
X135314000Y-55882000D02*
X135314000Y-56982000D01*
X136264000Y-55882000D02*
X135314000Y-55882000D01*
X125864000Y-54382000D02*
X125864000Y-55882000D01*
X136264000Y-54382000D02*
X136264000Y-55882000D01*
%TO.C,C12*%
X165087514Y-133016635D02*
X165087514Y-132784965D01*
X165807514Y-133016635D02*
X165807514Y-132784965D01*
D11*
%TO.C,C29*%
X138187400Y-64260000D02*
X139367400Y-64260000D01*
X141607400Y-64260000D02*
X142787400Y-64260000D01*
X142787400Y-64260000D02*
X143787400Y-63260000D01*
X137187400Y-63260000D02*
X138187400Y-64260000D01*
X143787400Y-63260000D02*
X143787400Y-57660000D01*
X137187400Y-57660000D02*
X137187400Y-63260000D01*
X139367400Y-57660000D02*
X137187400Y-57660000D01*
X143787400Y-57660000D02*
X141607400Y-57660000D01*
D14*
X139237400Y-65110000D02*
G75*
G03*
X139237400Y-65110000I-100000J0D01*
G01*
D12*
%TO.C,C10*%
X158035114Y-137356965D02*
X158035114Y-137588635D01*
X157315114Y-137356965D02*
X157315114Y-137588635D01*
%TO.C,C23*%
X181545229Y-134835500D02*
X181776899Y-134835500D01*
X181545229Y-135555500D02*
X181776899Y-135555500D01*
%TO.C,C24*%
X182977464Y-135870135D02*
X182977464Y-135638465D01*
X183697464Y-135870135D02*
X183697464Y-135638465D01*
%TO.C,L3*%
X163792114Y-136430000D02*
X163792114Y-136229600D01*
X164512114Y-136430000D02*
X164512114Y-136229600D01*
%TO.C,R3*%
X177573000Y-32731064D02*
X177573000Y-32276936D01*
X179043000Y-32731064D02*
X179043000Y-32276936D01*
%TO.C,R8*%
X160276093Y-132901800D02*
X160611335Y-132901800D01*
X160276093Y-133661800D02*
X160611335Y-133661800D01*
D13*
%TO.C,K2*%
X119692499Y-82932199D02*
X119692499Y-84202199D01*
X120327499Y-83567199D02*
X119057499Y-83567199D01*
X122369499Y-84329199D02*
X100515501Y-84329199D01*
X122369499Y-100183199D02*
X122369499Y-84329199D01*
X122369499Y-100183199D02*
X100515501Y-100183199D01*
X100515501Y-100183199D02*
X100515501Y-84329199D01*
D12*
%TO.C,R12*%
X157252936Y-45874000D02*
X157707064Y-45874000D01*
X157252936Y-47344000D02*
X157707064Y-47344000D01*
D11*
%TO.C,C26*%
X88847200Y-64834800D02*
X88847200Y-63654800D01*
X88847200Y-61414800D02*
X88847200Y-60234800D01*
X88847200Y-60234800D02*
X87847200Y-59234800D01*
X87847200Y-65834800D02*
X88847200Y-64834800D01*
X87847200Y-59234800D02*
X82247200Y-59234800D01*
X82247200Y-65834800D02*
X87847200Y-65834800D01*
X82247200Y-63654800D02*
X82247200Y-65834800D01*
X82247200Y-59234800D02*
X82247200Y-61414800D01*
D14*
X89797200Y-63884800D02*
G75*
G03*
X89797200Y-63884800I-100000J0D01*
G01*
D12*
%TO.C,C4*%
X185046252Y-83412000D02*
X184523748Y-83412000D01*
X185046252Y-81942000D02*
X184523748Y-81942000D01*
%TO.C,U6*%
X94711000Y-58413000D02*
X94711000Y-57463000D01*
X94711000Y-57463000D02*
X99836000Y-57463000D01*
X94711000Y-48963000D02*
X95811000Y-48963000D01*
X94711000Y-48013000D02*
X94711000Y-48963000D01*
X93211000Y-58413000D02*
X94711000Y-58413000D01*
X93211000Y-48013000D02*
X94711000Y-48013000D01*
%TO.C,R17*%
X134593000Y-41301936D02*
X134593000Y-41756064D01*
X133123000Y-41301936D02*
X133123000Y-41756064D01*
%TO.C,C20*%
X176263514Y-134041335D02*
X176263514Y-133809665D01*
X176983514Y-134041335D02*
X176983514Y-133809665D01*
%TO.C,L2*%
X166128914Y-134118600D02*
X166128914Y-133918200D01*
X166848914Y-134118600D02*
X166848914Y-133918200D01*
D11*
%TO.C,C28*%
X118908800Y-50290000D02*
X120088800Y-50290000D01*
X122328800Y-50290000D02*
X123508800Y-50290000D01*
X123508800Y-50290000D02*
X124508800Y-49290000D01*
X117908800Y-49290000D02*
X118908800Y-50290000D01*
X124508800Y-49290000D02*
X124508800Y-43690000D01*
X117908800Y-43690000D02*
X117908800Y-49290000D01*
X120088800Y-43690000D02*
X117908800Y-43690000D01*
X124508800Y-43690000D02*
X122328800Y-43690000D01*
D14*
X119958800Y-51140000D02*
G75*
G03*
X119958800Y-51140000I-100000J0D01*
G01*
D12*
%TO.C,R2*%
X178589000Y-47852064D02*
X178589000Y-47397936D01*
X180059000Y-47852064D02*
X180059000Y-47397936D01*
%TO.C,C9*%
X162903114Y-132153035D02*
X162903114Y-131921365D01*
X163623114Y-132153035D02*
X163623114Y-131921365D01*
%TO.C,C16*%
X169141679Y-133057500D02*
X169373349Y-133057500D01*
X169141679Y-133777500D02*
X169373349Y-133777500D01*
%TO.C,C30*%
X125009501Y-73429747D02*
X125009501Y-73952251D01*
X123539501Y-73429747D02*
X123539501Y-73952251D01*
D13*
%TO.C,J10*%
X90825000Y-123474999D02*
X80371000Y-123474999D01*
X80371000Y-123474999D02*
X80371000Y-133888999D01*
X90825000Y-133888999D02*
X90825000Y-123474999D01*
X80371000Y-133888999D02*
X90825000Y-133888999D01*
D11*
%TO.C,J2*%
X181356500Y-47371000D02*
X181356500Y-32131000D01*
X191606500Y-47371000D02*
X181356500Y-47371000D01*
X181356500Y-32131000D02*
X191606500Y-32131000D01*
X191606500Y-32131000D02*
X191606500Y-47371000D01*
D14*
X190718100Y-44831000D02*
G75*
G03*
X190718100Y-44831000I-100000J0D01*
G01*
D12*
%TO.C,C31*%
X125263501Y-93495747D02*
X125263501Y-94018251D01*
X123793501Y-93495747D02*
X123793501Y-94018251D01*
%TO.C,FB1*%
X163207914Y-129888500D02*
X163207914Y-129688100D01*
X163927914Y-129888500D02*
X163927914Y-129688100D01*
%TO.C,R24*%
X135187937Y-90324000D02*
X135642065Y-90324000D01*
X135187937Y-91794000D02*
X135642065Y-91794000D01*
%TO.C,Q6*%
X134978501Y-131094999D02*
X134978501Y-129419999D01*
X134978501Y-131094999D02*
X134978501Y-131744999D01*
X131858501Y-131094999D02*
X131858501Y-130444999D01*
X131858501Y-131094999D02*
X131858501Y-131744999D01*
%TO.C,R23*%
X135642065Y-71728000D02*
X135187937Y-71728000D01*
X135642065Y-70258000D02*
X135187937Y-70258000D01*
D13*
%TO.C,J11*%
X90825000Y-142005399D02*
X80371000Y-142005399D01*
X80371000Y-142005399D02*
X80371000Y-152419399D01*
X90825000Y-152419399D02*
X90825000Y-142005399D01*
X80371000Y-152419399D02*
X90825000Y-152419399D01*
%TO.C,Q1*%
X162369500Y-45237400D02*
X160718500Y-45237400D01*
X162369500Y-46250860D02*
X162369500Y-45237400D01*
X160718500Y-46525139D02*
X160718500Y-47200861D01*
X162369500Y-48488600D02*
X162369500Y-47475140D01*
X160718500Y-48488600D02*
X162369500Y-48488600D01*
D11*
%TO.C,C27*%
X98651600Y-44921200D02*
X98651600Y-43741200D01*
X98651600Y-41501200D02*
X98651600Y-40321200D01*
X98651600Y-40321200D02*
X97651600Y-39321200D01*
X97651600Y-45921200D02*
X98651600Y-44921200D01*
X97651600Y-39321200D02*
X92051600Y-39321200D01*
X92051600Y-45921200D02*
X97651600Y-45921200D01*
X92051600Y-43741200D02*
X92051600Y-45921200D01*
X92051600Y-39321200D02*
X92051600Y-41501200D01*
D14*
X99601600Y-43971200D02*
G75*
G03*
X99601600Y-43971200I-100000J0D01*
G01*
D11*
%TO.C,J3*%
X181340000Y-70485000D02*
X181340000Y-55245000D01*
X191590000Y-70485000D02*
X181340000Y-70485000D01*
X181340000Y-55245000D02*
X191590000Y-55245000D01*
X191590000Y-55245000D02*
X191590000Y-70485000D01*
D14*
X190803200Y-67919600D02*
G75*
G03*
X190803200Y-67919600I-100000J0D01*
G01*
D12*
%TO.C,R19*%
X144257500Y-49403724D02*
X144257500Y-48894276D01*
X145302500Y-49403724D02*
X145302500Y-48894276D01*
%TO.C,C8*%
X157857314Y-134461365D02*
X157857314Y-134693035D01*
X157137314Y-134461365D02*
X157137314Y-134693035D01*
%TO.C,L6*%
X184913664Y-134835500D02*
X185114064Y-134835500D01*
X184913664Y-135555500D02*
X185114064Y-135555500D01*
%TO.C,R6*%
X177827000Y-55726064D02*
X177827000Y-55271936D01*
X179297000Y-55726064D02*
X179297000Y-55271936D01*
D14*
%TO.C,J5*%
X151284000Y-32622000D02*
X151284000Y-31372000D01*
X151284000Y-28652000D02*
X151284000Y-27372000D01*
X142344000Y-32622000D02*
X142344000Y-31372000D01*
X142344000Y-27372000D02*
X142344000Y-28652000D01*
X150164000Y-35972000D02*
G75*
G03*
X150164000Y-35972000I-100000J0D01*
G01*
D12*
%TO.C,C25*%
X186330264Y-135870135D02*
X186330264Y-135638465D01*
X187050264Y-135870135D02*
X187050264Y-135638465D01*
%TO.C,C14*%
X165695979Y-136554000D02*
X165927649Y-136554000D01*
X165695979Y-137274000D02*
X165927649Y-137274000D01*
%TO.C,C13*%
X167170314Y-134117535D02*
X167170314Y-133885865D01*
X167890314Y-134117535D02*
X167890314Y-133885865D01*
%TO.C,Q3*%
X134978501Y-74198999D02*
X134978501Y-72523999D01*
X134978501Y-74198999D02*
X134978501Y-74848999D01*
X131858501Y-74198999D02*
X131858501Y-73548999D01*
X131858501Y-74198999D02*
X131858501Y-74848999D01*
%TO.C,C19*%
X172443679Y-134200500D02*
X172675349Y-134200500D01*
X172443679Y-134920500D02*
X172675349Y-134920500D01*
D11*
%TO.C,Y1*%
X161265914Y-129911200D02*
X161265914Y-130353200D01*
X159265914Y-129911200D02*
X159265914Y-130353200D01*
D14*
X159496914Y-128232200D02*
G75*
G03*
X159496914Y-128232200I-100000J0D01*
G01*
D12*
%TO.C,D1*%
X105271800Y-62484000D02*
X104361800Y-62484000D01*
X104361800Y-65204000D02*
X104361800Y-59764000D01*
X104361800Y-59764000D02*
X94621800Y-59764000D01*
X102936800Y-65204000D02*
X102936800Y-59764000D01*
X102816800Y-65204000D02*
X102816800Y-59764000D01*
X102696800Y-65204000D02*
X102696800Y-59764000D01*
X94621800Y-65204000D02*
X104361800Y-65204000D01*
X94621800Y-59764000D02*
X94621800Y-65204000D01*
X93711800Y-62484000D02*
X94621800Y-62484000D01*
%TO.C,C34*%
X125009501Y-147830247D02*
X125009501Y-148352751D01*
X123539501Y-147830247D02*
X123539501Y-148352751D01*
%TO.C,Q7*%
X134978501Y-148620999D02*
X134978501Y-146945999D01*
X134978501Y-148620999D02*
X134978501Y-149270999D01*
X131858501Y-148620999D02*
X131858501Y-147970999D01*
X131858501Y-148620999D02*
X131858501Y-149270999D01*
%TO.C,R5*%
X177827000Y-69950064D02*
X177827000Y-69495936D01*
X179297000Y-69950064D02*
X179297000Y-69495936D01*
%TO.C,C15*%
X165814279Y-135334800D02*
X166045949Y-135334800D01*
X165814279Y-136054800D02*
X166045949Y-136054800D01*
%TO.C,R25*%
X135187937Y-107596000D02*
X135642065Y-107596000D01*
X135187937Y-109066000D02*
X135642065Y-109066000D01*
D13*
%TO.C,J7*%
X90825000Y-67945000D02*
X80371000Y-67945000D01*
X80371000Y-67945000D02*
X80371000Y-78359000D01*
X90825000Y-78359000D02*
X90825000Y-67945000D01*
X80371000Y-78359000D02*
X90825000Y-78359000D01*
D12*
%TO.C,R14*%
X145769000Y-38507936D02*
X145769000Y-38962064D01*
X144299000Y-38507936D02*
X144299000Y-38962064D01*
%TO.C,R10*%
X177260114Y-139384964D02*
X177260114Y-138930836D01*
X178730114Y-139384964D02*
X178730114Y-138930836D01*
%TO.C,R16*%
X133123000Y-37692064D02*
X133123000Y-37237936D01*
X134593000Y-37692064D02*
X134593000Y-37237936D01*
%TO.C,D3*%
X119826000Y-56616600D02*
X118916000Y-56616600D01*
X118916000Y-59336600D02*
X118916000Y-53896600D01*
X118916000Y-53896600D02*
X109176000Y-53896600D01*
X117491000Y-59336600D02*
X117491000Y-53896600D01*
X117371000Y-59336600D02*
X117371000Y-53896600D01*
X117251000Y-59336600D02*
X117251000Y-53896600D01*
X109176000Y-59336600D02*
X118916000Y-59336600D01*
X109176000Y-53896600D02*
X109176000Y-59336600D01*
X108266000Y-56616600D02*
X109176000Y-56616600D01*
%TO.C,C18*%
X167221114Y-136369435D02*
X167221114Y-136137765D01*
X167941114Y-136369435D02*
X167941114Y-136137765D01*
%TO.C,C21*%
X179139714Y-129716352D02*
X179139714Y-129193848D01*
X180609714Y-129716352D02*
X180609714Y-129193848D01*
D13*
%TO.C,K5*%
X119692499Y-138523399D02*
X119692499Y-139793399D01*
X120327499Y-139158399D02*
X119057499Y-139158399D01*
X122369499Y-139920399D02*
X100515501Y-139920399D01*
X122369499Y-155774399D02*
X122369499Y-139920399D01*
X122369499Y-155774399D02*
X100515501Y-155774399D01*
X100515501Y-155774399D02*
X100515501Y-139920399D01*
D12*
%TO.C,C1*%
X189328248Y-86387000D02*
X189850752Y-86387000D01*
X189328248Y-87857000D02*
X189850752Y-87857000D01*
%TO.C,R22*%
X147305500Y-49403724D02*
X147305500Y-48894276D01*
X148350500Y-49403724D02*
X148350500Y-48894276D01*
D13*
%TO.C,K1*%
X119692499Y-64401799D02*
X119692499Y-65671799D01*
X120327499Y-65036799D02*
X119057499Y-65036799D01*
X122369499Y-65798799D02*
X100515501Y-65798799D01*
X122369499Y-81652799D02*
X122369499Y-65798799D01*
X122369499Y-81652799D02*
X100515501Y-81652799D01*
X100515501Y-81652799D02*
X100515501Y-65798799D01*
D12*
%TO.C,R13*%
X155729000Y-43788064D02*
X155729000Y-43333936D01*
X157199000Y-43788064D02*
X157199000Y-43333936D01*
D13*
%TO.C,U1*%
X198599600Y-88376399D02*
X194727039Y-88376399D01*
X176716561Y-88376399D02*
X172844000Y-88376399D01*
X172844000Y-88376399D02*
X172844000Y-89770981D01*
X172844000Y-105244417D02*
X172844000Y-106638999D01*
X198599600Y-106638999D02*
X198599600Y-88376399D01*
X194727039Y-106638999D02*
X198599600Y-106638999D01*
X172844000Y-106638999D02*
X176716561Y-106638999D01*
G36*
X182737300Y-88253699D02*
G01*
X182356300Y-88253699D01*
X182356300Y-87999699D01*
X182737300Y-87999699D01*
X182737300Y-88253699D01*
G37*
G36*
X198979800Y-93253199D02*
G01*
X198725800Y-93253199D01*
X198725800Y-92872199D01*
X198979800Y-92872199D01*
X198979800Y-93253199D01*
G37*
G36*
X172717800Y-97063199D02*
G01*
X172463800Y-97063199D01*
X172463800Y-96682199D01*
X172717800Y-96682199D01*
X172717800Y-97063199D01*
G37*
G36*
X194167300Y-107015699D02*
G01*
X193786300Y-107015699D01*
X193786300Y-106761699D01*
X194167300Y-106761699D01*
X194167300Y-107015699D01*
G37*
G36*
X181467300Y-107015699D02*
G01*
X181086300Y-107015699D01*
X181086300Y-106761699D01*
X181467300Y-106761699D01*
X181467300Y-107015699D01*
G37*
D12*
%TO.C,C33*%
X125009501Y-130071747D02*
X125009501Y-130594251D01*
X123539501Y-130071747D02*
X123539501Y-130594251D01*
%TO.C,R18*%
X142225500Y-49403724D02*
X142225500Y-48894276D01*
X143270500Y-49403724D02*
X143270500Y-48894276D01*
%TO.C,J4*%
X188045314Y-137136800D02*
X188045314Y-136026800D01*
X191755314Y-137136800D02*
X191755314Y-136026800D01*
X188045314Y-134346800D02*
X188045314Y-133236800D01*
X191755314Y-134346800D02*
X191755314Y-133236800D01*
%TO.C,D6*%
X128338501Y-108337499D02*
X128338501Y-108987499D01*
X129458501Y-108987499D02*
X127218501Y-108987499D01*
X127218501Y-108987499D02*
X127218501Y-113227499D01*
X129458501Y-109587499D02*
X127218501Y-109587499D01*
X129458501Y-109707499D02*
X127218501Y-109707499D01*
X129458501Y-109827499D02*
X127218501Y-109827499D01*
X129458501Y-113227499D02*
X129458501Y-108987499D01*
X127218501Y-113227499D02*
X129458501Y-113227499D01*
X128338501Y-113877499D02*
X128338501Y-113227499D01*
D13*
%TO.C,U3*%
X169094000Y-65442000D02*
X173298000Y-65442000D01*
X173298000Y-60288000D02*
X169094000Y-60288000D01*
%TO.C,K4*%
X119692499Y-119992999D02*
X119692499Y-121262999D01*
X120327499Y-120627999D02*
X119057499Y-120627999D01*
X122369499Y-121389999D02*
X100515501Y-121389999D01*
X122369499Y-137243999D02*
X122369499Y-121389999D01*
X122369499Y-137243999D02*
X100515501Y-137243999D01*
X100515501Y-137243999D02*
X100515501Y-121389999D01*
D12*
%TO.C,C2*%
X189349748Y-84355000D02*
X189872252Y-84355000D01*
X189349748Y-85825000D02*
X189872252Y-85825000D01*
%TO.C,R21*%
X152400724Y-45099500D02*
X151891276Y-45099500D01*
X152400724Y-44054500D02*
X151891276Y-44054500D01*
%TO.C,C17*%
X170548514Y-134168335D02*
X170548514Y-133936665D01*
X171268514Y-134168335D02*
X171268514Y-133936665D01*
%TO.C,Q5*%
X134978501Y-111615499D02*
X134978501Y-109940499D01*
X134978501Y-111615499D02*
X134978501Y-112265499D01*
X131858501Y-111615499D02*
X131858501Y-110965499D01*
X131858501Y-111615499D02*
X131858501Y-112265499D01*
%TO.C,C3*%
X185291400Y-77183348D02*
X185291400Y-77705852D01*
X183821400Y-77183348D02*
X183821400Y-77705852D01*
%TO.C,L4*%
X169157314Y-134200500D02*
X169357714Y-134200500D01*
X169157314Y-134920500D02*
X169357714Y-134920500D01*
%TO.C,R7*%
X177192000Y-65881000D02*
X177192000Y-59341000D01*
X177522000Y-65881000D02*
X177192000Y-65881000D01*
X179602000Y-65881000D02*
X179932000Y-65881000D01*
X179932000Y-65881000D02*
X179932000Y-59341000D01*
X177192000Y-59341000D02*
X177522000Y-59341000D01*
X179932000Y-59341000D02*
X179602000Y-59341000D01*
%TO.C,C32*%
X125263501Y-111021747D02*
X125263501Y-111544251D01*
X123793501Y-111021747D02*
X123793501Y-111544251D01*
%TO.C,C6*%
X162861114Y-129660765D02*
X162861114Y-129892435D01*
X162141114Y-129660765D02*
X162141114Y-129892435D01*
D13*
%TO.C,J9*%
X90825000Y-104863900D02*
X80371000Y-104863900D01*
X80371000Y-104863900D02*
X80371000Y-115277900D01*
X90825000Y-115277900D02*
X90825000Y-104863900D01*
X80371000Y-115277900D02*
X90825000Y-115277900D01*
D12*
%TO.C,D7*%
X128338501Y-127816999D02*
X128338501Y-128466999D01*
X129458501Y-128466999D02*
X127218501Y-128466999D01*
X127218501Y-128466999D02*
X127218501Y-132706999D01*
X129458501Y-129066999D02*
X127218501Y-129066999D01*
X129458501Y-129186999D02*
X127218501Y-129186999D01*
X129458501Y-129306999D02*
X127218501Y-129306999D01*
X129458501Y-132706999D02*
X129458501Y-128466999D01*
X127218501Y-132706999D02*
X129458501Y-132706999D01*
X128338501Y-133356999D02*
X128338501Y-132706999D01*
D13*
%TO.C,U8*%
X148678900Y-42329100D02*
X148267740Y-42329100D01*
X144848260Y-42329100D02*
X144437100Y-42329100D01*
X144437100Y-42329100D02*
X144437100Y-42740260D01*
X148678900Y-42740260D02*
X148678900Y-42329100D01*
X144437100Y-46159740D02*
X144437100Y-46570900D01*
X148678900Y-46570900D02*
X148678900Y-46159740D01*
X148267740Y-46570900D02*
X148678900Y-46570900D01*
X144437100Y-46570900D02*
X144848260Y-46570900D01*
G36*
X144005300Y-44890500D02*
G01*
X143751300Y-44890500D01*
X143751300Y-44509499D01*
X144005300Y-44509499D01*
X144005300Y-44890500D01*
G37*
G36*
X149364700Y-45390501D02*
G01*
X149110700Y-45390501D01*
X149110700Y-45009501D01*
X149364700Y-45009501D01*
X149364700Y-45390501D01*
G37*
%TO.C,U5*%
X178119214Y-136325800D02*
X179617814Y-136325800D01*
X179617814Y-134065200D02*
X178119214Y-134065200D01*
D12*
%TO.C,R4*%
X176938000Y-43275000D02*
X176938000Y-36735000D01*
X177268000Y-43275000D02*
X176938000Y-43275000D01*
X179348000Y-43275000D02*
X179678000Y-43275000D01*
X179678000Y-43275000D02*
X179678000Y-36735000D01*
X176938000Y-36735000D02*
X177268000Y-36735000D01*
X179678000Y-36735000D02*
X179348000Y-36735000D01*
%TO.C,C22*%
X180660514Y-138871248D02*
X180660514Y-139393752D01*
X179190514Y-138871248D02*
X179190514Y-139393752D01*
%TD*%
M02*
